<?xml version="1.0" encoding="utf-8"?>
<!-- Generator: Adobe Illustrator 26.2.0, SVG Export Plug-In . SVG Version: 6.00 Build 0)  -->
<svg version="1.1" id="Layer_1" xmlns="http://www.w3.org/2000/svg" xmlns:xlink="http://www.w3.org/1999/xlink" x="0px" y="0px"
	 viewBox="0 0 274.45 260" style="enable-background:new 0 0 274.45 260;" xml:space="preserve">
<style type="text/css">
	.st0{opacity:0.42;}
	.st1{fill:#575757;}
	.st2{fill:#595959;}
	.st3{fill:#7C7C7C;}
	.st4{fill:#787878;}
	.st5{fill:#949494;}
	.st6{display:none;fill:#595959;}
	.st7{fill:#5A5A5A;}
	.st8{display:none;fill:#5A5A5A;}
	.st9{display:none;fill:#5B5B5B;}
	.st10{display:none;fill:#5C5C5C;}
	.st11{display:none;fill:#5D5D5D;}
	.st12{display:none;fill:#686868;}
	.st13{display:none;fill:#646464;}
	.st14{display:none;fill:#787878;}
	.st15{display:none;fill:#6C6C6C;}
	.st16{display:none;fill:#5F5F5F;}
	.st17{display:none;fill:#727272;}
	.st18{display:none;fill:#747474;}
	.st19{display:none;fill:#626262;}
	.st20{display:none;fill:#585858;}
	.st21{display:none;fill:#F1F1F1;}
</style>
<g class="st0">
	<path class="st1" d="M155.55,176.85c9,13.46,18.52,26.52,30.76,37.27c5.98,5.26,12.32,10.1,19.41,15.87
		c-6.61,3.41-12.69,7.13-19.2,9.8c-22.2,9.1-45.61,10.44-69.22,9.86c-1.57-0.04-3.69-1.64-4.53-3.11
		c-4.9-8.5-9.51-17.16-14.18-25.79c-0.86-1.59-1.53-3.28-3.35-4.98c-1.89,11.13-3.77,22.25-5.66,33.41c-8.72,0-17.15,0-25.59,0
		c-0.19-0.59-0.38-1.18-0.57-1.77c2.95-1.46,5.79-3.3,8.89-4.31c6.61-2.17,8.47-6.45,8.52-13.26c0.21-27.31,1.03-54.61,1.62-81.92
		c2.4-4.7,4.79-9.4,7.19-14.1c0.95,1.14,1.98,2.22,2.85,3.42C108.18,158.91,128.98,172.47,155.55,176.85z"/>
	<path class="st1" d="M130.6,78.93c21.84-16.91,45.2-30.33,73.32-32.8c0.28,0.46,0.56,0.92,0.84,1.38c-2.4,1.75-5.08,3.23-7.1,5.34
		c-1.52,1.59-3.11,4-3.08,6.02c0.13,9.98,0.88,19.95,1.23,29.94c0.12,3.52,1.33,5.09,5.09,4.87c4.95-0.28,9.92-0.07,15.99-0.07
		c-4.95,10.9-9.49,20.9-14.04,30.9c-0.43-0.15-0.86-0.29-1.3-0.44c2.3-8.84,4.61-17.67,7.09-27.19c-10.88,0-21.13-0.11-31.37,0.15
		c-1.26,0.03-2.95,1.82-3.62,3.19c-3.2,6.58-6.1,13.31-9.13,19.97c-0.66,1.45-1.44,2.85-3.24,3.93c1.19-4.68,2.31-9.37,3.59-14.02
		c1.45-5.27,1.55-12.27,5.03-15.23c3.18-2.7,10.12-0.83,15.35-1.39c1.5-0.16,3.98-1.7,4.07-2.77c0.95-11.27,1.52-22.58,2.16-33.88
		c0.03-0.45-0.27-0.92-0.49-1.6c-5.05-0.87-9.8-0.92-13.81,3.14c-9.11,9.22-18.14,18.52-27.5,27.48
		c-4.29,4.11-9.11,7.71-13.95,11.17c-3.96,2.83-5.26,5.97-4.7,10.98c2.15,19.31,8.72,37.17,16.77,54.61
		c-1.4-0.1-3.12,0.29-4.15-0.38c-8.18-5.28-16.65-10.23-24.2-16.3c-10.05-8.08-15.39-19.73-20.89-31.1
		c0.08-0.64,0.16-1.28,0.24-1.92C108.16,100.42,118.33,88.69,130.6,78.93z"/>
	<path class="st2" d="M89.63,133.82c-2.4,4.7-4.79,9.4-7.19,14.1c-0.72-4.06-1.43-8.13-2.25-12.79c-8,0.92-15.85,1.83-24.53,2.84
		c-0.96-7.07-1.91-13.9-2.81-20.74c-0.73-5.61-1.45-11.22-2.08-16.85c-0.75-6.72,0.79-8.87,7.37-9.88
		c5.09-0.78,10.24-1.23,15.36-1.83c0.43,1.57,0.97,3.12,1.27,4.71c2.63,13.71,6.45,26.97,14.82,38.47
		C89.61,132.5,89.62,133.16,89.63,133.82z"/>
	<path class="st3" d="M130.6,78.93c-12.27,9.76-22.44,21.49-31.8,33.98c-1.79-7.45-3.57-14.9-5.36-22.35
		c1.31-0.71,2.55-1.76,3.95-2.08c7.52-1.69,10.56-6.72,10.46-13.95c-0.03-2.15-0.52-4.48-1.46-6.41
		c-5.73-11.76-5.32-14.28,6.73-20.04c11.14-5.32,14.74-2.75,14.41,9.69c-0.1,3.77-0.98,7.56-1.89,11.25
		c-0.35,1.44-1.48,3.3-2.73,3.81c-4.5,1.84-3.3,4.51-1.67,7.76C124.44,80.02,127.52,79.47,130.6,78.93z"/>
	<path class="st4" d="M89.63,133.82c-0.01-0.66-0.02-1.32-0.03-1.97c2.99-5.67,5.98-11.34,8.97-17.01
		c5.49,11.36,10.84,23.01,20.89,31.1c7.55,6.08,16.03,11.03,24.2,16.3c1.03,0.67,2.75,0.28,4.15,0.38
		c2.58,4.75,5.16,9.49,7.74,14.24c-26.57-4.38-47.37-17.93-63.07-39.62C91.61,136.03,90.58,134.95,89.63,133.82z"/>
	<path class="st5" d="M98.57,114.83c-2.99,5.67-5.98,11.34-8.97,17.01c-8.37-11.5-12.18-24.75-14.82-38.47
		c-0.31-1.59-0.84-3.14-1.27-4.71c0.8-0.2,1.58-0.48,2.39-0.59c7.49-0.96,7.7-0.77,8.75,6.63c0.15,1.08,0.55,2.12,0.88,3.35
		c2.83-2.68,5.37-5.09,7.92-7.51c1.79,7.45,3.57,14.9,5.36,22.35C98.73,113.55,98.65,114.19,98.57,114.83z"/>
	<path class="st6" d="M-6.12,86.52c1.53-7.3,6.45-1.4,9.8-3.47c-0.9-4.19-5.18-2.32-7.81-4c-0.14-2.29-0.13-4.31,3.59-3.47
		c8.12,1.83,16.28,3.43,24.38,5.35c1.01,0.24,1.7,1.8,2.54,2.75c-1.2,0.44-2.47,1.4-3.58,1.23c-4.11-0.62-8.14-1.7-12.24-2.41
		c-1.08-0.19-2.27,0.31-3.41,0.49c-0.01,0.58-0.02,1.17-0.03,1.75c4.76,1.06,9.51,2.17,14.29,3.16c2.69,0.56,4.5,1.44,2.49,4.85
		c-2.99-0.51-6.05-1.02-9.5-1.61c-0.72,3.3-1.45,6.34-2.04,9.4c-0.66,3.42-2.31,4.84-5.97,3.88c-4.65-1.22-9.4-2.06-14.64-3.17
		c1.31-4.03,0.62-8.61,3.56-11.87c0.56,0.15,1.13,0.31,1.69,0.46c-0.2,2.36-0.39,4.72-0.62,7.48c4.15,0.92,8.14,1.81,12.35,2.74
		c0.54-1.76,0.86-3.02,1.31-4.23c1.48-3.97,0.45-6.23-4.04-6.84C2.08,88.45-1.79,87.43-6.12,86.52z"/>
	<path class="st7" d="M160.95,127.07c4.19,0,7.64-0.09,11.09,0.03c2.76,0.09,3.87-1.06,3.82-3.82c-0.1-5.94-0.03-11.88-0.03-17.82
		c0.42-0.13,0.83-0.26,1.25-0.38c3.09,7.15,6.2,14.29,9.21,21.48c0.26,0.62,0.04,2.05-0.37,2.25c-4.2,2.03-8.34,4.78-12.8,5.56
		C167.88,135.28,163.61,132.19,160.95,127.07z"/>
	<path class="st7" d="M200.42,127.08c4.38,0,7.67-0.14,10.94,0.04c3.18,0.18,4.43-0.96,4.35-4.26c-0.15-5.79,0.09-11.59,0.18-17.38
		c0-0.07,0.24-0.13,0.97-0.5c3.12,7.24,6.26,14.45,9.29,21.7c0.25,0.6-0.02,2-0.44,2.2c-4.21,2-8.37,4.8-12.82,5.43
		C208.22,134.98,203.51,133.04,200.42,127.08z"/>
	<path class="st8" d="M178.25,10.79c-7.06-1.74-0.76-6.39-2.79-9.67c-5.21-1.61-10.99-3.4-16.77-5.19c0.08-0.69,0.16-1.39,0.24-2.08
		c1.73,0.12,3.45,0.37,5.17,0.32c1.44-0.04,2.86-0.43,4.29-0.66c-1.05-0.99-2.01-2.11-3.18-2.94c-1.73-1.22-3.62-2.23-5.43-3.33
		c2.22,0.08,4.53-0.2,6.64,0.31c5,1.22,9.93,2.78,14.85,4.31c1.57,0.49,3.04,1.3,4.55,1.97c-0.19,0.69-0.37,1.38-0.56,2.08
		c-2.31-0.5-4.61-1.02-6.93-1.49c-2.15-0.44-4.97-2.51-5.28,1.98C182.78,0.95,182.78,0.95,178.25,10.79z"/>
	<path class="st9" d="M33.35,16.81c1.73,1.84,3.28,3.53,4.88,5.16c2.84,2.91,2.77,7.56-0.21,10.8c-2.95,3.22-7.59,3.72-10.77,1.18
		c-1.81-1.45-3.64-2.87-5.66-4.46C23.4,23.68,27.1,19.05,33.35,16.81z M37.75,28.45c-2.35-1.89-3.74-3.65-5.48-4.13
		c-0.83-0.23-2.34,1.94-3.54,3.02c1.42,1.4,2.66,3.19,4.36,4.01C33.79,31.68,35.49,29.92,37.75,28.45z"/>
	<path class="st8" d="M102.91-8.23C98.64-7.07,94.9-5.7,91.04-5.18c-1.29,0.17-3.57-1.51-4.18-2.88c-1.39-3.14-2.04-6.61-3.19-10.66
		c4.9-1.37,9.71-2.72,15.06-4.23C100.17-17.88,101.46-13.35,102.91-8.23z M98.15-10.24c-1.6-3.03-2.76-5.56-4.32-7.82
		c-0.23-0.33-3.43,0.63-3.43,1.03c-0.04,2.75,0.39,5.52,0.72,8.76C93.79-9.02,95.46-9.48,98.15-10.24z"/>
	<path class="st8" d="M239.76,38.86c-3.49,3.03-6.35,5.52-9.78,8.5c-3.84-4.43-7.66-8.52-11.01-12.95
		c-0.63-0.83,0.12-3.43,1.04-4.56c1.75-2.15,4.08-3.84,6.77-6.25c1.27,3.46,1.75,7.24,3.81,9.68
		C232.64,35.73,236.28,36.85,239.76,38.86z M224.72,31.34c-0.97,1.29-1.92,2.27-1.79,2.43c1.96,2.59,4.05,5.08,6.22,7.51
		c0.04,0.04,1.96-1.48,1.94-1.52C229.13,37.05,227.08,34.4,224.72,31.34z"/>
	<path class="st9" d="M241.65,25.77c-2.01,1.39-4.02,2.78-6.41,4.44c-2.82-3.23-5.74-6.17-8.09-9.5c-0.69-0.98-0.35-3.58,0.51-4.6
		c2.12-2.5,4.82-4.51,8.4-7.71c0.41,2.94,0.69,5.03,0.98,7.13c0.92,2,1.76,5.92,5.91,3.34c0.35-0.22,1.84,1.39,2.86,2.2
		c-1.66,1.88-2.96,3.35-4.26,4.82C241.55,25.86,241.65,25.77,241.65,25.77z M237.9,21.2c-2.31-0.97-4.36-1.83-6.4-2.69
		c0.35,1.35,0.41,2.88,1.11,4.01C233.98,24.73,235.69,25.48,237.9,21.2z"/>
	<path class="st10" d="M266.74,86.96c-0.05-0.49-0.15-0.99-0.13-1.48c0.11-3.56,0.28-7.66,4.41-8.42c2.14-0.39,5.56,1.18,7,2.99
		c2.63,3.28,2.72,7.5,0.16,11.14c-2.31,3.28-5.48,2.74-10.57-1.48C267.31,88.79,267.02,87.87,266.74,86.96z M273.74,79.32
		c-1.96,2.4-4.03,3.91-3.81,4.9c0.38,1.68,2.2,3.03,3.41,4.53c1.16-1.17,3.17-2.28,3.25-3.52C276.7,83.71,275.18,82.09,273.74,79.32
		z"/>
	<path class="st9" d="M281.38,95.46c0.37,1.2,0.75,2.4,1.32,4.26c-7.98,1.64-15.65,3.22-24.54,5.05c1.21-4.05,2.13-7.1,3.42-11.41
		c1.26,2.27,1.98,3.57,3.02,5.45C269.89,97.75,275.49,96.63,281.38,95.46z"/>
	<path class="st11" d="M92.87-1.74c1.71-0.41,2.95-0.7,4.37-1.04c0.99,2.62,1.9,5.03,2.93,7.75c4.41-1.18,8.52-2.39,12.68-3.33
		c1.2-0.27,2.58,0.2,3.87,0.34c-0.93,0.88-1.71,2.21-2.81,2.57c-4.4,1.43-8.92,2.46-13.34,3.82c-3.01,0.93-4.77,0.04-5.59-2.98
		C94.39,3.17,93.68,0.98,92.87-1.74z"/>
	<path class="st11" d="M186.59-18.72c-0.92,3.01-1.87,6.11-2.82,9.2c-7.41-0.38-1.83-5.37-3.93-8.42
		c-4.47-1.42-9.73-3.08-15.32-4.85C167.31-25.54,178.27-23.24,186.59-18.72z"/>
	<path class="st12" d="M67.47,278.39c1.07-1.88-2.25-6.34,3.06-6.37c1.63-0.01,3.27,1.61,4.9,2.48c-2.31,3.31,4.04,7.58-1.16,10.55
		C69.75,287.64,67.46,285.53,67.47,278.39z"/>
	<path class="st10" d="M36.73,38.38c1.05-1.12,2.03-2.16,3.14-3.34c2.21,1.81,4.21,3.46,6.54,5.37c3.28-3.54,6.35-6.98,9.61-10.24
		c0.71-0.71,2.12-0.74,3.2-1.08c-0.3,1.11-0.27,2.51-0.95,3.29c-3.04,3.5-6.39,6.74-9.43,10.23c-2.4,2.75-4.55,2.83-7.07,0.23
		C40.29,41.31,38.58,40,36.73,38.38z"/>
	<path class="st10" d="M36.39,10.36c3.51,0.77,5.92,1.29,7.45,1.63c2.29,3.62,4.46,7.04,6.98,11.02c-0.35,0.4-1.24,1.42-2.37,2.7
		c-4.82-4.38-9.32-8.48-14.14-12.86C35.11,11.89,36,10.83,36.39,10.36z"/>
	<path class="st11" d="M257.41,83.31c0.46,1.41,0.84,2.6,1.33,4.1c-2.29,0.72-4.29,1.36-6.83,2.16c0.95,5.31,1.91,10.62,2.86,15.94
		c-0.53,0.17-1.06,0.33-1.58,0.5c-0.56-0.78-1.42-1.5-1.63-2.36c-0.94-3.86-1.51-7.81-2.56-11.64c-1.25-4.55-0.42-7.47,4.88-7.85
		C254.99,84.08,256.07,83.65,257.41,83.31z"/>
	<path class="st11" d="M113.79-8.06c-3.29,2.23-4.62,1.5-5.39-1.64c-1.22-4.97-2.8-9.85-4.3-15.01c1.25-0.42,2.46-0.84,4.4-1.5
		C110.29-20.07,112.02-14.14,113.79-8.06z"/>
	<path class="st13" d="M266.74,86.96c0.29,0.91,0.58,1.83,0.86,2.74c0,2.28,0,4.56,0,6.85c-0.34,0.18-0.68,0.36-1.02,0.54
		c-0.68-0.94-1.6-1.79-2-2.84c-0.88-2.28-0.25-5.54-4.16-5.62c-0.29-0.01-0.92-1.16-0.79-1.59c0.99-3.2,2.13-6.34,3.68-10.82
		C264.67,80.47,265.7,83.72,266.74,86.96z"/>
	<path class="st10" d="M241.55,25.86c2.58-0.32,5.73,3.84,7.29-1.29c4.42,3.01,4.53,3.11-8.16,13.2c-0.76-0.88-1.62-1.88-2.49-2.88
		c0.72-0.19,1.43-0.37,2.15-0.56c0.43-2.85,0.87-5.71,1.3-8.56C241.65,25.77,241.55,25.86,241.55,25.86z"/>
	<path class="st14" d="M167.94,281.06c-1.75,0.3-3.5,0.6-5.25,0.9c-0.08,0.35-0.16,0.69-0.24,1.04c1.48,0.52,2.97,1.03,4.45,1.55
		c-0.07,0.42-0.13,0.83-0.2,1.25c-1.9-0.48-4.35-0.41-5.53-1.6c-1.07-1.08-1.51-3.86-0.86-5.28c0.63-1.4,3.05-2.91,4.53-2.76
		c1.5,0.15,2.79,2.27,4.18,3.53C168.66,280.13,168.3,280.6,167.94,281.06z"/>
	<path class="st15" d="M85.02,286.2c-2.53-0.9-4.89-1.74-7.24-2.57c1.34-1.75,2.67-3.5,4.18-5.48c-0.38-0.16-1.51-0.62-2.75-1.12
		C84.84,274.81,86.31,276.9,85.02,286.2z"/>
	<path class="st15" d="M121.7,285.64c-1.56,0-3.35,0-5.63,0c0-4.49,0-8.83,0-13.48c2.05,0,3.96,0,6.06,0
		c-1.54,1.54-2.88,2.89-4.23,4.24c1.47,0.75,2.94,1.51,3.8,1.95c-1.18,1.35-2.54,2.91-3.89,4.48
		C119.1,283.76,120.39,284.69,121.7,285.64z"/>
	<path class="st16" d="M133.63,285.22c-1.11-2.57-2.14-4.96-3.17-7.34c-1.4,2.35-2.79,4.7-4.34,7.31c0-2.85,0-5.69,0-8.55
		C134.8,275.72,136.14,277.22,133.63,285.22z"/>
	<path class="st17" d="M90.82,278.05c1.18,2.2,2.21,4.1,3.23,6c-1.77,0.69-3.53,1.37-5.3,2.06c-0.2-0.47-0.4-0.94-0.6-1.42
		c1.29-0.46,2.57-0.93,3.52-1.27c-1.28-1.99-2.47-3.84-3.66-5.69c1.52-0.73,3.05-1.45,4.57-2.18c0.2,0.46,0.4,0.92,0.6,1.38
		C92.27,277.37,91.36,277.8,90.82,278.05z"/>
	<path class="st18" d="M145.68,276.65c2.05,0.39,4.64,0.17,5.97,1.36c0.96,0.86,0.98,4.1,0.1,5.33c-0.84,1.18-3.39,1.13-5.19,1.62
		c0.01-0.35,0.01-0.7,0.02-1.05c3,0.19,4.52-1.27,3.68-4.14c-0.8-2.74-2.75-2.25-4.61-0.85
		C145.66,278.17,145.67,277.41,145.68,276.65z"/>
	<path class="st19" d="M146.58,283.92c-0.01,0.35-0.01,0.7-0.02,1.05c-1-0.36-2.84-0.67-2.86-1.07c-0.21-4.13-0.13-8.27-0.13-12.42
		c0.54-0.04,1.08-0.08,1.62-0.12c0.16,1.77,0.33,3.54,0.49,5.3c-0.01,0.76-0.02,1.51-0.03,2.27
		C145.96,280.59,146.27,282.25,146.58,283.92z"/>
	<path class="st20" d="M156.17,271.54c0,4.52,0,9.04,0,13.55c-0.33,0-0.67,0-1,0c0-4.51,0-9.02,0-13.52
		C155.5,271.56,155.84,271.55,156.17,271.54z"/>
	<path class="st8" d="M171.14,276.28c1.74,0,3.28,0,3.84,0c-1.14,2.89-2.31,5.85-3.84,9.71
		C171.14,282.35,171.14,279.5,171.14,276.28z"/>
	<path class="st21" d="M224.72,31.34c2.36,3.06,4.41,5.7,6.36,8.43c0.02,0.03-1.9,1.56-1.94,1.52c-2.16-2.43-4.25-4.92-6.22-7.51
		C222.8,33.61,223.75,32.63,224.72,31.34z"/>
</g>
</svg>
