<?xml version="1.0" encoding="utf-8"?>
<!-- Generator: Adobe Illustrator 26.2.0, SVG Export Plug-In . SVG Version: 6.00 Build 0)  -->
<svg version="1.1" id="Layer_1" xmlns="http://www.w3.org/2000/svg" xmlns:xlink="http://www.w3.org/1999/xlink" x="0px" y="0px"
	 viewBox="0 0 600 550" style="enable-background:new 0 0 600 550;" xml:space="preserve">
<style type="text/css">
	.st0{fill:#B3DCF6;}
	.st1{fill:#FFFFFF;stroke:#C9EAF3;stroke-width:2.4579;stroke-linecap:round;stroke-linejoin:round;stroke-miterlimit:10;}
	.st2{fill:#106889;}
</style>
<g>
	<g>
		<path class="st0" d="M581.03,307.1c-1.35-8.02-4.99-15.9-0.89-24.6c1.61-3.41-0.4-8.6-1.08-12.93c-0.11-0.69-1.95-1.06-2.93-1.67
			c-2.27-1.41-5.61-2.39-6.49-4.43c-1.52-3.51-0.23-6.99,3.77-9c1.6-0.8,2.74-2.52,4.09-3.82c-0.34-0.35-0.68-0.7-1.02-1.05
			c-0.28,0.16-8.81-3.96-9.09-3.8l-26.88,26.15c-2.57,1.51-5.5,2.36-8.48,2.47l-8.38,0.31c-4.2,0.15-8.18,1.59-11.51,4.14
			l-15.1,11.58c-1.71,1.31-2.94,3.18-3.47,5.27L489.7,311c-0.28,1.1-0.66,2.18-1.12,3.21c-0.17,0.38-0.36,0.76-0.55,1.13
			l-8.22,15.41l-14.37,17.2c-0.15,0.18-0.3,0.34-0.45,0.51c-1.77,1.97-3.95,3.51-6.35,4.55c-1.98,0.85-4.12,1.36-6.31,1.47
			l-1.36,0.07l-16.88,0.85l-0.63,0.03l-1.53-0.25l-4.6-0.75l-2.17-0.35l-6.39-1.04l-0.77-0.47c-5.54-3.36-21.19-12.43-26.93-13.97
			c-9.36-2.51-18.17-2.27-23.92-1.63c-3.35,0.37-6.55,1.88-9.03,4.24l-8.36,7.98l-23.24,22.18c-4.03,3.85-9.32,5.97-14.89,5.97h-1.7
			H297.8h-0.14h-1.07c-4.38,0-8.51-1.69-11.63-4.77l-1.39-1.37l-3.7-3.65l-9.38-9.24c-0.49,0.13-8.88-3.42-9.45-3.29
			c-3.34,0.79-0.09,5.29-4.92,5.29c-4.68,0-9.57-0.77-13.74-3.05c-0.84-0.46-1.65-0.97-2.42-1.56c-11.76-8.93-12.74-22.7-12.4-29.56
			l-12.75-5.32l-21.25-11.32c-1.05-0.56-2.03-1.25-2.91-2.04l-17.17-15.44l-15.49-13.93c-1.27-1.14-2.33-2.48-3.15-3.97l-3.94-7.18
			l-7.23-8.34l-19.19-11.06l-8.92-12.03l-9.1-7.38l-11.37-14.7l-37.96-21.01c-0.14-0.03,0.16,0.04,0,0
			c1.79,2.45,10.08,5.47,11.27,7.09c-5.46,3.72-4.4,8.68-2.98,13.71c0.42,1.5,1.09,3.04,1.06,4.55c-0.09,4.31,2.03,9.53-2.68,12.43
			c-7.28,4.49-9.19,11.24-9.21,18.98c-0.01,4.45-1.81,7.28-6.2,8.15c-7.67,1.52-10.66,6.76-11.54,13.9c-0.3,2.4-0.93,4.77-1.53,7.12
			c-0.29,1.14-0.6,2.91-1.35,3.18c-7.95,2.95-6.41,7.88-3.09,13.35c0.43,0.71,0.62,1.67,0.6,2.51c-0.15,4.88,2.77,6.82,6.97,8.28
			c9.63,3.36,12.86,5.53,15.4,18.18c0.86,4.29,11.46,4.54,13.91,0.87c5.49-8.21,12.55-11.06,22.43-8.88
			c1.43,0.31,2.67,0.67,3.76,1.11c3.66,1.48,5.45,3.9,5.45,8.98c0.01,5.9-0.11,11.8,0.01,17.69c0.17,8.32,0.57,16.59-4.49,24
			c-0.23,0.33-0.33,0.86-0.34,1.46c-0.02,1.29,0.43,2.88,1.11,3.45c2.59,2.19,2.29,4.42,1.23,6.94c-2.64,6.21-5.58,12.31-7.9,18.64
			c-0.84,2.29-1.3,5.78-0.14,7.57c5.86,9.07,5.63,17.63-0.67,26.22c-0.1,0.14-0.17,0.3-0.22,0.47c-0.94,3.03-12.29,4.65-13.23,7.68
			c-0.14,0.46,10.13,2.33,9.99,2.79c4.2,0.29,8.4,0.59,12.6,0.83c0.48,0.03,0.99-0.46,1.48-0.45c4.2,0.11,8.4,0.41,12.6,0.38
			c4.24-0.03,10.36,1.35,12.4-0.87c8.08-8.81,19.88-14.62,22.99-27.87c0.65-2.75,5.36-6.12,8.4-6.34c3.57-0.25,6.38,3.05,6.5,7.8
			c0.02,0.94,0.14,1.89,0.3,2.83c0.45,2.59,1.34,5.17,2.11,7.69c3.05,9.9,6.17,19.78,9.49,29.6c0.49,1.46,2.14,3.42,3.4,3.54
			c3.24,0.3,3.83,2.27,4.48,4.73c2.95,11.23-2.78,24.15,0.25,35.37c2.91,10.77,11.67,9.07,22.87,9.63
			c9.68,0.48,15.25-2.97,18.96-11.77c0.34-0.8,0.52-1.89,1.13-2.3c0.94-0.63,1.91-1.4,2.9-2.05c1.11-0.73,2.25-1.31,3.39-1.36
			c2.68-0.12,5.49,0.66,6.66,4.4c2.95,9.41,7.21,12.05,17.19,11.69c6.23-0.22,12.47-0.38,18.7-0.69c1.33-0.07,2.85-0.32,3.92-1.04
			c7.74-5.17,15.46-10.38,23.05-15.77c8.67-6.18,14.02-16.37,23.9-21.16c1.06-0.52,2.18-0.97,3.35-1.35
			c2.01-0.64,3.75-2.11,5.62-3.2c0.66,2.16-5.25,4.41-4.32,6.45c1.21,2.66-2.28,3.74-0.22,4.45c3.4,1.16,18.84,4.85,21.74,0.61
			c1.36-2,3.01-3.82,4.65-5.6c6.87-7.47,14.15-9.67,20.39-7.27c2.14,12.85,4.16,24.87,6.12,36.9c0.33,2.04,0.3,4.14,0.62,6.18
			c0.21,1.31-2.21,5.55-1.35,6.11c9.9,6.48,21.53,12.35,34.61,12.03c8.57-0.21,9.12,0.19,10.1-8.56c0.75-6.69,3.67-9.55,10.14-10.17
			c5.95-0.57,11.08-2.87,12.82-9.5c0.17-0.63,1.18-1.52,1.76-1.49c8.11,0.46,8.3-6.09,9.25-11.14c0.54-2.85,1.62-3.93,3.94-4.42
			c0.62-0.13,1.25-0.27,1.87-0.4c5.74-1.23,11.48-2.54,17.28-3.36c5.1-0.72,8.51-3.25,11.15-7.47c0.91-1.45,2.87-3.54,4.02-3.34
			c1.71,0.29,3.11,0.21,4.28-0.15c3.34-1.02,4.78-4.3,5.96-7.81c1.53-4.56,4.1-6.47,9.12-6.22c5.91,0.3,8.29-3,8.99-8.89
			c0.34-2.85,1.94-7.14,4.01-7.89c6.33-2.28,8.72-6.7,9.88-12.63c1.19-6.09,0.76-12.96,8.78-15.62c1.22-0.4,1.33-5.28,1.18-8.04
			c-0.06-1.05-2.14-2.47-3.55-2.88c-5.3-1.54-10.69-2.76-16.06-4.03c-4.06-0.96-6.24-2.99-6-7.63c0.11-2.09-1.53-4.27-2.54-6.86
			c5.04-8.31,10.13-17.19,15.73-25.74c3.19-4.88,4.87-9.96,4.39-15.65c-0.29-3.45,1.04-4.82,4.26-5.77
			c9.47-2.81,18.84-5.95,28.21-9.07C580.17,318.38,581.98,312.74,581.03,307.1z"/>
		<path class="st0" d="M240.65,331.61l-6.89-2.88c0.1,6.08,1.7,15.76,9.97,22.04c4.78,3.63,12.06,3.66,17.33,3.04
			c1.49-0.17,2.91-0.41,4.2-0.66l-16.14-15.91C246.67,334.82,243.82,332.93,240.65,331.61z"/>
		<path class="st0" d="M158.58,261.6l4.42,8.05c0.32,0.58,0.73,1.09,1.22,1.53l32.66,29.37c0.32,0.29,0.68,0.54,1.06,0.74
			l20.87,11.12l25.43,10.61c4.27,1.78,8.12,4.34,11.41,7.59l5.27,5.2l23.24,28.95c1.37,1.35,10.52,3.29,12.43,3.29h15.03
			c3.17,0,6.17-1.2,8.46-3.39l31.6-30.16c1.26-1.2,2.65-2.27,4.12-3.18c3.13-1.93,6.66-3.18,10.3-3.58c6.54-0.73,16.6-1,27.36,1.89
			c5.04,1.35,14.43,6.38,21.28,10.27c3.25,1.85,5.93,3.44,7.29,4.26l11.94,1.95l17.88-0.9c2.49-0.12,4.83-1.29,6.43-3.21
			l13.75-16.46l7.76-14.56c0.38-0.71,0.67-1.47,0.87-2.25l3.87-15.28c0.55-2.16,1.49-4.2,2.74-6.03c-3.14,1.54-6.23-2.48-9.45-3.29
			c-0.76-3.37-2.82-2.43-3.26-5.83c-0.26-2.02-0.36-4.67,0.7-6.15c2.16-3.02,3.12-6.16,3.38-9.44c0.17-2.23,0.02-4.51-0.3-6.87
			c-0.16-1.11,0.38-2.52,1.03-3.51c5.57-8.49,15.46-14.69,14.06-26.85c-0.05-0.43,0.58-0.91,0.6-1.39
			c0.19-3.43,0.25-6.86,0.48-10.29c0.18-2.73-0.45-6.3,1-8.04c6.68-7.99,7.38-12.91,1.86-21.43c-0.37-0.57-0.92-1.18-0.95-1.8
			c-0.23-4.19-2.98-5.4-6.54-5.98c-1.61-0.26-3.49-1.86-4.89-3.79c-1.38-1.91-2.27-4.13-1.92-5.7c0.32-1.43,1.63-3.2,2.94-3.76
			c8.94-3.78,11.28-9.53,7.4-18.42c-0.88-2.01-1.2-4.31-1.53-6.51c-1.64-10.82-1.61-10.83-12.42-13.42
			c-1.34-0.32-2.74-0.67-4.1-0.62c-5,0.19-6.95-2.83-6.97-7.1c-0.02-5.08,0.79-10.17,0.84-15.25c0.03-3.13,1.21-5,3.81-6.61
			c1.6-0.99,3.82-2.89,3.77-4.31c-0.21-6.21,0.89-12.82-4.95-17.74c-4.18-3.53-5.28-7.89-0.75-12.38c1.21-1.19,2.08-2.79,2.87-4.32
			c2.91-5.67,0.25-10.87-5.63-12.56c-4.04-1.16-7.94-3.11-11.57-5.28c-3.4-2.03-6.41-4.74-9.48-7.28
			c-3.66-3.02-12.91-7.13-16.29-5.28c-6.12,3.35-6.52,12.67-12.61,16.1c-1.16,0.65-2.67,0.87-4.22,0.86
			c-1.25-0.01-2.52-0.15-3.65-0.36c-3.96-0.71-7.73-2.42-11.68-3.24c-3.01-0.63-6.17-0.54-9.21-0.77c-0.34-1.31-0.59-2.31-0.87-3.3
			c-1.78-6.45-9.82-10.7-16.56-10.51c-3.46,0.1-0.2,3.39-3.66,3.54c-8.44,0.37-12.41,3.51-13.95,11.65
			c-0.8,4.23-0.83,8.61-1.23,13.15c-1.41,0.52-2.83,1.03-4.24,1.53c-3.8,1.35-7.61,2.69-11.24,4.4c-1.98,0.94-4.36,3.3-4.61,5.27
			c-1.47,11.18-6.66,20.61-12.5,29.92c-1.63,2.6-2.47,6.09-2.53,9.19c-0.19,10.05,0.19,20.12,0.28,30.17
			c0.02,2.12-0.98,4.89-2.36,7.21c-1.41,2.38-3.22,4.28-4.75,4.52c-2.68,0.42-5.38,0.76-7.96,1.06c-2.52,0.29-4.94,0.55-7.13,0.81
			c-0.1,0.01-0.21,0.02-0.3,0.04c0.15-6.58,0.58-13.21,0.31-19.81c-0.09-2.25-1.39-5.01-3.06-6.54
			c-6.89-6.34-14.11-12.31-21.24-18.38c-4.93-4.19-12.84-11.17-15.89-5.21c-3.24,6.32-0.34,17.03-7.98,15.77
			c-1.73-0.29-4.73,0.46-5.43,1.7c-2.35,4.2-5.73,4.27-9.71,3.85c-3.27-0.35-6.59-0.25-9.87-0.47c-2.92-0.19-4.62,0.83-4.85,3.97
			c-0.68,9.34-1.19,18.7-2.26,28c-0.74,6.43,1.21,13.62-4.68,18.9c-0.69,0.61-0.57,2.29-0.57,3.48c0.01,10.41,0.06,20.81,0.14,31.22
			c0.11,13.71-9.8,20.96-22.53,16.47c-1.31-0.46-2.6-1.2-3.93-1.31c-0.76-0.06-1.73-0.02-2.52,0.2c-0.51,0.14-0.95,0.35-1.21,0.66
			c-2.16,2.61-3.66,5.78-5.87,8.34c-2.91,3.36-6.2,8.92-9.41,8.98c-7.69,0.15-13.72,2.48-19.39,7.14c-0.82,0.68-2.34,1.28-3.38,1.22
			c-0.16,0.45-0.33,0.9-0.51,1.34l7.51,4.33L158.58,261.6z"/>
	</g>
	<g>
		<path class="st1" d="M417.87,351.14c1.53,0.32,3.06,0.57,4.6,0.75L417.87,351.14z"/>
		<path class="st1" d="M454.53,346.54c0.33-0.46,0.66-0.91,1-1.37c-1.77,1.97-3.95,3.51-6.35,4.55c0.21-0.05,0.43-0.1,0.64-0.15
			C451.56,349.15,453.5,347.96,454.53,346.54z"/>
		<path class="st1" d="M300.47,374.06h-12.12C292.21,374.61,296.28,374.55,300.47,374.06z"/>
		<path class="st1" d="M274.13,367.92l-3.7-3.65C271.6,365.64,272.84,366.86,274.13,367.92z"/>
		<path class="st1" d="M441.52,351.26l-16.88,0.85C430.2,352.55,435.84,352.18,441.52,351.26z"/>
		<path class="st1" d="M220.86,377.22l-0.22,9.92l-4.47,9.39l-13.52,3.31l-4.97,4.41l-1.66,11.59l10.76-6.34l13.52-3.03l3.59-6.9
			h31.52l15.38,5.24l4.14,21.24l10.48,6.9h8.97l6.89-3.32l-2.06-5.5l5.52-30.9l-4.69-9.93l-9.45-1.08l-2.37-8.15h-1.07
			c-4.38,0-8.51-1.69-11.63-4.77l-1.39-1.37c-1.29-1.06-2.52-2.28-3.7-3.65l-9.38-9.24c-3.37,0.89-8.71,2-14.36,2
			c-4.68,0-9.57-0.77-13.74-3.05l-9.32,13.86L220.86,377.22z"/>
		<path class="st1" d="M173.96,319.57l0.93,8.66l-10.86,8.44v25.79l11.86,7.03l3.76,19.83l4.24,3.34v19.03l9.1,5.79l3.03-1.66
			l1.66-11.59l4.97-4.41l13.52-3.31l4.47-9.39l0.22-9.92l2.76-9.38l9.32-13.86c-0.84-0.46-1.65-0.97-2.42-1.56
			c-11.76-8.93-12.74-22.7-12.4-29.56l-12.75-5.32l-21.25-11.32c-1.05-0.56-2.03-1.25-2.91-2.04l-17.17-15.44v11.51L173.96,319.57z"
			/>
		<path class="st1" d="M477.35,433.71l-2.48-15.93l-12.21-7.24l-2.07-6.21l-3.52-3.72l-17.38-2.69l-10.55-5.38l-8.48-6.83l-4.55-8.9
			l-0.41-26.02l-6.39-1.04l-0.77-0.47c-5.54-3.36-21.19-12.43-26.93-13.97c-9.36-2.51-18.17-2.27-23.92-1.63
			c-3.35,0.37-6.55,1.88-9.03,4.24l-8.36,7.98l8.01,14.21l2.48,16.28l6.36,6.05l1.36,23.19L369,416.95l9.1,3.59l5.68,6.53
			l2.32,18.02l3.86,10.21l9.93-3.31l9.66-0.83l4.69-8.55l8.28-2.76h10.76l4.97,4.14l-0.55,10.21l5.49,6.62l6.92,3.86l5.93,11.34
			c5.74-1.23,11.48-2.54,17.28-3.36c5.1-0.72,8.51-3.25,11.15-7.47c0.91-1.45,2.87-3.54,4.02-3.34c1.71,0.29,3.11,0.21,4.28-0.15
			l-4.05-11.01L477.35,433.71z"/>
		<path class="st1" d="M301.27,429.62l-6.89,3.32h-8.97l-10.48-6.9l-4.14-21.24l-15.38-5.24H223.9l-3.59,6.9l-13.52,3.03
			l-10.76,6.34l3.86,4.83l5.52,3.17l-0.28,14.07l3.03,26.21l4.41,8l5.79,1.1l2.21,8.28l-2.43,8.8c1.11-0.73,2.25-1.31,3.39-1.36
			c2.68-0.12,5.49,0.66,6.66,4.4c2.95,9.41,7.21,12.05,17.19,11.69c6.23-0.22,12.47-0.38,18.7-0.69c1.33-0.07,2.85-0.32,3.92-1.04
			c7.74-5.17,15.46-10.38,23.05-15.77c8.67-6.18,14.02-16.37,23.9-21.16l-14.09-28.46L301.27,429.62z"/>
		<path class="st1" d="M99.47,301.95l4.15,5.48l7.72,18.76l8.55,4.41l7.72,1.38l9.93-3.86l7.17-12l0.28-11.72l4.41-6.62l6.62,3.59
			l8-1.1v-11.51l-15.49-13.93c-1.27-1.14-2.33-2.48-3.15-3.97l-3.94-7.18l-7.23-8.34l-19.19-11.06l-8.92-12.03l-9.1-7.38
			l-11.37-14.7l-28.51-17.72c-0.14-0.03-0.28-0.06-0.44-0.11c1.79,2.45,1.07,2.29,2.26,3.91c-5.46,3.72-4.4,8.68-2.98,13.71
			c0.42,1.5,1.09,3.04,1.05,4.55c-0.09,4.31,2.03,9.53-2.68,12.43c-7.28,4.49-9.19,11.24-9.21,18.98c-0.01,4.45-1.81,7.28-6.2,8.15
			c-7.67,1.52-10.66,6.76-11.54,13.9c-0.3,2.4-0.93,4.77-1.53,7.12c-0.29,1.14-0.6,2.91-1.35,3.18c-7.95,2.95-6.41,7.88-3.09,13.35
			c0.43,0.71,0.62,1.67,0.6,2.51c-0.15,4.88,2.77,6.82,6.97,8.28c9.63,3.36,20.18,5.55,22.72,18.19c0.86,4.29,4.14,4.53,6.59,0.86
			c5.49-8.21,12.55-11.06,22.43-8.88c1.43,0.31,2.67,0.67,3.76,1.11l5.87-11.49L99.47,301.95z"/>
		<path class="st1" d="M571.58,303.81c-1.35-8.02-4.99-15.9-0.89-24.6c1.61-3.41-0.4-8.6-1.08-12.93c-0.11-0.69-1.95-1.06-2.93-1.67
			c-2.27-1.41-5.61-2.39-6.49-4.43c-1.52-3.51-0.23-6.99,3.77-9c1.6-0.8,2.74-2.52,4.09-3.82c-0.34-0.35-0.68-0.7-1.02-1.05
			c-0.28,0.16-0.55,0.33-0.83,0.49l0.56,0.95l-35.7,20.91c-2.57,1.51-5.5,2.36-8.48,2.47l-8.38,0.31c-4.2,0.15-8.18,1.59-11.51,4.14
			l-15.1,11.58c-1.71,1.31-2.94,3.18-3.47,5.27l-3.87,15.28c-0.28,1.1-0.66,2.18-1.12,3.21l2.85,3.54l5.58,1.03l1.18,4.08
			l-1.66,7.59l-3.17,8.83l8.01,6.86l2.06,8.73l10.35,1.38l4,3.86l5.79,1.38l4.28,4.28l-4.28-4.28l-5.79-1.38l-4-3.86l-10.35-1.38
			l-2.06-8.73l-8.01-6.86l3.17-8.83l1.66-7.59l-1.18-4.08l-5.58-1.03l-2.85-3.54c-0.17,0.38-0.36,0.76-0.55,1.13l-8.22,15.41
			l-14.37,17.2c-0.15,0.18-0.3,0.34-0.45,0.51c-0.33,0.46-0.67,0.91-1,1.37c-1.03,1.42-2.98,2.61-4.71,3.03
			c-0.21,0.05-0.43,0.1-0.64,0.15c-1.98,0.85-4.12,1.36-6.31,1.47l-1.36,0.07c-5.68,0.92-11.32,1.29-16.88,0.85l-0.63,0.03
			l-1.53-0.25c-1.54-0.18-3.08-0.43-4.6-0.75l-2.17-0.35l0.41,26.02l4.55,8.9l8.48,6.83l10.55,5.38l17.38,2.69l3.52,3.72l2.07,6.21
			l12.21,7.24l2.48,15.93l11.38,16.97l4.05,11.01c3.34-1.02,4.78-4.3,5.96-7.81c1.53-4.56,4.1-6.47,9.12-6.22
			c5.91,0.3,8.29-3,8.99-8.89c0.34-2.85,1.94-7.14,4.01-7.89c6.33-2.28,8.72-6.7,9.88-12.63c1.19-6.09,0.76-12.96,8.78-15.62
			c1.22-0.4,1.33-5.28,1.18-8.04c-0.06-1.05-2.14-2.47-3.55-2.88c-5.3-1.54-10.69-2.76-16.06-4.03c-4.06-0.96-6.24-2.99-6-7.63
			c0.11-2.09-1.53-4.27-2.54-6.86c5.04-8.31,10.13-17.19,15.73-25.74c3.19-4.88,4.87-9.96,4.39-15.65
			c-0.29-3.45,1.04-4.82,4.26-5.77c9.47-2.81,18.84-5.95,28.21-9.07C570.72,315.09,572.53,309.45,571.58,303.81z"/>
		<path class="st1" d="M218.38,473.22l-5.79-1.1l-4.41-8l-3.03-26.21l0.28-14.07l-5.52-3.17l-3.86-4.83L193,417.5l-9.1-5.79
			l-6.9,4.41l-24.44-0.24c0.45,2.59,1.34,5.17,2.11,7.69c3.05,9.9,6.17,19.78,9.49,29.6c0.49,1.46,2.14,3.42,3.4,3.54
			c3.24,0.3,3.83,2.27,4.48,4.73c2.95,11.23,5.97,22.45,9,33.67c2.91,10.77,2.92,10.77,14.12,11.33
			c9.68,0.48,15.25-2.97,18.96-11.77c0.34-0.8,0.52-1.89,1.13-2.3c0.94-0.63,1.91-1.4,2.9-2.05l2.43-8.8L218.38,473.22z"/>
		<path class="st1" d="M443.18,460.81l-5.49-6.62l0.55-10.21l-4.97-4.14h-10.76l-8.28,2.76l-4.69,8.55l-9.66,0.83l-9.93,3.31
			l-3.86-10.21l-2.32-18.02l-5.68-6.53l-9.1-3.59l-10.48-11.31l-1.36-23.19l-6.36-6.05l-2.48-16.28l-8.01-14.21l-23.24,22.18
			c-4.03,3.85-9.32,5.97-14.89,5.97h-1.7c-4.2,0.49-8.26,0.56-12.12,0h-0.14l2.37,8.15l9.45,1.08l4.69,9.93l-5.52,30.9l2.06,5.5
			l-0.4,8.29l14.09,28.46c1.06-0.52,2.18-0.97,3.35-1.35c2.01-0.64,3.75-2.11,5.62-3.2c0.66,2.16,1.12,4.42,2.05,6.47
			c1.21,2.66,2.27,6.68,4.33,7.38c3.4,1.16,7.92,1.9,10.81-2.34c1.36-2,3.01-3.82,4.65-5.6c6.87-7.47,14.15-9.67,20.39-7.27
			c2.14,12.85,4.16,24.87,6.12,36.9c0.33,2.04,0.3,4.14,0.62,6.18c0.21,1.31,0.35,3.18,1.22,3.75c9.9,6.48,18.96,14.71,32.05,14.4
			c8.57-0.21,9.12,0.19,10.1-8.56c0.75-6.69,3.67-9.55,10.14-10.17c5.95-0.57,11.08-2.87,12.82-9.5c0.17-0.63,1.18-1.52,1.76-1.49
			c8.11,0.46,8.3-6.09,9.25-11.14c0.54-2.85,1.62-3.93,3.94-4.42c0.62-0.13,1.25-0.27,1.87-0.4l-5.93-11.34L443.18,460.81z"/>
		<path class="st1" d="M101.13,374.46h11.03l13.52-12h10.76l2.48,9.79l3.86,2.21h15.17l6.07-12v-25.79l10.86-8.44l-0.93-8.66
			l-9.93-19.31l-8,1.1l-6.62-3.59l-4.41,6.62l-0.28,11.72l-7.17,12l-9.93,3.86l-7.72-1.38l-8.55-4.41l-7.72-18.76l-4.15-5.48
			l-9.09,0.24l-5.87,11.49c3.66,1.48,5.45,3.9,5.45,8.98c0.01,5.9-0.11,11.8,0.01,17.69c0.17,8.32,0.57,16.59-4.49,24
			c-0.23,0.33-0.33,0.86-0.34,1.46l13.51,1.76L101.13,374.46z"/>
		<path class="st1" d="M183.89,411.71v-19.03l-4.24-3.34l-3.76-19.83l-11.86-7.03l-6.07,12h-15.17l-3.86-2.21l-2.48-9.79h-10.76
			l-13.52,12h-11.03l-2.48-6.9l-13.51-1.76c-0.02,1.29,0.43,2.88,1.11,3.45c2.59,2.19,2.29,4.42,1.23,6.94
			c-2.64,6.21-5.58,12.31-7.9,18.64c-0.84,2.29-1.3,5.78-0.14,7.57c5.86,9.07,5.63,17.63-0.67,26.22c-0.1,0.14-0.17,0.3-0.22,0.47
			c-1.09,3.49-2.17,6.98-3.25,10.47c4.2,0.29,8.4,0.59,12.6,0.83c0.48,0.03,0.99-0.46,1.48-0.45c4.2,0.11,8.4,0.41,12.6,0.38
			c4.24-0.03,10.36,1.35,12.4-0.87c8.08-8.81,19.88-14.62,22.99-27.87c0.65-2.75,5.36-6.12,8.4-6.34c3.57-0.25,6.38,3.05,6.5,7.8
			c0.02,0.94,0.14,1.89,0.3,2.83l24.44,0.24L183.89,411.71z"/>
		<path class="st1" d="M234.27,347.48c4.78,3.63,12.06,3.66,17.33,3.04c1.49-0.17,2.91-0.41,4.2-0.66l-16.14-15.91
			c-2.45-2.41-5.29-4.3-8.46-5.63l-6.89-2.88C224.41,331.53,226.01,341.2,234.27,347.48z"/>
		<polygon class="st1" points="282.65,267.98 270.42,256.02 268.86,248.67 276.59,223.84 273,209.77 266.1,207.01 266.1,196.81 
			261.41,195.74 254.24,199.91 250.65,205.91 249.55,211.56 235.9,216.81 235.62,221.22 231.48,226.18 211.34,226.46 203.48,234.6 
			202.65,244.25 215.9,258.46 223.34,264.39 239.62,279.84 266.65,282.88 272.72,277.63 280.17,273.22 		"/>
		<polygon class="st1" points="370.38,265.77 373.42,259.98 390.24,261.98 394.66,272.67 423.35,282.46 431,261.98 424.17,199.91 
			404.73,203.98 395.21,208.12 388.59,215.7 384.73,224.67 365.14,235.43 364.31,243.43 359.07,249.5 358.79,261.98 364.86,266.6 		
			"/>
		<polygon class="st1" points="353.92,283.77 359.07,275.98 358.79,261.98 334.52,261.98 324.57,264.68 312.69,265.61 
			308.59,259.98 301.97,259.98 294.38,265.5 282.65,267.98 280.17,273.22 272.72,277.63 278.52,294.46 309.97,292.53 317.69,299.7 
			332.59,299.43 340.31,304.39 346.66,290.6 		"/>
		<path class="st1" d="M287.14,364.74h15.03c3.17,0,6.17-1.2,8.46-3.39l31.6-30.16c1.26-1.2,2.65-2.27,4.12-3.18l-6.04-23.62
			l-7.72-4.97l-14.9,0.28l-7.72-7.17l-31.45,1.93l-5.24,15.45l-21.8,22.6l30.58,30.15C283.42,364,285.22,364.74,287.14,364.74z"/>
		<path class="st1" d="M278.52,294.46l-5.79-16.83l-6.07,5.24l-27.03-3.03l-16.28-15.45l-7.45-5.93l-13.24-14.21L185,231.56
			l-3.31-6.34l-4.14-0.28l-5.05-8.92c-0.51,0.14-0.95,0.35-1.21,0.66c-2.16,2.61-3.66,5.78-5.87,8.34c-2.91,3.36-6.2,8.92-9.41,8.98
			c-7.69,0.15-13.72,2.48-19.39,7.14c-0.82,0.68-2.34,1.28-3.38,1.22c-0.16,0.45-0.33,0.9-0.51,1.34l7.51,4.33l8.91,10.28l4.42,8.05
			c0.32,0.58,0.73,1.09,1.22,1.53l32.66,29.37c0.32,0.29,0.68,0.54,1.06,0.74l20.87,11.12l25.43,10.61
			c4.27,1.78,8.12,4.34,11.41,7.59l5.27,5.2l21.8-22.6L278.52,294.46z"/>
		<path class="st1" d="M400.01,71.19l-1.5,10.37l6.21,16.97l-2.07,29.59L399,140.93l-0.49,8.7h-9.93l8.9,12.96l12.41,18.08
			l15.31,3.52l19.66-9.72l20.48-0.41l10.2-4.57c-1.38-1.91-2.27-4.13-1.92-5.7c0.32-1.43,1.63-3.2,2.94-3.76
			c8.94-3.78,11.28-9.53,7.4-18.42c-0.88-2.01-1.2-4.31-1.53-6.51c-1.64-10.82-1.61-10.83-12.42-13.42
			c-1.34-0.32-2.74-0.67-4.1-0.62c-5,0.19-6.95-2.83-6.97-7.1c-0.02-5.08,0.79-10.17,0.84-15.25c0.03-3.13,1.21-5,3.81-6.61
			c1.6-0.99,3.82-2.89,3.77-4.31c-0.21-6.21,0.89-12.82-4.95-17.74c-4.18-3.53-5.28-7.89-0.75-12.38c1.21-1.19,2.08-2.79,2.87-4.32
			c2.91-5.67,0.25-10.87-5.63-12.56c-4.04-1.16-7.94-3.11-11.57-5.28c-3.4-2.03-6.41-4.74-9.48-7.28
			c-3.66-3.02-7.85-2.36-11.23-0.51c-6.12,3.35-11.58,7.91-17.67,11.33c-1.16,0.65-2.67,0.87-4.22,0.86v17.04L400.01,71.19z"/>
		<path class="st1" d="M321.87,148.23l21.47,16.71l5.1,20l4.14,2.48l27.04-0.69l6.07-4.31l11.79-19.84l-8.9-12.96l-25.66-31.66
			l-8.28-0.83l-13.86-14.28l-0.18-4.35l1.63-4.54l0.21-15.72l1.66-8.9l-4.44-17.76c-3.8,1.35-7.61,2.69-11.24,4.4
			c-1.98,0.94-4.36,3.3-4.61,5.27c-1.47,11.18-6.66,20.61-12.5,29.92c-1.63,2.6-2.47,6.09-2.53,9.19
			c-0.19,10.05,0.19,20.12,0.28,30.17c0.02,2.12-0.98,4.89-2.36,7.21l5.6,7.31L321.87,148.23z"/>
		<path class="st1" d="M342.45,78.25l-0.21,15.72l-1.63,4.54l0.18,4.35l13.86,14.28l8.28,0.83l25.66,31.66h9.93l0.49-8.7l3.65-12.82
			l2.07-29.59l-6.21-16.97l1.5-10.37l4.71-14.25V39.9c-1.25-0.01-2.52-0.15-3.65-0.36c-3.96-0.71-7.73-2.42-11.68-3.24
			c-3.01-0.63-6.17-0.54-9.21-0.77c-0.34-1.31-0.59-2.31-0.87-3.3c-1.78-6.45-3.08-7.39-9.83-7.2c-3.46,0.1-6.93,0.08-10.39,0.23
			c-8.44,0.37-12.41,3.51-13.95,11.65c-0.8,4.23-0.83,8.61-1.23,13.15c-1.41,0.52-2.83,1.03-4.24,1.53l4.44,17.76L342.45,78.25z"/>
		<path class="st1" d="M417.76,305.63l5.59-23.17l-28.69-9.79l-4.41-10.69l-16.83-2l-3.03,5.79l-5.52,0.83l-6.07-4.62l0.28,14
			l-5.15,7.79l-7.27,6.83l-6.35,13.79l6.04,23.62c3.13-1.93,6.66-3.18,10.3-3.58c6.54-0.73,16.6-1,27.36,1.89
			c5.04,1.35,14.43,6.38,21.28,10.27l2.95-16.47L417.76,305.63z"/>
		<path class="st1" d="M268.31,161.77l-2.21,11.59v23.45v10.21l6.9,2.76l3.59,14.07l-7.72,24.83l1.56,7.35l12.23,11.96l11.72-2.48
			l7.59-5.52h6.62l4.1,5.63l11.88-0.94l9.95-2.7h24.28l0.28-12.48l-16.83-1.59l-3.72-4.76l-10.35-21.72l-9.52-3.72l-7.03-0.41
			l-9.1-3.31l0.41-8.28l7.03-2.48l3.1-7.48l-1.24-8.31l-5.79-14.62l-5.59-22.14l-6.45-7.32c-2.52,0.29-4.94,0.55-7.13,0.81
			l-9.19,5.47L268.31,161.77z"/>
		<path class="st1" d="M306.03,172.8l5.79,14.62l1.24,8.31l-3.1,7.48l-7.03,2.48l-0.41,8.28l9.1,3.31l7.03,0.41l9.52,3.72
			l10.35,21.72l3.72,4.76l16.83,1.59l5.24-6.07l0.83-8l19.59-10.76l3.86-8.97l6.62-7.58l9.52-4.14l19.45-4.07l1.03-15.72
			l-15.31-3.52l-12.41-18.08l-11.79,19.84l-6.07,4.31l-27.04,0.69l-4.14-2.48l-5.1-20l-21.47-16.71l-9.56-3.15l-5.6-7.31
			c-1.41,2.38-3.22,4.28-4.75,4.52c-2.68,0.42-5.38,0.76-7.96,1.06l6.45,7.32L306.03,172.8z"/>
		<path class="st1" d="M455.62,257.63l-8.28,4.34H431l-7.66,20.48l-5.59,23.17l-9.52,14.48l-2.95,16.47
			c3.25,1.85,5.93,3.44,7.29,4.26l11.94,1.95l17.88-0.9c2.49-0.12,4.83-1.29,6.43-3.21l13.75-16.46l7.76-14.56
			c0.38-0.71,0.67-1.47,0.87-2.25l3.87-15.28c0.55-2.16,1.49-4.2,2.74-6.03c-3.14,1.54-7.31,1.77-10.52,0.97
			c-0.76-3.37-1.75-6.69-2.19-10.08c-0.26-2.02-0.36-4.67,0.7-6.15c2.16-3.02,3.12-6.16,3.38-9.44l-4.47-1.79H455.62z"/>
		<path class="st1" d="M181.69,225.22l3.31,6.34l17.66,12.69l0.83-9.66l7.86-8.14l20.14-0.28l4.14-4.97l0.28-4.41l13.66-5.24
			l1.1-5.66l3.59-6l7.17-4.17l4.69,1.07v-23.45l2.21-11.59l9.38-12.14l9.19-5.47c-0.1,0.01-0.21,0.02-0.3,0.04
			c0.15-6.58,0.58-13.21,0.31-19.81c-0.09-2.25-1.39-5.01-3.06-6.54c-6.89-6.34-14.11-12.31-21.24-18.38
			c-4.93-4.19-5.61-4.16-8.67,1.8c-3.24,6.32-7.57,10.02-15.2,8.75c-1.73-0.29-4.73,0.46-5.43,1.7c-2.35,4.2-5.73,4.27-9.71,3.85
			c-3.27-0.35-6.59-0.25-9.87-0.47c-2.92-0.19-4.62,0.83-4.85,3.97c-0.68,9.34-1.19,18.7-2.26,28c-0.74,6.43,1.21,13.62-4.68,18.9
			c-0.69,0.61-0.57,2.29-0.57,3.48c0.01,10.41,0.06,20.81,0.14,31.22c0.11,13.71-9.8,20.96-22.53,16.47
			c-1.31-0.46-2.6-1.2-3.93-1.31c-0.76-0.06-1.73-0.02-2.52,0.2l5.05,8.92L181.69,225.22z"/>
		<path class="st1" d="M444.86,174.46l-19.66,9.72l-1.03,15.72l6.83,62.07h16.35l8.28-4.34h9.1l4.47,1.79
			c0.17-2.23,0.02-4.51-0.3-6.87c-0.16-1.11,0.38-2.52,1.03-3.51c5.57-8.49,15.46-14.69,14.06-26.85c-0.05-0.43,0.58-0.91,0.6-1.39
			c0.19-3.43,0.25-6.86,0.48-10.29c0.18-2.73-0.45-6.3,1-8.04c6.68-7.99,7.38-12.91,1.86-21.43c-0.37-0.57-0.92-1.18-0.95-1.8
			c-0.23-4.19-2.98-5.4-6.54-5.98c-1.61-0.26-3.49-1.86-4.89-3.79l-10.2,4.57L444.86,174.46z"/>
	</g>
</g>
<g>
	<path class="st2" d="M68.36,266.4c-0.11-0.12-0.21-0.24-0.3-0.37c-0.11-0.11-0.21-0.22-0.32-0.34c0.59-0.13,1.17-0.34,1.73-0.63
		c0.55-0.26,1.06-0.59,1.52-0.98c0.45-0.37,0.83-0.79,1.14-1.26c0.3-0.46,0.5-0.95,0.58-1.46h-4.56v-0.84h5.67
		c0,0.72-0.16,1.41-0.45,2.04c-0.3,0.64-0.7,1.22-1.2,1.72c-0.51,0.53-1.09,0.96-1.75,1.31C69.77,265.95,69.08,266.22,68.36,266.4z
		 M76.96,269.67c0,0.42-0.09,0.79-0.26,1.13c-0.18,0.34-0.42,0.63-0.71,0.88c-0.32,0.24-0.67,0.42-1.06,0.56
		c-0.42,0.13-0.85,0.2-1.31,0.2c-0.47,0-0.91-0.07-1.3-0.2c-0.41-0.13-0.76-0.33-1.05-0.56c-0.32-0.25-0.55-0.54-0.71-0.88
		c-0.18-0.34-0.26-0.71-0.26-1.13c0-0.42,0.08-0.81,0.26-1.17c0.17-0.34,0.41-0.63,0.72-0.88c0.29-0.24,0.64-0.42,1.05-0.55
		c0.39-0.12,0.83-0.18,1.29-0.18c0.45,0,0.88,0.07,1.3,0.2c0.39,0.13,0.75,0.32,1.06,0.55c0.3,0.25,0.54,0.54,0.72,0.88
		C76.87,268.85,76.96,269.25,76.96,269.67z M76,269.67c0-0.29-0.07-0.56-0.18-0.8c-0.13-0.24-0.3-0.43-0.51-0.62
		c-0.22-0.16-0.47-0.29-0.76-0.39c-0.29-0.08-0.6-0.13-0.93-0.13c-0.34,0-0.64,0.05-0.92,0.14c-0.29,0.11-0.55,0.24-0.76,0.39
		c-0.22,0.18-0.39,0.38-0.51,0.62c-0.13,0.24-0.18,0.5-0.18,0.79c0,0.29,0.07,0.55,0.2,0.79c0.12,0.24,0.29,0.43,0.51,0.62
		c0.21,0.16,0.46,0.29,0.75,0.39c0.29,0.08,0.59,0.13,0.92,0.13c0.32,0,0.63-0.05,0.92-0.13c0.29-0.11,0.54-0.24,0.76-0.39
		c0.21-0.17,0.39-0.37,0.53-0.62C75.93,270.22,76,269.95,76,269.67z M77,263.65v2.88h-0.95v-6.57H77v2.85h2.04v0.84H77z"/>
	<path class="st2" d="M86.75,268.75c-0.66-0.45-1.26-1-1.79-1.65c-0.54-0.64-0.95-1.35-1.21-2.13c-0.13,0.39-0.29,0.76-0.49,1.13
		c-0.21,0.37-0.43,0.72-0.7,1.05c-0.26,0.34-0.55,0.66-0.85,0.95c-0.32,0.29-0.63,0.55-0.95,0.79c-0.11-0.11-0.21-0.21-0.32-0.32
		c-0.12-0.11-0.24-0.21-0.34-0.32c0.49-0.34,0.93-0.74,1.33-1.18c0.38-0.42,0.71-0.88,0.98-1.38c0.26-0.47,0.47-0.97,0.63-1.5
		c0.13-0.51,0.21-1.02,0.21-1.55v-1.8h0.98v1.8c0,0.54,0.08,1.06,0.24,1.58c0.14,0.53,0.35,1.02,0.64,1.5c0.26,0.47,0.6,0.92,1,1.31
		c0.38,0.42,0.81,0.77,1.29,1.09L86.75,268.75z M86.18,263.73h2.81v-3.77h0.95v12.34h-0.95v-7.73h-2.81V263.73z"/>
	<path class="st2" d="M97.46,272.31v-4.46h-5.23V267h11.48v0.84h-5.27v4.46H97.46z M101.88,260.51c0,2.08-0.14,3.8-0.43,5.16
		l-0.91-0.11c0.26-1.37,0.39-2.77,0.39-4.22h-6.84v-0.84H101.88z"/>
</g>
<g>
	<path class="st2" d="M117.68,336.61c0,0.42-0.08,0.81-0.22,1.16c-0.16,0.35-0.37,0.66-0.63,0.89c-0.28,0.26-0.59,0.46-0.95,0.59
		c-0.37,0.14-0.76,0.21-1.18,0.21c-0.42,0-0.81-0.07-1.18-0.21c-0.37-0.13-0.68-0.32-0.95-0.56c-0.28-0.24-0.49-0.54-0.63-0.89
		c-0.16-0.34-0.24-0.74-0.24-1.18c0-0.42,0.08-0.81,0.24-1.17c0.14-0.34,0.35-0.63,0.63-0.89c0.26-0.24,0.58-0.43,0.95-0.58
		c0.37-0.13,0.76-0.2,1.18-0.2c0.42,0,0.81,0.08,1.18,0.21c0.35,0.14,0.67,0.34,0.95,0.58c0.26,0.26,0.47,0.55,0.63,0.89
		C117.6,335.81,117.68,336.19,117.68,336.61z M116.74,336.61c0-0.29-0.05-0.56-0.16-0.81c-0.11-0.24-0.25-0.45-0.43-0.63
		c-0.18-0.17-0.41-0.3-0.64-0.41c-0.25-0.09-0.51-0.14-0.79-0.14c-0.29,0-0.56,0.05-0.8,0.14c-0.26,0.11-0.47,0.24-0.66,0.39
		c-0.18,0.18-0.33,0.39-0.43,0.63c-0.12,0.26-0.17,0.54-0.17,0.83c0,0.32,0.05,0.59,0.16,0.83c0.11,0.25,0.25,0.46,0.43,0.63
		c0.18,0.18,0.39,0.32,0.66,0.41c0.25,0.11,0.53,0.14,0.81,0.14c0.29,0,0.55-0.04,0.8-0.14c0.24-0.09,0.46-0.24,0.64-0.42
		c0.17-0.17,0.32-0.38,0.42-0.63C116.69,337.19,116.74,336.91,116.74,336.61z M120.73,343.1c0,0.42-0.09,0.79-0.26,1.13
		c-0.18,0.34-0.42,0.63-0.71,0.88c-0.32,0.24-0.67,0.42-1.06,0.56c-0.42,0.13-0.85,0.2-1.31,0.2c-0.47,0-0.91-0.07-1.3-0.2
		c-0.41-0.13-0.76-0.33-1.05-0.56c-0.32-0.25-0.55-0.54-0.71-0.88c-0.18-0.34-0.26-0.71-0.26-1.13c0-0.42,0.08-0.81,0.26-1.17
		c0.17-0.34,0.41-0.63,0.72-0.88c0.29-0.24,0.64-0.42,1.05-0.55c0.39-0.12,0.83-0.18,1.29-0.18c0.45,0,0.88,0.07,1.3,0.2
		c0.39,0.13,0.75,0.32,1.06,0.55c0.3,0.25,0.54,0.54,0.72,0.88C120.64,342.29,120.73,342.68,120.73,343.1z M119.77,343.1
		c0-0.29-0.07-0.56-0.18-0.8c-0.13-0.24-0.3-0.43-0.51-0.62c-0.22-0.16-0.47-0.29-0.76-0.39c-0.29-0.08-0.6-0.13-0.93-0.13
		c-0.34,0-0.64,0.05-0.92,0.14c-0.29,0.11-0.55,0.24-0.76,0.39c-0.22,0.18-0.39,0.38-0.51,0.62c-0.13,0.24-0.18,0.5-0.18,0.79
		c0,0.29,0.07,0.55,0.2,0.79c0.12,0.24,0.29,0.43,0.51,0.62c0.21,0.16,0.46,0.29,0.75,0.39c0.29,0.08,0.59,0.13,0.92,0.13
		c0.32,0,0.63-0.05,0.92-0.13c0.29-0.11,0.54-0.24,0.76-0.39c0.21-0.17,0.39-0.37,0.53-0.62
		C119.71,343.65,119.77,343.39,119.77,343.1z M120.77,338.07v2.07h-0.95v-6.75h0.95v1.54h2.04v0.8h-2.04v1.55h2.04v0.79H120.77z"/>
	<path class="st2" d="M124,339.63c0.92-0.45,1.65-1.04,2.19-1.76c0.53-0.71,0.83-1.47,0.93-2.3h-2.59v-0.84h2.65v-1.38h0.95v1.38
		h2.64v0.84h-2.61c0,0.39,0.08,0.76,0.24,1.12c0.16,0.37,0.37,0.72,0.66,1.04c0.26,0.33,0.59,0.63,0.98,0.91
		c0.38,0.29,0.8,0.53,1.26,0.74c-0.12,0.11-0.22,0.21-0.33,0.32c-0.12,0.12-0.24,0.22-0.34,0.33c-0.66-0.29-1.26-0.68-1.79-1.18
		c-0.55-0.49-0.95-1.01-1.2-1.59c-0.13,0.33-0.29,0.63-0.49,0.92c-0.21,0.3-0.45,0.58-0.7,0.83c-0.26,0.26-0.55,0.5-0.85,0.71
		c-0.32,0.22-0.63,0.42-0.95,0.58c-0.12-0.11-0.22-0.21-0.33-0.33C124.22,339.84,124.1,339.74,124,339.63z M134.07,345.41h-7.51
		v-4.08h0.96v3.24h6.55V345.41z M130.42,336.59h2.47v-3.19h0.95v8.01h-0.95v-3.98h-2.47V336.59z"/>
	<path class="st2" d="M141.23,345.74v-4.46H136v-0.84h11.48v0.84h-5.27v4.46H141.23z M145.65,333.95c0,2.08-0.14,3.8-0.43,5.16
		l-0.91-0.11c0.26-1.37,0.39-2.77,0.39-4.22h-6.84v-0.84H145.65z"/>
</g>
<g>
	<path class="st2" d="M108.2,394.48v-4.46h-5.23v-0.84h11.48v0.84h-5.27v4.46H108.2z M112.62,382.69c0,2.08-0.14,3.8-0.43,5.16
		l-0.91-0.11c0.26-1.37,0.39-2.77,0.39-4.22h-6.84v-0.84H112.62z"/>
	<path class="st2" d="M125.06,386.78h-6.8v2.11h7.03v0.79h-3.62v2.31h5.27v0.84h-11.48v-0.84h5.27v-2.31h-3.4v-3.7h6.8v-1.94h-6.8
		v-0.8h7.75V386.78z"/>
	<path class="st2" d="M133.15,394.48v-4.46h-5.23v-0.84h11.48v0.84h-5.27v4.46H133.15z M137.57,382.69c0,2.08-0.14,3.8-0.43,5.16
		l-0.91-0.11c0.26-1.37,0.39-2.77,0.39-4.22h-6.84v-0.84H137.57z"/>
</g>
<g>
	<path class="st2" d="M176.14,432.66v0.84h-11.69v-0.84H176.14z M174.21,427.81c0,0.76-0.03,1.47-0.08,2.13
		c-0.07,0.66-0.16,1.27-0.28,1.85l-0.89-0.12c0.09-0.55,0.17-1.08,0.22-1.59c0.05-0.5,0.08-0.97,0.08-1.43h-6.88v-0.84H174.21z
		 M166.42,439.34v-4.41h7.75v4.41H166.42z M173.22,435.76h-5.86v2.74h5.86V435.76z"/>
	<path class="st2" d="M177.5,433.5c0.92-0.45,1.65-1.04,2.19-1.76c0.53-0.71,0.83-1.47,0.93-2.3h-2.59v-0.84h2.65v-1.38h0.95v1.38
		h2.64v0.84h-2.61c0,0.39,0.08,0.76,0.24,1.12c0.16,0.37,0.37,0.72,0.66,1.04c0.26,0.33,0.59,0.63,0.98,0.91
		c0.38,0.29,0.8,0.53,1.26,0.74c-0.12,0.11-0.22,0.21-0.33,0.32c-0.12,0.12-0.24,0.22-0.34,0.33c-0.66-0.29-1.26-0.68-1.79-1.18
		c-0.55-0.49-0.95-1.01-1.2-1.59c-0.13,0.33-0.29,0.63-0.49,0.92c-0.21,0.3-0.45,0.58-0.7,0.83c-0.26,0.26-0.55,0.5-0.85,0.71
		c-0.32,0.22-0.63,0.42-0.95,0.58c-0.12-0.11-0.22-0.21-0.33-0.33C177.73,433.71,177.61,433.6,177.5,433.5z M187.57,439.28h-7.51
		v-4.08h0.96v3.24h6.55V439.28z M183.92,430.45h2.47v-3.19h0.95v8.01h-0.95v-3.98h-2.47V430.45z"/>
	<path class="st2" d="M194.73,439.6v-4.47h-5.23v-0.84h11.48v0.84h-5.27v4.47H194.73z M199.16,427.81c0,2.07-0.14,3.79-0.43,5.16
		l-0.91-0.11c0.26-1.37,0.39-2.77,0.39-4.22h-6.84v-0.84H199.16z"/>
</g>
<g>
	<path class="st2" d="M179.91,344.5c0,0.42-0.08,0.81-0.22,1.16c-0.16,0.35-0.37,0.66-0.63,0.89c-0.28,0.26-0.59,0.46-0.95,0.59
		c-0.37,0.14-0.76,0.21-1.18,0.21s-0.81-0.07-1.18-0.21c-0.37-0.13-0.68-0.32-0.95-0.56c-0.28-0.24-0.49-0.54-0.63-0.89
		c-0.16-0.34-0.24-0.74-0.24-1.18c0-0.42,0.08-0.81,0.24-1.17c0.14-0.34,0.35-0.63,0.63-0.89c0.26-0.24,0.58-0.43,0.95-0.58
		c0.37-0.13,0.76-0.2,1.18-0.2s0.81,0.08,1.18,0.21c0.35,0.14,0.67,0.34,0.95,0.58c0.26,0.26,0.47,0.55,0.63,0.89
		C179.84,343.7,179.91,344.08,179.91,344.5z M178.97,344.5c0-0.29-0.05-0.56-0.16-0.81c-0.11-0.24-0.25-0.45-0.43-0.63
		c-0.18-0.17-0.41-0.3-0.64-0.41c-0.25-0.09-0.51-0.14-0.79-0.14c-0.29,0-0.56,0.05-0.8,0.14c-0.26,0.11-0.47,0.24-0.66,0.39
		c-0.18,0.18-0.33,0.39-0.43,0.63c-0.12,0.26-0.17,0.54-0.17,0.83c0,0.32,0.05,0.59,0.16,0.83c0.11,0.25,0.25,0.46,0.43,0.63
		c0.18,0.18,0.39,0.32,0.66,0.41c0.25,0.11,0.53,0.14,0.81,0.14c0.29,0,0.55-0.04,0.8-0.14c0.24-0.09,0.46-0.24,0.64-0.42
		c0.17-0.17,0.32-0.38,0.42-0.63C178.92,345.08,178.97,344.8,178.97,344.5z M183.13,350.99c0,0.42-0.09,0.79-0.25,1.12
		c-0.18,0.34-0.42,0.63-0.71,0.88c-0.3,0.24-0.66,0.43-1.06,0.58c-0.42,0.13-0.85,0.2-1.33,0.2c-0.47,0-0.91-0.07-1.3-0.2
		c-0.41-0.14-0.76-0.33-1.05-0.56c-0.3-0.25-0.54-0.54-0.7-0.88c-0.18-0.34-0.26-0.71-0.26-1.13c0-0.42,0.08-0.81,0.26-1.16
		c0.17-0.34,0.41-0.63,0.72-0.88c0.29-0.24,0.64-0.42,1.05-0.55c0.39-0.13,0.81-0.2,1.27-0.2c0.47,0,0.91,0.07,1.33,0.2
		c0.39,0.13,0.75,0.33,1.06,0.56c0.29,0.25,0.53,0.54,0.71,0.88C183.04,350.19,183.13,350.57,183.13,350.99z M182.19,350.99
		c0-0.29-0.07-0.55-0.18-0.79c-0.13-0.24-0.3-0.43-0.51-0.62c-0.22-0.16-0.47-0.29-0.76-0.39c-0.29-0.09-0.6-0.14-0.93-0.14
		c-0.34,0-0.64,0.05-0.92,0.13c-0.29,0.11-0.55,0.24-0.76,0.39c-0.22,0.18-0.39,0.38-0.51,0.62c-0.13,0.24-0.18,0.51-0.18,0.8
		c0,0.29,0.07,0.55,0.2,0.79c0.12,0.25,0.29,0.45,0.51,0.62c0.21,0.16,0.46,0.29,0.75,0.39c0.29,0.08,0.59,0.13,0.92,0.13
		c0.32,0,0.63-0.05,0.92-0.13c0.29-0.11,0.54-0.24,0.76-0.39c0.21-0.18,0.39-0.38,0.53-0.62
		C182.12,351.54,182.19,351.28,182.19,350.99z M180.15,346.08c0-0.13,0-0.28,0-0.41c-0.01-0.12-0.01-0.25-0.01-0.39h2.25v-1.75
		h-2.26c0-0.13,0-0.26,0-0.39c0-0.13-0.01-0.26-0.01-0.39h2.27v-1.46h0.95v6.66h-0.95v-1.86H180.15z"/>
	<path class="st2" d="M197.08,346.89v0.84h-11.69v-0.84H197.08z M195.26,345.71h-7.96v-4.01h7.73v0.84h-6.79v2.32h7.01V345.71z
		 M194.46,351.21c0,0.38-0.08,0.72-0.22,1.04c-0.16,0.32-0.38,0.58-0.66,0.81c-0.29,0.21-0.63,0.38-1.02,0.51
		c-0.41,0.12-0.85,0.18-1.34,0.18c-0.5,0-0.93-0.07-1.33-0.18c-0.39-0.13-0.74-0.3-1.01-0.51c-0.29-0.24-0.51-0.5-0.66-0.8
		c-0.16-0.32-0.24-0.66-0.24-1.05c0-0.37,0.08-0.71,0.24-1.02c0.14-0.32,0.35-0.59,0.64-0.83c0.28-0.22,0.62-0.41,1.02-0.54
		c0.39-0.12,0.83-0.18,1.33-0.18c0.5,0,0.95,0.07,1.35,0.18c0.39,0.13,0.74,0.3,1.02,0.51c0.28,0.24,0.49,0.5,0.64,0.81
		C194.39,350.48,194.46,350.83,194.46,351.21z M193.52,351.21c0-0.53-0.21-0.95-0.62-1.26c-0.42-0.32-0.98-0.47-1.67-0.47
		c-0.71,0-1.26,0.16-1.67,0.47c-0.42,0.32-0.63,0.74-0.63,1.26c0,0.26,0.05,0.49,0.17,0.68c0.11,0.21,0.25,0.39,0.46,0.55
		c0.2,0.14,0.45,0.26,0.74,0.35c0.28,0.08,0.59,0.12,0.93,0.12c0.34,0,0.64-0.04,0.93-0.12c0.28-0.09,0.51-0.21,0.72-0.35
		c0.2-0.16,0.35-0.33,0.47-0.54C193.47,351.7,193.52,351.48,193.52,351.21z"/>
	<path class="st2" d="M199.27,348.52v-0.84h1.96l-0.13-3.77h0.96l0.12,3.77h3.06l0.13-3.77h0.96l-0.13,3.77h1.96v0.84h-3.97v2.61
		h5.27v0.84h-11.48v-0.84h5.27v-2.61H199.27z M199.61,343.31v-0.84h8.19v0.84H199.61z"/>
	<path class="st2" d="M215.67,353.63v-4.46h-5.23v-0.84h11.48v0.84h-5.27v4.46H215.67z M220.1,341.84c0,2.08-0.14,3.8-0.43,5.16
		l-0.91-0.11c0.26-1.37,0.39-2.77,0.39-4.22h-6.84v-0.84H220.1z"/>
</g>
<g>
	<path class="st2" d="M248.4,375.73h-3.56v1.26h5.37v0.84h-11.69v-0.84h5.37v-1.26h-3.45v-4.06h7.73v0.84h-6.79v2.38h7.01V375.73z
		 M247.6,381.18c0,0.39-0.08,0.74-0.22,1.05c-0.16,0.32-0.38,0.58-0.66,0.81c-0.29,0.21-0.63,0.38-1.02,0.51
		c-0.41,0.11-0.85,0.17-1.34,0.17c-0.5,0-0.93-0.07-1.33-0.17c-0.39-0.13-0.74-0.3-1.01-0.51c-0.29-0.24-0.51-0.5-0.66-0.81
		c-0.16-0.32-0.24-0.66-0.24-1.05c0-0.37,0.07-0.72,0.22-1.04c0.14-0.32,0.35-0.58,0.64-0.81c0.28-0.22,0.62-0.41,1.02-0.54
		c0.39-0.12,0.84-0.18,1.34-0.18c0.49,0,0.93,0.07,1.34,0.18c0.39,0.13,0.74,0.3,1.02,0.51c0.28,0.24,0.5,0.5,0.66,0.81
		C247.52,380.43,247.6,380.79,247.6,381.18z M246.65,381.18c0-0.55-0.21-0.97-0.62-1.29c-0.42-0.29-0.98-0.45-1.67-0.45
		c-0.71,0-1.26,0.16-1.67,0.46c-0.42,0.32-0.63,0.74-0.63,1.27c0,0.26,0.05,0.5,0.17,0.71c0.11,0.21,0.26,0.38,0.47,0.54
		c0.2,0.14,0.43,0.26,0.72,0.34c0.28,0.08,0.59,0.12,0.93,0.12c0.34,0,0.64-0.04,0.93-0.12c0.28-0.08,0.51-0.2,0.72-0.34
		c0.2-0.16,0.35-0.33,0.47-0.54C246.6,381.68,246.65,381.44,246.65,381.18z"/>
	<path class="st2" d="M251.24,377.02c0.95-0.5,1.71-1.12,2.26-1.85c0.54-0.72,0.81-1.56,0.81-2.52h-2.55v-0.84h6.15v0.84h-2.56
		c0,0.46,0.08,0.89,0.24,1.29c0.14,0.42,0.35,0.79,0.63,1.13c0.26,0.35,0.59,0.67,0.98,0.95c0.37,0.29,0.79,0.54,1.25,0.75
		l-0.67,0.63c-0.66-0.29-1.25-0.68-1.76-1.16c-0.53-0.46-0.91-0.97-1.17-1.55c-0.28,0.63-0.67,1.21-1.18,1.71
		c-0.53,0.51-1.12,0.93-1.77,1.26c-0.12-0.11-0.22-0.21-0.33-0.32C251.45,377.23,251.34,377.12,251.24,377.02z M259.88,383.33v-3.62
		h-6.7v-0.84h7.64v4.46H259.88z M260.82,374.94v2.88h-0.95v-6.57h0.95v2.85h2.04v0.84H260.82z"/>
	<path class="st2" d="M268.81,383.6v-4.46h-5.23v-0.84h11.48v0.84h-5.27v4.46H268.81z M273.23,371.8c0,2.08-0.14,3.8-0.43,5.16
		l-0.91-0.11c0.26-1.37,0.39-2.77,0.39-4.22h-6.84v-0.84H273.23z"/>
</g>
<g>
	<path class="st2" d="M234.5,441.73v-0.81h2.64v-2.65h0.91v2.65c1.43,0,2.82-0.13,4.19-0.42l0.09,0.8
		c-1.34,0.29-2.94,0.43-4.81,0.43H234.5z M241.23,435.5c0,1.58-0.13,2.95-0.39,4.11l-0.89-0.11c0.24-1.16,0.35-2.22,0.35-3.19h-5.04
		v-0.81H241.23z M244.16,446.9h-7.85v-3.68h0.95v2.84h6.91V446.9z M244,439.18v4.24h-0.95v-8.54H244v3.45h2.04v0.84H244z"/>
	<path class="st2" d="M253.39,438.1c0,0.42-0.08,0.81-0.22,1.16c-0.16,0.35-0.37,0.66-0.63,0.89c-0.28,0.26-0.59,0.46-0.95,0.59
		c-0.37,0.14-0.76,0.21-1.18,0.21c-0.42,0-0.81-0.07-1.18-0.21c-0.37-0.13-0.68-0.32-0.95-0.56c-0.28-0.24-0.49-0.54-0.63-0.89
		c-0.16-0.34-0.24-0.74-0.24-1.18c0-0.42,0.08-0.81,0.24-1.17c0.14-0.34,0.35-0.63,0.63-0.89c0.26-0.24,0.58-0.43,0.95-0.58
		c0.37-0.13,0.76-0.2,1.18-0.2c0.42,0,0.81,0.08,1.18,0.21c0.35,0.14,0.67,0.34,0.95,0.58c0.26,0.26,0.47,0.55,0.63,0.89
		C253.31,437.3,253.39,437.68,253.39,438.1z M252.44,438.1c0-0.29-0.05-0.56-0.16-0.81c-0.11-0.24-0.25-0.45-0.43-0.63
		c-0.18-0.17-0.41-0.3-0.64-0.41c-0.25-0.09-0.51-0.14-0.79-0.14c-0.29,0-0.56,0.05-0.8,0.14c-0.26,0.11-0.47,0.24-0.66,0.39
		c-0.18,0.18-0.33,0.39-0.43,0.63c-0.12,0.26-0.17,0.54-0.17,0.83c0,0.32,0.05,0.59,0.16,0.83c0.11,0.25,0.25,0.46,0.43,0.63
		c0.18,0.18,0.39,0.32,0.66,0.41c0.25,0.11,0.53,0.14,0.81,0.14c0.29,0,0.55-0.04,0.8-0.14c0.24-0.09,0.46-0.24,0.64-0.42
		c0.17-0.17,0.32-0.38,0.42-0.63C252.39,438.68,252.44,438.41,252.44,438.1z M255.53,446.97v-3.53h-6.57v-0.84h7.51v4.37H255.53z
		 M256.47,438.58v2.88h-0.95v-6.57h0.95v2.85h2.04v0.84H256.47z"/>
	<path class="st2" d="M264.46,447.23v-4.47h-5.23v-0.84h11.48v0.84h-5.27v4.47H264.46z M268.88,435.44c0,2.08-0.14,3.8-0.43,5.16
		l-0.91-0.11c0.26-1.37,0.39-2.77,0.39-4.22h-6.84v-0.84H268.88z"/>
</g>
<g>
	<path class="st2" d="M327.45,422.84c-0.66-0.45-1.26-1-1.79-1.65c-0.54-0.64-0.95-1.35-1.21-2.13c-0.13,0.39-0.29,0.76-0.49,1.13
		c-0.21,0.37-0.43,0.72-0.7,1.05c-0.26,0.34-0.55,0.66-0.85,0.95c-0.32,0.29-0.63,0.55-0.95,0.79c-0.11-0.11-0.21-0.21-0.32-0.32
		c-0.12-0.11-0.24-0.21-0.34-0.32c0.49-0.34,0.93-0.74,1.33-1.18c0.38-0.42,0.71-0.88,0.98-1.38c0.26-0.47,0.47-0.97,0.63-1.5
		c0.13-0.51,0.21-1.02,0.21-1.55v-1.8h0.98v1.8c0,0.54,0.08,1.06,0.24,1.58c0.14,0.53,0.35,1.02,0.64,1.5c0.26,0.47,0.6,0.92,1,1.31
		c0.38,0.42,0.81,0.77,1.29,1.09L327.45,422.84z M326.87,417.82h2.81v-3.77h0.95v12.34h-0.95v-7.73h-2.81V417.82z"/>
	<path class="st2" d="M339.14,421.01v2.89h5.27v0.83h-11.48v-0.83h5.27v-2.89H339.14z M343.33,420.48
		c-0.11,0.12-0.21,0.24-0.32,0.34c-0.11,0.12-0.21,0.24-0.3,0.34c-0.47-0.13-0.92-0.32-1.34-0.54c-0.42-0.21-0.81-0.46-1.16-0.74
		c-0.35-0.26-0.66-0.56-0.92-0.88c-0.28-0.3-0.49-0.62-0.64-0.96c-0.16,0.34-0.37,0.67-0.63,0.98c-0.28,0.32-0.59,0.6-0.93,0.87
		c-0.35,0.28-0.74,0.51-1.16,0.72c-0.42,0.22-0.87,0.41-1.31,0.54l-0.63-0.68c0.45-0.13,0.91-0.32,1.37-0.55
		c0.45-0.22,0.85-0.5,1.23-0.83c0.37-0.32,0.68-0.7,0.96-1.13c0.26-0.42,0.43-0.92,0.51-1.47h-3.49v-0.84h3.61v-1.62h0.95v1.62h3.62
		v0.84h-3.51c0,0.45,0.11,0.88,0.34,1.29c0.21,0.42,0.51,0.79,0.89,1.13c0.37,0.34,0.8,0.64,1.3,0.91
		C342.26,420.1,342.78,420.33,343.33,420.48z"/>
	<path class="st2" d="M350.63,426.39v-4.46h-5.23v-0.84h11.48v0.84h-5.27v4.46H350.63z M355.05,414.6c0,2.08-0.14,3.8-0.43,5.16
		l-0.91-0.11c0.26-1.37,0.39-2.77,0.39-4.22h-6.84v-0.84H355.05z"/>
</g>
<g>
	<path class="st2" d="M383.43,395.57c-0.11-0.12-0.21-0.24-0.3-0.37c-0.11-0.11-0.21-0.22-0.32-0.34c0.59-0.13,1.17-0.34,1.73-0.63
		c0.55-0.26,1.06-0.59,1.52-0.98c0.45-0.37,0.83-0.79,1.14-1.26c0.3-0.46,0.5-0.95,0.58-1.46h-4.56v-0.84h5.67
		c0,0.72-0.16,1.41-0.45,2.04c-0.3,0.64-0.7,1.22-1.2,1.72c-0.51,0.53-1.09,0.96-1.75,1.31
		C384.85,395.12,384.15,395.4,383.43,395.57z M392.03,398.84c0,0.42-0.09,0.79-0.26,1.13c-0.18,0.34-0.42,0.63-0.71,0.88
		c-0.32,0.24-0.67,0.42-1.06,0.56c-0.42,0.13-0.85,0.2-1.31,0.2c-0.47,0-0.91-0.07-1.3-0.2c-0.41-0.13-0.76-0.33-1.05-0.56
		c-0.32-0.25-0.55-0.54-0.71-0.88c-0.18-0.34-0.26-0.71-0.26-1.13c0-0.42,0.08-0.81,0.26-1.17c0.17-0.34,0.41-0.63,0.72-0.88
		c0.29-0.24,0.64-0.42,1.05-0.55c0.39-0.12,0.83-0.18,1.29-0.18c0.45,0,0.88,0.07,1.3,0.2c0.39,0.13,0.75,0.32,1.06,0.55
		c0.3,0.25,0.54,0.54,0.72,0.88C391.94,398.02,392.03,398.42,392.03,398.84z M391.07,398.84c0-0.29-0.07-0.56-0.18-0.8
		c-0.13-0.24-0.3-0.43-0.51-0.62c-0.22-0.16-0.47-0.29-0.76-0.39c-0.29-0.08-0.6-0.13-0.93-0.13c-0.34,0-0.64,0.05-0.92,0.14
		c-0.29,0.11-0.55,0.24-0.76,0.39c-0.22,0.18-0.39,0.38-0.51,0.62c-0.13,0.24-0.18,0.5-0.18,0.79c0,0.29,0.07,0.55,0.2,0.79
		c0.12,0.24,0.29,0.43,0.51,0.62c0.21,0.16,0.46,0.29,0.75,0.39c0.29,0.08,0.59,0.13,0.92,0.13c0.32,0,0.63-0.05,0.92-0.13
		c0.29-0.11,0.54-0.24,0.76-0.39c0.21-0.17,0.39-0.37,0.53-0.62C391.01,399.39,391.07,399.13,391.07,398.84z M392.07,392.82v2.88
		h-0.95v-6.57h0.95v2.85h2.04v0.84H392.07z"/>
	<path class="st2" d="M396.81,394.03c0.97,0,1.93-0.03,2.86-0.11c0.92-0.07,1.83-0.17,2.72-0.32l0.11,0.83
		c-1.79,0.29-4,0.43-6.63,0.43v-5.19h0.95V394.03z M397.05,401.21v-4.65h7.5v4.65H397.05z M403.6,397.41h-5.61v2.97h5.61V397.41z
		 M404.54,392.81v2.85h-0.95v-6.53h0.95v2.84h2.04v0.84H404.54z"/>
	<path class="st2" d="M412.53,401.48v-4.46h-5.23v-0.84h11.48v0.84h-5.27v4.46H412.53z M416.95,389.68c0,2.08-0.14,3.8-0.43,5.16
		l-0.91-0.11c0.26-1.37,0.39-2.77,0.39-4.22h-6.84v-0.84H416.95z"/>
</g>
<g>
	<path class="st2" d="M460.62,367.76v1.6h5.37v0.84H454.3v-0.84h5.37v-1.6H460.62z M464.93,367.35c-0.11,0.12-0.2,0.22-0.29,0.33
		c-0.11,0.12-0.2,0.22-0.29,0.33c-1.08-0.18-1.97-0.49-2.69-0.88c-0.74-0.38-1.23-0.84-1.51-1.39c-0.34,0.55-0.85,1.02-1.54,1.4
		c-0.71,0.39-1.6,0.68-2.68,0.87c-0.11-0.11-0.2-0.21-0.28-0.33c-0.11-0.11-0.2-0.21-0.29-0.33c0.66-0.11,1.26-0.25,1.8-0.46
		c0.53-0.2,0.97-0.43,1.34-0.71c0.37-0.26,0.64-0.55,0.85-0.87c0.18-0.3,0.29-0.62,0.29-0.95v-0.67h0.99v0.67
		c0,0.34,0.09,0.66,0.3,0.96c0.18,0.32,0.47,0.6,0.84,0.87c0.37,0.28,0.81,0.51,1.35,0.7C463.65,367.1,464.24,367.25,464.93,367.35z
		 M463.38,373.47c0,0.39-0.08,0.74-0.22,1.05c-0.16,0.32-0.38,0.58-0.66,0.81c-0.29,0.21-0.63,0.38-1.02,0.51
		c-0.41,0.11-0.85,0.17-1.34,0.17c-0.5,0-0.93-0.07-1.33-0.17c-0.39-0.13-0.74-0.3-1.01-0.51c-0.29-0.24-0.51-0.5-0.66-0.81
		c-0.16-0.32-0.24-0.66-0.24-1.05c0-0.37,0.07-0.72,0.22-1.04c0.14-0.32,0.35-0.58,0.64-0.81c0.28-0.22,0.62-0.41,1.02-0.54
		c0.39-0.12,0.84-0.18,1.34-0.18c0.49,0,0.93,0.07,1.34,0.18c0.39,0.13,0.74,0.3,1.02,0.51c0.28,0.24,0.5,0.5,0.66,0.81
		C463.3,372.72,463.38,373.08,463.38,373.47z M462.43,373.47c0-0.55-0.21-0.97-0.62-1.29c-0.42-0.29-0.98-0.45-1.67-0.45
		c-0.71,0-1.26,0.16-1.67,0.46c-0.42,0.32-0.63,0.74-0.63,1.27c0,0.26,0.05,0.5,0.17,0.71c0.11,0.21,0.26,0.38,0.47,0.54
		c0.2,0.14,0.43,0.26,0.72,0.34c0.28,0.08,0.59,0.12,0.93,0.12c0.34,0,0.64-0.04,0.93-0.12c0.28-0.08,0.51-0.2,0.72-0.34
		c0.2-0.16,0.35-0.33,0.47-0.54C462.38,373.97,462.43,373.73,462.43,373.47z"/>
	<path class="st2" d="M467.04,372.43v-0.84h1.43l-0.12-5.2h0.92l0.13,5.19c0.39,0,0.77,0,1.14-0.03c0.35,0,0.7-0.01,1.04-0.04
		l0.13-5.21h0.93l-0.13,5.12c0.3-0.03,0.6-0.07,0.92-0.12c0.3-0.03,0.62-0.08,0.95-0.13l0.11,0.83c-1.73,0.29-3.61,0.43-5.62,0.43
		H467.04z M467.24,365.53v-0.84h6.61v0.84H467.24z M476.47,369.12v6.76h-0.95v-12.34h0.95v4.74h2.17v0.84H476.47z"/>
	<path class="st2" d="M484.58,375.89v-4.46h-5.23v-0.84h11.48v0.84h-5.27v4.46H484.58z M489.01,364.09c0,2.08-0.14,3.8-0.43,5.16
		l-0.91-0.11c0.26-1.37,0.39-2.77,0.39-4.22h-6.84v-0.84H489.01z"/>
</g>
<g>
	<path class="st2" d="M505.32,298.93c-0.11-0.12-0.21-0.24-0.3-0.37c-0.11-0.11-0.21-0.22-0.32-0.34c0.59-0.13,1.17-0.34,1.73-0.63
		c0.55-0.26,1.06-0.59,1.52-0.98c0.45-0.37,0.83-0.79,1.14-1.26c0.3-0.46,0.5-0.95,0.58-1.46h-4.56v-0.84h5.67
		c0,0.72-0.16,1.41-0.45,2.04c-0.3,0.64-0.7,1.22-1.2,1.72c-0.51,0.53-1.09,0.96-1.75,1.31
		C506.74,298.49,506.04,298.76,505.32,298.93z M513.92,302.2c0,0.42-0.09,0.79-0.26,1.13c-0.18,0.34-0.42,0.63-0.71,0.88
		c-0.32,0.24-0.67,0.42-1.06,0.56c-0.42,0.13-0.85,0.2-1.31,0.2c-0.47,0-0.91-0.07-1.3-0.2c-0.41-0.13-0.76-0.33-1.05-0.56
		c-0.32-0.25-0.55-0.54-0.71-0.88c-0.18-0.34-0.26-0.71-0.26-1.13c0-0.42,0.08-0.81,0.26-1.17c0.17-0.34,0.41-0.63,0.72-0.88
		c0.29-0.24,0.64-0.42,1.05-0.55c0.39-0.12,0.83-0.18,1.29-0.18c0.45,0,0.88,0.07,1.3,0.2c0.39,0.13,0.75,0.32,1.06,0.55
		c0.3,0.25,0.54,0.54,0.72,0.88C513.83,301.39,513.92,301.78,513.92,302.2z M512.96,302.2c0-0.29-0.07-0.56-0.18-0.8
		c-0.13-0.24-0.3-0.43-0.51-0.62c-0.22-0.16-0.47-0.29-0.76-0.39c-0.29-0.08-0.6-0.13-0.93-0.13c-0.34,0-0.64,0.05-0.92,0.14
		c-0.29,0.11-0.55,0.24-0.76,0.39c-0.22,0.18-0.39,0.38-0.51,0.62c-0.13,0.24-0.18,0.5-0.18,0.79c0,0.29,0.07,0.55,0.2,0.79
		c0.12,0.24,0.29,0.43,0.51,0.62c0.21,0.16,0.46,0.29,0.75,0.39c0.29,0.08,0.59,0.13,0.92,0.13c0.32,0,0.63-0.05,0.92-0.13
		c0.29-0.11,0.54-0.24,0.76-0.39c0.21-0.17,0.39-0.37,0.53-0.62C512.89,302.75,512.96,302.49,512.96,302.2z M513.96,296.19v2.88
		h-0.95v-6.57h0.95v2.85h2.04v0.84H513.96z"/>
	<path class="st2" d="M526.49,296.98h-3.56v1.26h5.37v0.84h-11.69v-0.84h5.37v-1.26h-3.45v-4.06h7.73v0.84h-6.79v2.38h7.01V296.98z
		 M525.68,302.43c0,0.39-0.08,0.74-0.22,1.05c-0.16,0.32-0.38,0.58-0.66,0.81c-0.29,0.21-0.63,0.38-1.02,0.51
		c-0.41,0.11-0.85,0.17-1.34,0.17c-0.5,0-0.93-0.07-1.33-0.17c-0.39-0.13-0.74-0.3-1.01-0.51c-0.29-0.24-0.51-0.5-0.66-0.81
		c-0.16-0.32-0.24-0.66-0.24-1.05c0-0.37,0.07-0.72,0.22-1.04c0.14-0.32,0.35-0.58,0.64-0.81c0.28-0.22,0.62-0.41,1.02-0.54
		c0.39-0.12,0.84-0.18,1.34-0.18c0.49,0,0.93,0.07,1.34,0.18c0.39,0.13,0.74,0.3,1.02,0.51c0.28,0.24,0.5,0.5,0.66,0.81
		C525.61,301.68,525.68,302.03,525.68,302.43z M524.74,302.43c0-0.55-0.21-0.97-0.62-1.29c-0.42-0.29-0.98-0.45-1.67-0.45
		c-0.71,0-1.26,0.16-1.67,0.46c-0.42,0.32-0.63,0.74-0.63,1.27c0,0.26,0.05,0.5,0.17,0.71c0.11,0.21,0.26,0.38,0.47,0.54
		c0.2,0.14,0.43,0.26,0.72,0.34c0.28,0.08,0.59,0.12,0.93,0.12c0.34,0,0.64-0.04,0.93-0.12c0.28-0.08,0.51-0.2,0.72-0.34
		c0.2-0.16,0.35-0.33,0.47-0.54C524.69,302.92,524.74,302.69,524.74,302.43z"/>
	<path class="st2" d="M534.42,304.84v-4.46h-5.23v-0.84h11.48v0.84h-5.27v4.46H534.42z M538.84,293.05c0,2.08-0.14,3.8-0.43,5.16
		l-0.91-0.11c0.26-1.37,0.39-2.77,0.39-4.22h-6.84v-0.84H538.84z"/>
</g>
<g>
	<path class="st2" d="M429.38,293.48v-0.81h2.64v-2.44h0.91v2.44c1.43,0,2.82-0.13,4.18-0.42c0.01,0.13,0.03,0.26,0.05,0.39
		c0.01,0.14,0.03,0.28,0.05,0.41c-1.37,0.29-2.97,0.43-4.82,0.43H429.38z M436.1,287.58c0,1.55-0.13,2.86-0.39,3.94l-0.89-0.11
		c0.24-1.05,0.35-2.06,0.35-3.02h-5.06v-0.81H436.1z M438.7,296.83c0,0.37-0.08,0.72-0.24,1.04c-0.17,0.32-0.39,0.59-0.67,0.83
		c-0.29,0.24-0.62,0.42-0.98,0.55c-0.39,0.13-0.8,0.2-1.25,0.2c-0.43,0-0.84-0.07-1.21-0.2c-0.38-0.13-0.71-0.32-0.98-0.54
		c-0.29-0.24-0.5-0.51-0.66-0.83c-0.17-0.32-0.25-0.67-0.25-1.05c0-0.38,0.08-0.74,0.25-1.06c0.16-0.32,0.37-0.6,0.66-0.84
		c0.26-0.22,0.59-0.41,0.97-0.54c0.37-0.13,0.77-0.2,1.22-0.2c0.45,0,0.85,0.07,1.25,0.2c0.37,0.13,0.71,0.32,1,0.54
		c0.28,0.24,0.5,0.53,0.66,0.84C438.62,296.09,438.7,296.45,438.7,296.83z M437.74,296.83c0-0.26-0.07-0.51-0.17-0.74
		c-0.12-0.21-0.28-0.41-0.46-0.56c-0.21-0.16-0.43-0.28-0.7-0.37c-0.26-0.08-0.55-0.13-0.84-0.13c-0.3,0-0.58,0.04-0.83,0.12
		c-0.26,0.09-0.5,0.21-0.68,0.37c-0.21,0.16-0.37,0.35-0.47,0.56c-0.12,0.24-0.17,0.49-0.17,0.75s0.05,0.51,0.17,0.72
		c0.11,0.22,0.26,0.41,0.46,0.56c0.18,0.14,0.42,0.26,0.68,0.35c0.26,0.08,0.54,0.13,0.84,0.13c0.29,0,0.58-0.05,0.84-0.13
		c0.26-0.09,0.49-0.21,0.7-0.37c0.18-0.16,0.34-0.34,0.46-0.56C437.68,297.33,437.74,297.09,437.74,296.83z M438.87,290.92v3.1
		h-0.95v-7.05h0.95v3.11h2.04v0.84H438.87z"/>
	<path class="st2" d="M442.09,292.99c0.47-0.24,0.89-0.54,1.29-0.88c0.37-0.33,0.7-0.7,0.97-1.1c0.26-0.39,0.46-0.81,0.6-1.27
		c0.13-0.45,0.21-0.91,0.21-1.38h-2.55v-0.84h6.15v0.84h-2.56c0,0.46,0.08,0.91,0.24,1.33c0.14,0.45,0.35,0.85,0.63,1.22
		c0.26,0.39,0.59,0.74,0.98,1.04c0.37,0.32,0.79,0.58,1.25,0.79l-0.67,0.63c-0.33-0.14-0.64-0.33-0.93-0.56
		c-0.3-0.21-0.58-0.46-0.81-0.72c-0.26-0.26-0.49-0.54-0.68-0.83c-0.21-0.29-0.37-0.56-0.5-0.85c-0.13,0.32-0.3,0.63-0.5,0.93
		c-0.21,0.32-0.43,0.62-0.68,0.89c-0.26,0.29-0.54,0.55-0.83,0.79c-0.3,0.25-0.62,0.46-0.95,0.62c-0.12-0.11-0.22-0.21-0.33-0.32
		C442.3,293.2,442.19,293.1,442.09,292.99z M452.04,298.98h-7.81v-4.08h0.96v3.24h6.86V298.98z M451.87,294.98h-0.95v-8.01h0.95
		V294.98z"/>
	<path class="st2" d="M459.33,299.31v-4.46h-5.23V294h11.48v0.84h-5.27v4.46H459.33z M463.76,287.52c0,2.08-0.14,3.8-0.43,5.16
		l-0.91-0.11c0.26-1.37,0.39-2.77,0.39-4.22h-6.84v-0.84H463.76z"/>
</g>
<g>
	<path class="st2" d="M367.88,290.36c-0.12,0.11-0.22,0.21-0.33,0.32c-0.12,0.12-0.24,0.22-0.34,0.33c-0.66-0.3-1.26-0.7-1.79-1.17
		c-0.55-0.46-0.96-0.98-1.22-1.56c-0.13,0.32-0.3,0.6-0.5,0.89c-0.21,0.29-0.45,0.56-0.71,0.81c-0.26,0.26-0.55,0.5-0.85,0.71
		c-0.32,0.22-0.64,0.42-0.98,0.58c-0.11-0.11-0.21-0.21-0.32-0.33c-0.12-0.11-0.24-0.21-0.34-0.32c0.47-0.24,0.92-0.51,1.31-0.84
		c0.39-0.32,0.72-0.67,1.01-1.04c0.28-0.35,0.49-0.74,0.64-1.13c0.14-0.38,0.22-0.76,0.22-1.13v-1.18h0.98v1.18
		c0,0.37,0.08,0.74,0.24,1.1c0.14,0.37,0.35,0.72,0.64,1.06c0.28,0.34,0.62,0.66,1.01,0.95
		C366.96,289.9,367.39,290.15,367.88,290.36z M370.24,294.65c0,0.42-0.09,0.79-0.25,1.12c-0.18,0.34-0.42,0.63-0.71,0.88
		c-0.3,0.24-0.66,0.43-1.06,0.58c-0.42,0.13-0.85,0.2-1.33,0.2c-0.47,0-0.91-0.07-1.3-0.2c-0.41-0.14-0.76-0.33-1.05-0.56
		c-0.3-0.25-0.54-0.54-0.7-0.88c-0.18-0.34-0.26-0.71-0.26-1.13s0.08-0.81,0.26-1.16c0.17-0.34,0.41-0.63,0.72-0.88
		c0.29-0.24,0.64-0.42,1.05-0.55c0.39-0.13,0.81-0.2,1.27-0.2c0.47,0,0.91,0.07,1.33,0.2c0.39,0.13,0.75,0.33,1.06,0.56
		c0.29,0.25,0.53,0.54,0.71,0.88C370.15,293.85,370.24,294.23,370.24,294.65z M369.29,294.65c0-0.29-0.07-0.55-0.18-0.79
		c-0.13-0.24-0.3-0.43-0.51-0.62c-0.22-0.16-0.47-0.29-0.76-0.39c-0.29-0.09-0.6-0.14-0.93-0.14c-0.34,0-0.64,0.05-0.92,0.13
		c-0.29,0.11-0.55,0.24-0.76,0.39c-0.22,0.18-0.39,0.38-0.51,0.62c-0.13,0.24-0.18,0.51-0.18,0.8c0,0.29,0.07,0.55,0.2,0.79
		c0.12,0.25,0.29,0.45,0.51,0.62c0.21,0.16,0.46,0.29,0.75,0.39c0.29,0.08,0.59,0.13,0.92,0.13c0.32,0,0.63-0.05,0.92-0.13
		c0.29-0.11,0.54-0.24,0.76-0.39c0.21-0.18,0.39-0.38,0.53-0.62C369.23,295.2,369.29,294.94,369.29,294.65z M366.8,287.2h2.69v-2.26
		h0.95v6.66h-0.95v-3.56h-2.69V287.2z"/>
	<path class="st2" d="M382.37,289.42h-3.56v1.26h5.37v0.84H372.5v-0.84h5.37v-1.26h-3.45v-4.06h7.73v0.84h-6.79v2.38h7.01V289.42z
		 M381.57,294.87c0,0.39-0.08,0.74-0.22,1.05c-0.16,0.32-0.38,0.58-0.66,0.81c-0.29,0.21-0.63,0.38-1.02,0.51
		c-0.41,0.11-0.85,0.17-1.34,0.17c-0.5,0-0.93-0.07-1.33-0.17c-0.39-0.13-0.74-0.3-1.01-0.51c-0.29-0.24-0.51-0.5-0.66-0.81
		c-0.16-0.32-0.24-0.66-0.24-1.05c0-0.37,0.07-0.72,0.22-1.04c0.14-0.32,0.35-0.58,0.64-0.81c0.28-0.22,0.62-0.41,1.02-0.54
		c0.39-0.12,0.84-0.18,1.34-0.18c0.49,0,0.93,0.07,1.34,0.18c0.39,0.13,0.74,0.3,1.02,0.51c0.28,0.24,0.5,0.5,0.66,0.81
		C381.49,294.12,381.57,294.48,381.57,294.87z M380.63,294.87c0-0.55-0.21-0.97-0.62-1.29c-0.42-0.29-0.98-0.45-1.67-0.45
		c-0.71,0-1.26,0.16-1.67,0.46c-0.42,0.32-0.63,0.74-0.63,1.27c0,0.26,0.05,0.5,0.17,0.71c0.11,0.21,0.26,0.38,0.47,0.54
		c0.2,0.14,0.43,0.26,0.72,0.34c0.28,0.08,0.59,0.12,0.93,0.12c0.34,0,0.64-0.04,0.93-0.12c0.28-0.08,0.51-0.2,0.72-0.34
		c0.2-0.16,0.35-0.33,0.47-0.54C380.57,295.37,380.63,295.14,380.63,294.87z"/>
	<path class="st2" d="M390.3,297.29v-4.46h-5.23v-0.84h11.48v0.84h-5.27v4.46H390.3z M394.73,285.5c0,2.08-0.14,3.8-0.43,5.16
		l-0.91-0.11c0.26-1.37,0.39-2.77,0.39-4.22h-6.84v-0.84H394.73z"/>
</g>
<g>
	<path class="st2" d="M290.39,313.88c0,0.66-0.25,1.18-0.75,1.6v1.69h3.28v0.84h-11.69v-0.84h3.27v-1.69
		c-0.5-0.42-0.74-0.95-0.74-1.6c0-0.37,0.08-0.71,0.25-1.02c0.16-0.29,0.39-0.55,0.7-0.77c0.29-0.21,0.64-0.37,1.05-0.49
		c0.39-0.11,0.83-0.17,1.3-0.17c0.47,0,0.91,0.07,1.33,0.17c0.39,0.13,0.75,0.29,1.05,0.5c0.29,0.22,0.53,0.49,0.7,0.77
		C290.29,313.18,290.39,313.51,290.39,313.88z M290.37,321.27c0,0.37-0.08,0.71-0.22,1.01c-0.16,0.3-0.38,0.56-0.67,0.8
		c-0.29,0.21-0.64,0.38-1.04,0.51c-0.42,0.12-0.88,0.18-1.38,0.18c-0.53,0-0.98-0.07-1.38-0.18c-0.42-0.13-0.76-0.3-1.04-0.51
		c-0.29-0.24-0.51-0.5-0.66-0.8c-0.16-0.3-0.24-0.64-0.24-1.01c0-0.37,0.08-0.7,0.24-1.01c0.14-0.3,0.37-0.56,0.66-0.8
		c0.29-0.21,0.63-0.39,1.05-0.53c0.39-0.12,0.85-0.18,1.37-0.18c0.5,0,0.96,0.07,1.38,0.18c0.39,0.13,0.75,0.3,1.04,0.51
		c0.29,0.24,0.51,0.5,0.67,0.8C290.29,320.56,290.37,320.9,290.37,321.27z M289.43,313.88c0-0.24-0.07-0.46-0.17-0.67
		c-0.13-0.2-0.29-0.37-0.5-0.51c-0.21-0.13-0.46-0.25-0.75-0.33c-0.29-0.08-0.6-0.12-0.95-0.12c-0.33,0-0.63,0.04-0.91,0.11
		c-0.29,0.08-0.54,0.2-0.75,0.33c-0.22,0.14-0.39,0.32-0.51,0.51c-0.13,0.21-0.18,0.43-0.18,0.68c0,0.26,0.07,0.49,0.2,0.67
		c0.12,0.21,0.29,0.38,0.51,0.51c0.21,0.14,0.46,0.25,0.75,0.32c0.28,0.08,0.58,0.12,0.89,0.12s0.63-0.04,0.92-0.12
		c0.29-0.07,0.54-0.17,0.76-0.32c0.21-0.13,0.37-0.3,0.5-0.51C289.36,314.36,289.43,314.14,289.43,313.88z M289.43,321.27
		c0-0.5-0.21-0.91-0.63-1.22c-0.42-0.32-1-0.47-1.73-0.47c-0.72,0-1.29,0.16-1.71,0.47c-0.43,0.32-0.64,0.72-0.64,1.22
		c0,0.26,0.05,0.49,0.17,0.68c0.11,0.21,0.28,0.38,0.49,0.54c0.2,0.14,0.45,0.26,0.74,0.34c0.29,0.08,0.6,0.12,0.96,0.12
		c0.74,0,1.31-0.16,1.73-0.46C289.22,322.18,289.43,321.77,289.43,321.27z M288.73,317.17v-1.16c-0.24,0.11-0.5,0.18-0.77,0.22
		c-0.29,0.05-0.58,0.08-0.89,0.08c-0.63,0-1.18-0.09-1.65-0.3v1.16H288.73z"/>
	<path class="st2" d="M298.03,313c0,0.41,0.08,0.8,0.24,1.18c0.14,0.39,0.35,0.77,0.64,1.12c0.26,0.37,0.6,0.7,1,1
		c0.39,0.32,0.83,0.58,1.33,0.81c-0.12,0.11-0.22,0.21-0.33,0.32c-0.12,0.12-0.24,0.22-0.34,0.33c-0.66-0.3-1.26-0.71-1.79-1.22
		c-0.54-0.5-0.95-1.06-1.22-1.68c-0.26,0.66-0.66,1.25-1.2,1.8c-0.55,0.55-1.17,1.01-1.85,1.37c-0.11-0.11-0.21-0.21-0.32-0.33
		c-0.12-0.11-0.24-0.21-0.34-0.32c0.47-0.24,0.91-0.53,1.3-0.87c0.38-0.33,0.71-0.68,1-1.08c0.28-0.37,0.5-0.77,0.66-1.19
		c0.16-0.41,0.24-0.81,0.24-1.23v-1.34h0.98V313z M303.73,323.32h-7.64v-4.08h0.95v3.24h6.7V323.32z M303.53,315.53v3.78h-0.95
		v-8.01h0.95v3.39h2.04v0.84H303.53z"/>
	<path class="st2" d="M311.51,323.65v-4.46h-5.23v-0.84h11.48v0.84h-5.27v4.46H311.51z M315.94,311.86c0,2.08-0.14,3.8-0.43,5.16
		l-0.91-0.11c0.26-1.37,0.39-2.77,0.39-4.22h-6.84v-0.84H315.94z"/>
</g>
<g>
	<path class="st2" d="M306.81,277.81c0,0.37-0.08,0.71-0.24,1.02c-0.17,0.3-0.39,0.56-0.68,0.8c-0.29,0.21-0.63,0.39-1.02,0.53
		c-0.39,0.12-0.83,0.18-1.3,0.18c-0.46,0-0.88-0.07-1.27-0.18c-0.39-0.13-0.74-0.3-1.02-0.51c-0.29-0.22-0.53-0.49-0.68-0.79
		c-0.17-0.32-0.25-0.66-0.25-1.05c0-0.32,0.07-0.63,0.21-0.92c0.13-0.29,0.32-0.54,0.56-0.77c0.24-0.21,0.53-0.39,0.87-0.54
		c0.34-0.13,0.71-0.22,1.13-0.26v-0.98h-5.37v-0.84h11.69v0.84h-5.37v0.98c0.39,0.03,0.77,0.12,1.12,0.25
		c0.34,0.14,0.63,0.33,0.88,0.54c0.24,0.22,0.42,0.47,0.56,0.76C306.74,277.17,306.81,277.48,306.81,277.81z M308.14,271.9
		c-0.11,0.12-0.2,0.22-0.29,0.33c-0.11,0.12-0.2,0.22-0.29,0.33c-0.47-0.09-0.91-0.22-1.31-0.39c-0.42-0.16-0.81-0.35-1.16-0.56
		c-0.35-0.21-0.66-0.43-0.92-0.67c-0.26-0.24-0.47-0.47-0.62-0.74c-0.16,0.26-0.37,0.5-0.63,0.74c-0.26,0.25-0.56,0.47-0.91,0.68
		c-0.35,0.21-0.74,0.39-1.14,0.55c-0.42,0.17-0.87,0.3-1.31,0.39c-0.11-0.11-0.2-0.21-0.28-0.33c-0.11-0.11-0.2-0.21-0.29-0.33
		c0.53-0.12,1.01-0.28,1.47-0.47c0.45-0.18,0.84-0.39,1.19-0.63c0.34-0.24,0.62-0.49,0.84-0.77c0.21-0.28,0.33-0.58,0.38-0.89h-3.34
		v-0.84h8.02v0.84h-3.35c0.05,0.34,0.2,0.64,0.43,0.93c0.22,0.29,0.51,0.55,0.88,0.79c0.35,0.24,0.76,0.45,1.22,0.62
		C307.21,271.65,307.67,271.8,308.14,271.9z M305.86,277.81c0-0.26-0.07-0.5-0.18-0.71c-0.13-0.2-0.3-0.37-0.51-0.53
		c-0.21-0.14-0.46-0.26-0.72-0.34c-0.29-0.08-0.58-0.12-0.87-0.12c-0.32,0-0.6,0.04-0.88,0.12c-0.29,0.08-0.53,0.2-0.74,0.34
		c-0.21,0.16-0.38,0.33-0.5,0.54c-0.13,0.21-0.18,0.45-0.18,0.7c0,0.26,0.05,0.49,0.18,0.68c0.12,0.21,0.29,0.38,0.5,0.54
		c0.21,0.14,0.45,0.26,0.74,0.35c0.28,0.08,0.56,0.12,0.88,0.12c0.29,0,0.58-0.04,0.87-0.12c0.26-0.09,0.51-0.21,0.72-0.35
		c0.21-0.16,0.38-0.33,0.51-0.54C305.79,278.3,305.86,278.07,305.86,277.81z"/>
	<path class="st2" d="M315.54,280.21v-4.46h-5.23v-0.84h11.48v0.84h-5.27v4.46H315.54z M319.96,268.42c0,2.08-0.14,3.8-0.43,5.16
		l-0.91-0.11c0.26-1.37,0.39-2.77,0.39-4.22h-6.84v-0.84H319.96z"/>
</g>
<g>
	<path class="st2" d="M188.24,273.96v-7.37h5.58v7.37H188.24z M192.87,267.43h-3.69v5.69h3.69V267.43z M196.98,271.03v6.76h-0.95
		v-12.34h0.95v4.74h2.17v0.84H196.98z"/>
	<path class="st2" d="M201.17,272.68v-0.84h1.96l-0.13-3.77h0.96l0.12,3.77h3.06l0.13-3.77h0.96l-0.13,3.77h1.96v0.84h-3.97v2.61
		h5.27v0.84h-11.48v-0.84h5.27v-2.61H201.17z M201.51,267.47v-0.84h8.19v0.84H201.51z"/>
	<path class="st2" d="M217.57,277.79v-4.46h-5.23v-0.84h11.48v0.84h-5.27v4.46H217.57z M222,266c0,2.08-0.14,3.8-0.43,5.16
		l-0.91-0.11c0.26-1.37,0.39-2.77,0.39-4.22h-6.84V266H222z"/>
</g>
<g>
	<path class="st2" d="M220.72,239.28c-0.66-0.45-1.26-1-1.79-1.65c-0.54-0.64-0.95-1.35-1.21-2.13c-0.13,0.39-0.29,0.76-0.49,1.13
		c-0.21,0.37-0.43,0.72-0.7,1.05c-0.26,0.34-0.55,0.66-0.85,0.95c-0.32,0.29-0.63,0.55-0.95,0.79c-0.11-0.11-0.21-0.21-0.32-0.32
		c-0.12-0.11-0.24-0.21-0.34-0.32c0.49-0.34,0.93-0.74,1.33-1.18c0.38-0.42,0.71-0.88,0.98-1.38c0.26-0.47,0.47-0.97,0.63-1.5
		c0.13-0.51,0.21-1.02,0.21-1.55v-1.8h0.98v1.8c0,0.54,0.08,1.06,0.24,1.58c0.14,0.53,0.35,1.02,0.64,1.5c0.26,0.47,0.6,0.92,1,1.31
		c0.38,0.42,0.81,0.77,1.29,1.09L220.72,239.28z M220.14,234.26h2.81v-3.77h0.95v12.34h-0.95v-7.73h-2.81V234.26z"/>
	<path class="st2" d="M228.09,238.31c0.81,0,1.6-0.03,2.34-0.09c0.72-0.05,1.42-0.14,2.1-0.28c0.01,0.13,0.03,0.28,0.05,0.41
		c0.01,0.14,0.03,0.28,0.05,0.41c-1.37,0.26-3.19,0.39-5.48,0.39v-7.51h4.75v0.84h-3.82V238.31z M234.17,242.44h-0.93v-11.82h0.93
		v4.62h1.67v-4.75h0.93v12.34h-0.93v-6.76h-1.67V242.44z"/>
	<path class="st2" d="M244.16,239.92v-2.48h-5.62v-0.84h11.74v0.84h-5.16v2.48H244.16z M240.5,235.19v-4.28h7.83v4.28H240.5z
		 M248.41,242.51h-7.92v-3.72h0.95v2.88h6.97V242.51z M247.38,231.75h-5.94v2.6h5.94V231.75z"/>
	<path class="st2" d="M256.37,242.84v-4.46h-5.23v-0.84h11.48v0.84h-5.27v4.46H256.37z M260.8,231.04c0,2.08-0.14,3.8-0.43,5.16
		l-0.91-0.11c0.26-1.37,0.39-2.77,0.39-4.22h-6.84v-0.84H260.8z"/>
</g>
<g>
	<path class="st2" d="M228,163.36v0.84h-11.69v-0.84H228z M226.29,169.11h-7.88v-3.72h0.95v2.88h6.93V169.11z M225.46,159.8
		c0,0.41-0.09,0.76-0.25,1.08c-0.17,0.32-0.41,0.59-0.7,0.8c-0.3,0.24-0.66,0.41-1.05,0.51c-0.42,0.13-0.85,0.18-1.33,0.18
		c-0.47,0-0.91-0.05-1.3-0.17c-0.41-0.11-0.76-0.28-1.05-0.51c-0.3-0.21-0.54-0.49-0.7-0.8c-0.17-0.32-0.25-0.67-0.25-1.09
		c0-0.42,0.08-0.79,0.26-1.12c0.16-0.32,0.39-0.58,0.7-0.8c0.29-0.21,0.63-0.38,1.04-0.5c0.39-0.11,0.83-0.17,1.3-0.17
		c0.47,0,0.91,0.07,1.33,0.17c0.39,0.12,0.75,0.29,1.05,0.5c0.29,0.22,0.51,0.5,0.7,0.81C225.37,159.03,225.46,159.39,225.46,159.8z
		 M224.5,159.8c0-0.29-0.07-0.54-0.18-0.76c-0.13-0.21-0.29-0.39-0.5-0.55c-0.21-0.14-0.46-0.26-0.75-0.34
		c-0.29-0.07-0.6-0.11-0.93-0.11c-0.33,0-0.63,0.04-0.91,0.11c-0.29,0.08-0.54,0.2-0.75,0.34c-0.22,0.16-0.39,0.34-0.51,0.55
		c-0.13,0.22-0.18,0.47-0.18,0.76c0,0.29,0.07,0.53,0.2,0.74c0.12,0.22,0.29,0.41,0.51,0.55c0.21,0.16,0.46,0.26,0.75,0.34
		c0.28,0.08,0.58,0.12,0.89,0.12c0.32,0,0.63-0.04,0.92-0.12c0.29-0.07,0.54-0.17,0.76-0.33c0.21-0.14,0.37-0.33,0.5-0.55
		C224.44,160.34,224.5,160.09,224.5,159.8z"/>
	<path class="st2" d="M229.34,163.26v-0.81h1.47c-0.03-0.55-0.04-1.1-0.07-1.67c-0.03-0.55-0.05-1.1-0.07-1.65h0.91
		c0.01,0.55,0.04,1.1,0.07,1.65c0.03,0.55,0.04,1.1,0.07,1.65c0.79,0,1.51-0.03,2.14-0.08c0.01-0.55,0.04-1.1,0.07-1.65
		c0.03-0.55,0.04-1.1,0.07-1.67h0.91c-0.03,0.55-0.04,1.1-0.07,1.63c-0.03,0.54-0.05,1.08-0.07,1.62c0.32-0.03,0.64-0.07,0.97-0.12
		c0.32-0.03,0.63-0.08,0.96-0.13c0.01,0.13,0.03,0.26,0.05,0.39c0,0.14,0.01,0.28,0.04,0.41c-1.73,0.29-3.61,0.43-5.66,0.43H229.34z
		 M229.49,158.46v-0.81h6.66v0.81H229.49z M239,166.8c0,0.42-0.09,0.79-0.25,1.12c-0.18,0.34-0.42,0.63-0.71,0.88
		c-0.3,0.24-0.66,0.43-1.06,0.58c-0.42,0.13-0.85,0.2-1.33,0.2c-0.47,0-0.91-0.07-1.3-0.2c-0.41-0.14-0.76-0.33-1.05-0.56
		c-0.3-0.25-0.54-0.54-0.7-0.88c-0.18-0.34-0.26-0.71-0.26-1.13c0-0.42,0.08-0.81,0.26-1.16c0.17-0.34,0.41-0.63,0.72-0.88
		c0.29-0.24,0.64-0.42,1.05-0.55c0.39-0.13,0.81-0.2,1.27-0.2c0.47,0,0.91,0.07,1.33,0.2c0.39,0.13,0.75,0.33,1.06,0.56
		c0.29,0.25,0.53,0.54,0.71,0.88C238.91,166,239,166.38,239,166.8z M238.06,166.8c0-0.29-0.07-0.55-0.18-0.79
		c-0.13-0.24-0.3-0.43-0.51-0.62c-0.22-0.16-0.47-0.29-0.76-0.39c-0.29-0.09-0.6-0.14-0.93-0.14c-0.34,0-0.64,0.05-0.92,0.13
		c-0.29,0.11-0.55,0.24-0.76,0.39c-0.22,0.18-0.39,0.38-0.51,0.62c-0.13,0.24-0.18,0.51-0.18,0.8c0,0.29,0.07,0.55,0.2,0.79
		c0.12,0.25,0.29,0.45,0.51,0.62c0.21,0.16,0.46,0.29,0.75,0.39c0.29,0.08,0.59,0.13,0.92,0.13c0.32,0,0.63-0.05,0.92-0.13
		c0.29-0.11,0.54-0.24,0.76-0.39c0.21-0.18,0.39-0.38,0.53-0.62C237.99,167.35,238.06,167.09,238.06,166.8z M238.25,159.6h-2.32
		v-0.8h2.32v-1.71h0.95v6.66h-0.95v-2.05h-2.32v-0.8h2.32V159.6z"/>
	<path class="st2" d="M246.59,169.44v-4.46h-5.23v-0.84h11.48v0.84h-5.27v4.46H246.59z M251.02,157.65c0,2.08-0.14,3.8-0.43,5.16
		l-0.91-0.11c0.26-1.37,0.39-2.77,0.39-4.22h-6.84v-0.84H251.02z"/>
</g>
<g>
	<path class="st2" d="M339.65,199.87c-0.12,0.11-0.22,0.21-0.33,0.32c-0.12,0.12-0.24,0.22-0.34,0.33c-0.66-0.3-1.26-0.7-1.79-1.17
		c-0.55-0.46-0.96-0.98-1.22-1.56c-0.13,0.32-0.3,0.6-0.5,0.89c-0.21,0.29-0.45,0.56-0.71,0.81c-0.26,0.26-0.55,0.5-0.85,0.71
		c-0.32,0.22-0.64,0.42-0.98,0.58c-0.11-0.11-0.21-0.21-0.32-0.33c-0.12-0.11-0.24-0.21-0.34-0.32c0.47-0.24,0.92-0.51,1.31-0.84
		c0.39-0.32,0.72-0.67,1.01-1.04c0.28-0.35,0.49-0.74,0.64-1.13c0.14-0.38,0.22-0.76,0.22-1.13v-1.18h0.98V196
		c0,0.37,0.08,0.74,0.24,1.1c0.14,0.37,0.35,0.72,0.64,1.06c0.28,0.34,0.62,0.66,1.01,0.95
		C338.73,199.41,339.17,199.66,339.65,199.87z M342.02,204.17c0,0.42-0.09,0.79-0.25,1.12c-0.18,0.34-0.42,0.63-0.71,0.88
		c-0.3,0.24-0.66,0.43-1.06,0.58c-0.42,0.13-0.85,0.2-1.33,0.2c-0.47,0-0.91-0.07-1.3-0.2c-0.41-0.14-0.76-0.33-1.05-0.56
		c-0.3-0.25-0.54-0.54-0.7-0.88c-0.18-0.34-0.26-0.71-0.26-1.13c0-0.42,0.08-0.81,0.26-1.16c0.17-0.34,0.41-0.63,0.72-0.88
		c0.29-0.24,0.64-0.42,1.05-0.55c0.39-0.13,0.81-0.2,1.27-0.2c0.47,0,0.91,0.07,1.33,0.2c0.39,0.13,0.75,0.33,1.06,0.56
		c0.29,0.25,0.53,0.54,0.71,0.88C341.93,203.37,342.02,203.75,342.02,204.17z M341.07,204.17c0-0.29-0.07-0.55-0.18-0.79
		c-0.13-0.24-0.3-0.43-0.51-0.62c-0.22-0.16-0.47-0.29-0.76-0.39c-0.29-0.09-0.6-0.14-0.93-0.14c-0.34,0-0.64,0.05-0.92,0.13
		c-0.29,0.11-0.55,0.24-0.76,0.39c-0.22,0.18-0.39,0.38-0.51,0.62c-0.13,0.24-0.18,0.51-0.18,0.8c0,0.29,0.07,0.55,0.2,0.79
		c0.12,0.25,0.29,0.45,0.51,0.62c0.21,0.16,0.46,0.29,0.75,0.39c0.29,0.08,0.59,0.13,0.92,0.13c0.32,0,0.63-0.05,0.92-0.13
		c0.29-0.11,0.54-0.24,0.76-0.39c0.21-0.18,0.39-0.38,0.53-0.62C341.01,204.72,341.07,204.46,341.07,204.17z M338.58,196.72h2.69
		v-2.26h0.95v6.66h-0.95v-3.56h-2.69V196.72z"/>
	<path class="st2" d="M352.96,206.55v-3.19h-6.84v-0.84h3.53v-1.23h-5.37v-0.81h11.69v0.81h-5.37v1.23h3.31v4.03H352.96z
		 M346.21,199.18v-4.43h0.95v1.43h5.94v-1.43h0.95v4.43H346.21z M353.09,196.97h-5.94v1.42h5.94V196.97z"/>
	<path class="st2" d="M362.08,206.81v-4.46h-5.23v-0.84h11.48v0.84h-5.27v4.46H362.08z M366.51,195.02c0,2.08-0.14,3.8-0.43,5.16
		l-0.91-0.11c0.26-1.37,0.39-2.77,0.39-4.22h-6.84v-0.84H366.51z"/>
</g>
<g>
	<path class="st2" d="M389.49,234.97h-3.56v1.26h5.37v0.84h-11.69v-0.84h5.37v-1.26h-3.45v-4.06h7.73v0.84h-6.79v2.38h7.01V234.97z
		 M388.69,240.42c0,0.39-0.08,0.74-0.22,1.05c-0.16,0.32-0.38,0.58-0.66,0.81c-0.29,0.21-0.63,0.38-1.02,0.51
		c-0.41,0.11-0.85,0.17-1.34,0.17c-0.5,0-0.93-0.07-1.33-0.17c-0.39-0.13-0.74-0.3-1.01-0.51c-0.29-0.24-0.51-0.5-0.66-0.81
		c-0.16-0.32-0.24-0.66-0.24-1.05c0-0.37,0.07-0.72,0.22-1.04c0.14-0.32,0.35-0.58,0.64-0.81c0.28-0.22,0.62-0.41,1.02-0.54
		c0.39-0.12,0.84-0.18,1.34-0.18c0.49,0,0.93,0.07,1.34,0.18c0.39,0.13,0.74,0.3,1.02,0.51c0.28,0.24,0.5,0.5,0.66,0.81
		C388.61,239.67,388.69,240.03,388.69,240.42z M387.74,240.42c0-0.55-0.21-0.97-0.62-1.29c-0.42-0.29-0.98-0.45-1.67-0.45
		c-0.71,0-1.26,0.16-1.67,0.46c-0.42,0.32-0.63,0.74-0.63,1.27c0,0.26,0.05,0.5,0.17,0.71c0.11,0.21,0.26,0.38,0.47,0.54
		c0.2,0.14,0.43,0.26,0.72,0.34c0.28,0.08,0.59,0.12,0.93,0.12c0.34,0,0.64-0.04,0.93-0.12c0.28-0.08,0.51-0.2,0.72-0.34
		c0.2-0.16,0.35-0.33,0.47-0.54C387.69,240.92,387.74,240.68,387.74,240.42z"/>
	<path class="st2" d="M394.08,238.31c0.81,0,1.6-0.03,2.34-0.09c0.72-0.05,1.42-0.14,2.1-0.28c0.01,0.13,0.03,0.28,0.05,0.41
		c0.01,0.14,0.03,0.28,0.05,0.41c-1.37,0.26-3.19,0.39-5.48,0.39v-7.51h4.75v0.84h-3.82V238.31z M400.16,242.44h-0.93v-11.82h0.93
		v4.62h1.67v-4.75h0.93v12.34h-0.93v-6.76h-1.67V242.44z"/>
	<path class="st2" d="M410.16,239.92v-2.48h-5.62v-0.84h11.74v0.84h-5.16v2.48H410.16z M406.49,235.19v-4.28h7.83v4.28H406.49z
		 M414.41,242.51h-7.92v-3.72h0.95v2.88h6.97V242.51z M413.38,231.75h-5.94v2.6h5.94V231.75z"/>
	<path class="st2" d="M422.37,242.84v-4.46h-5.23v-0.84h11.48v0.84h-5.27v4.46H422.37z M426.8,231.04c0,2.08-0.14,3.8-0.43,5.16
		l-0.91-0.11c0.26-1.37,0.39-2.77,0.39-4.22h-6.84v-0.84H426.8z"/>
</g>
<g>
	<path class="st2" d="M291.31,228.01v1.48h5.37v0.84H285v-0.84h5.37v-1.48H291.31z M295.41,227.79c-0.11,0.12-0.2,0.22-0.29,0.33
		c-0.11,0.12-0.2,0.22-0.29,0.33c-0.47-0.09-0.91-0.22-1.31-0.39c-0.42-0.16-0.81-0.35-1.16-0.56c-0.35-0.21-0.66-0.43-0.92-0.67
		c-0.26-0.24-0.47-0.47-0.62-0.74c-0.16,0.26-0.37,0.5-0.63,0.74c-0.26,0.25-0.56,0.47-0.91,0.68c-0.35,0.21-0.74,0.39-1.14,0.55
		c-0.42,0.17-0.87,0.3-1.31,0.39c-0.11-0.11-0.2-0.21-0.28-0.33c-0.11-0.11-0.2-0.21-0.29-0.33c0.53-0.12,1.01-0.28,1.47-0.47
		c0.45-0.18,0.84-0.39,1.19-0.63c0.34-0.24,0.62-0.49,0.84-0.77c0.21-0.28,0.33-0.58,0.38-0.89h-3.34v-0.84h8.02v0.84h-3.35
		c0.05,0.34,0.2,0.64,0.43,0.93c0.22,0.29,0.51,0.55,0.88,0.79c0.35,0.24,0.76,0.45,1.22,0.62
		C294.48,227.54,294.94,227.68,295.41,227.79z M294.07,233.69c0,0.39-0.08,0.74-0.22,1.05c-0.16,0.32-0.38,0.58-0.66,0.81
		c-0.29,0.21-0.63,0.38-1.02,0.51c-0.41,0.11-0.85,0.17-1.34,0.17c-0.5,0-0.93-0.07-1.33-0.17c-0.39-0.13-0.74-0.3-1.01-0.51
		c-0.29-0.24-0.51-0.5-0.66-0.81c-0.16-0.32-0.24-0.66-0.24-1.05c0-0.37,0.07-0.72,0.22-1.04c0.14-0.32,0.35-0.58,0.64-0.81
		c0.28-0.22,0.62-0.41,1.02-0.54c0.39-0.12,0.84-0.18,1.34-0.18c0.49,0,0.93,0.07,1.34,0.18c0.39,0.13,0.74,0.3,1.02,0.51
		c0.28,0.24,0.5,0.5,0.66,0.81C293.99,232.94,294.07,233.29,294.07,233.69z M293.13,233.69c0-0.55-0.21-0.97-0.62-1.29
		c-0.42-0.29-0.98-0.45-1.67-0.45c-0.71,0-1.26,0.16-1.67,0.46c-0.42,0.32-0.63,0.74-0.63,1.27c0,0.26,0.05,0.5,0.17,0.71
		c0.11,0.21,0.26,0.38,0.47,0.54c0.2,0.14,0.43,0.26,0.72,0.34c0.28,0.08,0.59,0.12,0.93,0.12c0.34,0,0.64-0.04,0.93-0.12
		c0.28-0.08,0.51-0.2,0.72-0.34c0.2-0.16,0.35-0.33,0.47-0.54C293.07,234.18,293.13,233.95,293.13,233.69z"/>
	<path class="st2" d="M307.19,228.39h-6.8v2.11h7.03v0.79h-3.62v2.31h5.27v0.84h-11.48v-0.84h5.27v-2.31h-3.4v-3.7h6.8v-1.94h-6.8
		v-0.8h7.75V228.39z"/>
	<path class="st2" d="M315.28,236.1v-4.46h-5.23v-0.84h11.48v0.84h-5.27v4.46H315.28z M319.71,224.31c0,2.08-0.14,3.8-0.43,5.16
		l-0.91-0.11c0.26-1.37,0.39-2.77,0.39-4.22h-6.84v-0.84H319.71z"/>
</g>
<g>
	<path class="st2" d="M448.66,206.46c0,0.37-0.08,0.71-0.24,1.02c-0.17,0.3-0.39,0.56-0.68,0.8c-0.29,0.21-0.63,0.39-1.02,0.53
		c-0.39,0.12-0.83,0.18-1.3,0.18c-0.46,0-0.88-0.07-1.27-0.18c-0.39-0.13-0.74-0.3-1.02-0.51c-0.29-0.22-0.53-0.49-0.68-0.79
		c-0.17-0.32-0.25-0.66-0.25-1.05c0-0.32,0.07-0.63,0.21-0.92c0.13-0.29,0.32-0.54,0.56-0.77c0.24-0.21,0.53-0.39,0.87-0.54
		c0.34-0.13,0.71-0.22,1.13-0.26v-0.98h-5.37v-0.84h11.69v0.84h-5.37v0.98c0.39,0.03,0.77,0.12,1.12,0.25
		c0.34,0.14,0.63,0.33,0.88,0.54c0.24,0.22,0.42,0.47,0.56,0.76C448.59,205.82,448.66,206.14,448.66,206.46z M449.99,200.56
		c-0.11,0.12-0.2,0.22-0.29,0.33c-0.11,0.12-0.2,0.22-0.29,0.33c-0.47-0.09-0.91-0.22-1.31-0.39c-0.42-0.16-0.81-0.35-1.16-0.56
		c-0.35-0.21-0.66-0.43-0.92-0.67c-0.26-0.24-0.47-0.47-0.62-0.74c-0.16,0.26-0.37,0.5-0.63,0.74c-0.26,0.25-0.56,0.47-0.91,0.68
		c-0.35,0.21-0.74,0.39-1.14,0.55c-0.42,0.17-0.87,0.3-1.31,0.39c-0.11-0.11-0.2-0.21-0.28-0.33c-0.11-0.11-0.2-0.21-0.29-0.33
		c0.53-0.12,1.01-0.28,1.47-0.47c0.45-0.18,0.84-0.39,1.2-0.63c0.34-0.24,0.62-0.49,0.84-0.77c0.21-0.28,0.33-0.58,0.38-0.89h-3.34
		v-0.84h8.02v0.84h-3.35c0.05,0.34,0.2,0.64,0.43,0.93c0.22,0.29,0.51,0.55,0.88,0.79c0.35,0.24,0.76,0.45,1.22,0.62
		C449.06,200.31,449.52,200.45,449.99,200.56z M447.71,206.46c0-0.26-0.07-0.5-0.18-0.71c-0.13-0.2-0.3-0.37-0.51-0.53
		c-0.21-0.14-0.46-0.26-0.72-0.34c-0.29-0.08-0.58-0.12-0.87-0.12c-0.32,0-0.6,0.04-0.88,0.12c-0.29,0.08-0.53,0.2-0.74,0.34
		c-0.21,0.16-0.38,0.33-0.5,0.54c-0.13,0.21-0.18,0.45-0.18,0.7c0,0.26,0.05,0.49,0.18,0.68c0.12,0.21,0.29,0.38,0.5,0.54
		c0.21,0.14,0.45,0.26,0.74,0.35c0.28,0.08,0.56,0.12,0.88,0.12c0.29,0,0.58-0.04,0.87-0.12c0.26-0.09,0.51-0.21,0.72-0.35
		c0.21-0.16,0.38-0.33,0.51-0.54C447.64,206.95,447.71,206.73,447.71,206.46z"/>
	<path class="st2" d="M453.96,201.99c2.09,0,3.98-0.13,5.69-0.39c0.01,0.13,0.03,0.26,0.05,0.39c0.01,0.14,0.03,0.28,0.05,0.41
		c-0.89,0.14-1.9,0.25-3.01,0.3c-1.13,0.08-2.36,0.11-3.73,0.11v-3.35h4.48v-1.56h-4.48v-0.81h5.42v3.19h-4.48V201.99z
		 M461.84,206.35c0,0.41-0.09,0.77-0.26,1.1c-0.18,0.32-0.42,0.59-0.71,0.83c-0.32,0.22-0.67,0.41-1.06,0.54
		c-0.42,0.12-0.85,0.18-1.31,0.18c-0.47,0-0.91-0.07-1.3-0.18c-0.41-0.13-0.76-0.3-1.05-0.53c-0.3-0.24-0.54-0.53-0.71-0.84
		c-0.18-0.32-0.26-0.68-0.26-1.1c0-0.42,0.08-0.79,0.26-1.13c0.17-0.33,0.41-0.62,0.72-0.85c0.29-0.22,0.64-0.39,1.05-0.53
		c0.39-0.11,0.83-0.17,1.29-0.17c0.46,0,0.89,0.07,1.31,0.18c0.39,0.13,0.75,0.3,1.06,0.53c0.29,0.24,0.53,0.51,0.71,0.84
		C461.75,205.56,461.84,205.93,461.84,206.35z M460.88,206.35c0-0.29-0.07-0.55-0.18-0.79c-0.13-0.22-0.3-0.42-0.51-0.58
		c-0.22-0.16-0.47-0.28-0.76-0.37c-0.3-0.08-0.62-0.12-0.93-0.12c-0.34,0-0.64,0.05-0.92,0.13c-0.29,0.09-0.55,0.21-0.76,0.37
		c-0.22,0.16-0.39,0.35-0.51,0.58c-0.13,0.24-0.18,0.49-0.18,0.77c0,0.29,0.05,0.54,0.18,0.75c0.12,0.24,0.29,0.42,0.51,0.58
		c0.21,0.16,0.47,0.28,0.76,0.37c0.28,0.08,0.58,0.12,0.92,0.12c0.33,0,0.64-0.04,0.93-0.12c0.29-0.09,0.54-0.21,0.76-0.37
		c0.21-0.16,0.38-0.34,0.51-0.58C460.82,206.88,460.88,206.64,460.88,206.35z M461.88,200.29v3.28h-0.95v-7.05h0.95v2.93h1.94v0.84
		H461.88z"/>
	<path class="st2" d="M469.86,208.87v-4.46h-5.23v-0.84h11.48v0.84h-5.27v4.46H469.86z M474.29,197.08c0,2.08-0.14,3.8-0.43,5.16
		l-0.91-0.11c0.26-1.37,0.39-2.77,0.39-4.22h-6.84v-0.84H474.29z"/>
</g>
<g>
	<path class="st2" d="M423.63,116.18h-3.69v2.94h5.27v0.84h-11.48v-0.84h5.27v-2.94h-3.4v-5.73h0.95v4.89h7.09V116.18z"/>
	<path class="st2" d="M429.85,117.55v-2.01h-3.1v-0.76h3.48c1.44,0,2.85-0.13,4.2-0.42c0.01,0.13,0.03,0.25,0.05,0.37
		c0.01,0.13,0.03,0.26,0.05,0.38c-1.16,0.26-2.42,0.41-3.78,0.43v2.01H429.85z M433.03,111.73c0,0.34-0.07,0.66-0.2,0.93
		c-0.14,0.29-0.33,0.53-0.56,0.71c-0.25,0.21-0.54,0.35-0.87,0.46c-0.34,0.12-0.7,0.17-1.08,0.17c-0.39,0-0.76-0.05-1.08-0.17
		c-0.34-0.11-0.62-0.25-0.85-0.46c-0.25-0.2-0.43-0.43-0.56-0.72c-0.14-0.26-0.21-0.58-0.21-0.92c0-0.34,0.07-0.67,0.21-0.96
		c0.13-0.28,0.33-0.51,0.58-0.72c0.24-0.2,0.51-0.35,0.85-0.46c0.32-0.11,0.67-0.16,1.06-0.16c0.37,0,0.72,0.05,1.06,0.16
		c0.33,0.11,0.62,0.26,0.87,0.45c0.24,0.21,0.42,0.45,0.56,0.72C432.95,111.05,433.03,111.38,433.03,111.73z M432.12,111.72
		c0-0.45-0.17-0.8-0.5-1.09c-0.34-0.28-0.76-0.42-1.29-0.42s-0.96,0.14-1.3,0.42c-0.34,0.29-0.51,0.64-0.51,1.09
		c0,0.45,0.17,0.81,0.51,1.09c0.33,0.29,0.76,0.42,1.3,0.42c0.26,0,0.5-0.04,0.72-0.12c0.21-0.07,0.41-0.17,0.56-0.32
		c0.16-0.13,0.28-0.29,0.37-0.47C432.07,112.14,432.12,111.94,432.12,111.72z M436.67,121.42h-8.01v-3.48h0.95v2.64h7.07V121.42z
		 M432.44,116.37h3.13v-7.09h0.95v8.98h-0.95v-1.14h-3.13V116.37z"/>
	<path class="st2" d="M443.9,121.62v-4.46h-5.23v-0.84h11.48v0.84h-5.27v4.46H443.9z M448.33,109.83c0,2.08-0.14,3.8-0.43,5.16
		l-0.91-0.11c0.26-1.37,0.39-2.77,0.39-4.22h-6.84v-0.84H448.33z"/>
</g>
<g>
	<path class="st2" d="M362.35,74.11h-3.52v2.93h5.27v0.84h-11.48v-0.84h5.27v-2.93h-3.4v-5.83h7.64v0.84h-6.7v4.15h6.92V74.11z"/>
	<path class="st2" d="M366.91,71.91v-4.44h0.95v1.44h5.95v-1.44h0.95v4.44h-3.44v1.18h5.37v0.84h-11.69V73.1h5.37v-1.18H366.91z
		 M374.13,77.15c0,0.37-0.08,0.71-0.22,1.01c-0.16,0.3-0.38,0.56-0.67,0.8c-0.29,0.21-0.64,0.38-1.04,0.51
		c-0.42,0.12-0.88,0.18-1.38,0.18c-0.53,0-0.98-0.07-1.38-0.18c-0.42-0.13-0.76-0.3-1.04-0.51c-0.29-0.24-0.51-0.5-0.66-0.8
		c-0.16-0.3-0.24-0.64-0.24-1.01c0-0.37,0.08-0.7,0.24-1.01c0.14-0.3,0.37-0.56,0.66-0.8c0.29-0.21,0.63-0.39,1.05-0.53
		c0.39-0.12,0.85-0.18,1.37-0.18c0.5,0,0.96,0.07,1.38,0.18c0.39,0.13,0.75,0.3,1.04,0.51c0.29,0.24,0.51,0.5,0.67,0.8
		C374.05,76.45,374.13,76.79,374.13,77.15z M373.8,69.71h-5.95v1.41h5.95V69.71z M373.18,77.15c0-0.5-0.21-0.91-0.63-1.22
		c-0.42-0.32-1-0.47-1.73-0.47c-0.72,0-1.29,0.16-1.71,0.47c-0.43,0.32-0.64,0.72-0.64,1.22c0,0.26,0.05,0.49,0.17,0.68
		c0.11,0.21,0.28,0.38,0.49,0.54c0.2,0.14,0.45,0.26,0.74,0.34c0.29,0.08,0.6,0.12,0.96,0.12c0.74,0,1.31-0.16,1.73-0.46
		C372.97,78.06,373.18,77.65,373.18,77.15z"/>
	<path class="st2" d="M382.79,79.53v-4.46h-5.23v-0.84h11.48v0.84h-5.27v4.46H382.79z M387.22,67.74c0,2.08-0.14,3.8-0.43,5.16
		l-0.91-0.11c0.26-1.37,0.39-2.77,0.39-4.22h-6.84v-0.84H387.22z"/>
</g>
<g>
	<path class="st2" d="M328.78,129.85c-0.11-0.12-0.21-0.24-0.3-0.37c-0.11-0.11-0.21-0.22-0.32-0.34c0.59-0.13,1.17-0.34,1.73-0.63
		c0.55-0.26,1.06-0.59,1.52-0.98c0.45-0.37,0.83-0.79,1.14-1.26c0.3-0.46,0.5-0.95,0.58-1.46h-4.56v-0.84h5.67
		c0,0.72-0.16,1.41-0.45,2.04c-0.3,0.64-0.7,1.22-1.2,1.72c-0.51,0.53-1.09,0.96-1.75,1.31C330.2,129.41,329.5,129.68,328.78,129.85
		z M337.38,133.12c0,0.42-0.09,0.79-0.26,1.13c-0.18,0.34-0.42,0.63-0.71,0.88c-0.32,0.24-0.67,0.42-1.06,0.56
		c-0.42,0.13-0.85,0.2-1.31,0.2c-0.47,0-0.91-0.07-1.3-0.2c-0.41-0.13-0.76-0.33-1.05-0.56c-0.32-0.25-0.55-0.54-0.71-0.88
		c-0.18-0.34-0.26-0.71-0.26-1.13c0-0.42,0.08-0.81,0.26-1.17c0.17-0.34,0.41-0.63,0.72-0.88c0.29-0.24,0.64-0.42,1.05-0.55
		c0.39-0.12,0.83-0.18,1.29-0.18c0.45,0,0.88,0.07,1.3,0.2c0.39,0.13,0.75,0.32,1.06,0.55c0.3,0.25,0.54,0.54,0.72,0.88
		C337.29,132.31,337.38,132.7,337.38,133.12z M336.42,133.12c0-0.29-0.07-0.56-0.18-0.8c-0.13-0.24-0.3-0.43-0.51-0.62
		c-0.22-0.16-0.47-0.29-0.76-0.39c-0.29-0.08-0.6-0.13-0.93-0.13c-0.34,0-0.64,0.05-0.92,0.14c-0.29,0.11-0.55,0.24-0.76,0.39
		c-0.22,0.18-0.39,0.38-0.51,0.62c-0.13,0.24-0.18,0.5-0.18,0.79c0,0.29,0.07,0.55,0.2,0.79c0.12,0.24,0.29,0.43,0.51,0.62
		c0.21,0.16,0.46,0.29,0.75,0.39c0.29,0.08,0.59,0.13,0.92,0.13c0.32,0,0.63-0.05,0.92-0.13c0.29-0.11,0.54-0.24,0.76-0.39
		c0.21-0.17,0.39-0.37,0.53-0.62C336.36,133.67,336.42,133.41,336.42,133.12z M337.42,127.11v2.88h-0.95v-6.57h0.95v2.85h2.04v0.84
		H337.42z"/>
	<path class="st2" d="M348.75,135.5v-3.19h-6.84v-0.84h3.53v-1.23h-5.37v-0.81h11.69v0.81h-5.37v1.23h3.31v4.03H348.75z M342,128.13
		v-4.43h0.95v1.43h5.94v-1.43h0.95v4.43H342z M348.88,125.93h-5.94v1.42h5.94V125.93z"/>
	<path class="st2" d="M357.88,135.76v-4.46h-5.23v-0.84h11.48v0.84h-5.27v4.46H357.88z M362.3,123.97c0,2.08-0.14,3.8-0.43,5.16
		l-0.91-0.11c0.26-1.37,0.39-2.77,0.39-4.22h-6.84v-0.84H362.3z"/>
</g>
</svg>
