<?xml version="1.0" encoding="utf-8"?>
<!-- Generator: Adobe Illustrator 26.2.0, SVG Export Plug-In . SVG Version: 6.00 Build 0)  -->
<svg version="1.1" id="Layer_1" xmlns="http://www.w3.org/2000/svg" xmlns:xlink="http://www.w3.org/1999/xlink" x="0px" y="0px"
	 viewBox="0 0 1920 1080" style="enable-background:new 0 0 1920 1080;" xml:space="preserve">
<style type="text/css">
	.st0{fill:#7DECED;}
	.st1{fill:url(#SVGID_1_);}
	.st2{opacity:0.31;}
	.st3{fill:#FFFFFF;}
	.st4{fill-rule:evenodd;clip-rule:evenodd;fill:#58595B;}
	.st5{opacity:0.48;fill:#FED092;}
</style>
<g>
	<g>
		<path class="st0" d="M1228.68,992.89H795.47c-16.19,0-29.32-13.13-29.32-29.32l0,0c0-16.19,13.13-29.32,29.32-29.32h433.22
			c16.19,0,29.32,13.13,29.32,29.32l0,0C1258,979.76,1244.87,992.89,1228.68,992.89z"/>
		<path class="st0" d="M1423.03,875.62h-11.87c-16.19,0-29.32-13.13-29.32-29.32l0,0c0-16.19,13.13-29.32,29.32-29.32h11.87
			c16.19,0,29.32,13.13,29.32,29.32l0,0C1452.35,862.5,1439.22,875.62,1423.03,875.62z"/>
		<path class="st0" d="M661.28,992.89h-96.46c-16.19,0-29.32-13.13-29.32-29.32l0,0c0-16.19,13.13-29.32,29.32-29.32h96.46
			c16.19,0,29.32,13.13,29.32,29.32l0,0C690.6,979.76,677.48,992.89,661.28,992.89z"/>
		<g>
			<path class="st0" d="M887.18,758.35H684.75c16.19,0,29.32,13.13,29.32,29.32c0,16.19-13.13,29.32-29.32,29.32h202.43
				c16.19,0,29.32-13.13,29.32-29.32C916.5,771.48,903.38,758.35,887.18,758.35z"/>
			<path class="st0" d="M1003.06,787.67c0-16.19,13.13-29.32,29.32-29.32H829.94c-16.19,0-29.32,13.13-29.32,29.32
				c0,16.19,13.13,29.32,29.32,29.32h202.43C1016.19,816.99,1003.06,803.86,1003.06,787.67z"/>
		</g>
		<g>
			<path class="st0" d="M1058.17,875.62H855.74c16.19,0,29.32,13.13,29.32,29.32c0,16.19-13.13,29.32-29.32,29.32h202.43
				c16.19,0,29.32-13.13,29.32-29.32C1087.49,888.75,1074.37,875.62,1058.17,875.62z"/>
			<path class="st0" d="M1094.42,904.94c0-16.19,13.13-29.32,29.32-29.32H921.3c-16.19,0-29.32,13.13-29.32,29.32
				c0,16.19,13.13,29.32,29.32,29.32h202.43C1107.54,934.26,1094.42,921.13,1094.42,904.94z"/>
		</g>
		<path class="st0" d="M1589.45,758.35H330.55c-11.35,0-20.55-9.2-20.55-20.55v-17.54c0-11.35,9.2-20.55,20.55-20.55h1258.9
			c11.35,0,20.55,9.2,20.55,20.55v17.54C1610,749.15,1600.8,758.35,1589.45,758.35z"/>
		<path class="st0" d="M1319.67,875.62H541.11c-16.19,0-29.32-13.13-29.32-29.32l0,0c0-16.19,13.13-29.32,29.32-29.32h778.56
			c16.19,0,29.32,13.13,29.32,29.32l0,0C1348.99,862.5,1335.86,875.62,1319.67,875.62z"/>
	</g>
	<linearGradient id="SVGID_1_" gradientUnits="userSpaceOnUse" x1="956.6833" y1="670.0024" x2="956.6833" y2="140.4619">
		<stop  offset="0" style="stop-color:#FF9D7D"/>
		<stop  offset="1" style="stop-color:#FF2F91"/>
	</linearGradient>
	<path class="st1" d="M956.68,87.11c-338.34,0-612.61,274.28-612.61,612.61h1225.22C1569.29,361.39,1295.02,87.11,956.68,87.11z"/>
	<g class="st2">
		<path class="st3" d="M784.19,401.09H568.9c-3.53,0-6.41-2.89-6.41-6.41l0,0c0-3.53,2.89-6.41,6.41-6.41h215.29
			c3.53,0,6.41,2.89,6.41,6.41l0,0C790.6,398.2,787.72,401.09,784.19,401.09z"/>
		<g>
			<path class="st3" d="M753.19,407.5c0-3.53,2.89-6.41,6.41-6.41h-58.02c-3.53,0-6.41,2.89-6.41,6.41c0,3.53,2.89,6.41,6.41,6.41
				h58.02C756.08,413.91,753.19,411.03,753.19,407.5z"/>
			<path class="st3" d="M739.15,401.09h-58.02c3.53,0,6.41,2.89,6.41,6.41c0,3.53-2.89,6.41-6.41,6.41h58.02
				c3.53,0,6.41-2.89,6.41-6.41C745.56,403.97,742.67,401.09,739.15,401.09z"/>
		</g>
		<path class="st3" d="M820.84,426.74H663.72c-3.53,0-6.41-2.89-6.41-6.41l0,0c0-3.53,2.89-6.41,6.41-6.41h157.12
			c3.53,0,6.41,2.89,6.41,6.41l0,0C827.25,423.85,824.36,426.74,820.84,426.74z"/>
		<g>
			<path class="st3" d="M734.55,433.15c0-3.53,2.89-6.41,6.41-6.41h-29.77c-3.53,0-4.56,12.83-1.03,12.83h30.81
				C737.44,439.56,734.55,436.68,734.55,433.15z"/>
			<path class="st3" d="M730.94,426.74H696.2c3.53,0,6.41,2.89,6.41,6.41c0,3.53-2.89,6.41-6.41,6.41h35.54
				C735.27,439.56,734.47,426.74,730.94,426.74z"/>
		</g>
		<path class="st3" d="M749.99,452.39H636.92c-3.53,0-6.41-2.89-6.41-6.41l0,0c0-3.53,2.89-6.41,6.41-6.41h113.07
			c3.53,0,6.41,2.89,6.41,6.41l0,0C756.4,449.5,753.52,452.39,749.99,452.39z"/>
		<path class="st3" d="M798.85,452.39h-23.13c-3.53,0-6.41-2.89-6.41-6.41l0,0c0-3.53,2.89-6.41,6.41-6.41h23.13
			c3.53,0,6.41,2.89,6.41,6.41l0,0C805.26,449.5,802.38,452.39,798.85,452.39z"/>
		<path class="st3" d="M632.11,426.74h8.02c3.53,0,6.41-2.89,6.41-6.41l0,0c0-3.53-2.89-6.41-6.41-6.41h-8.02
			c-3.53,0-6.41,2.89-6.41,6.41l0,0C625.7,423.85,628.58,426.74,632.11,426.74z"/>
	</g>
	<g>
		<path class="st4" d="M1262.97,503.9c0,0,0.01,77.02,0.64,102.73c0,0.01,0,0.03,0,0.03c-0.21-7.91-0.36-18.26-0.46-29.37h0v-1.78
			h-0.02c-0.18-21.33-0.2-45.02-0.19-59.1v-0.96C1262.96,508.33,1262.97,503.9,1262.97,503.9l-12.13-3.44l-1.49-0.42l-1.41-0.4
			l-0.3-2.71l-0.57-5.2l-0.64-5.8l-0.59-5.4l-1.16-10.57l-1.36,10.57l-0.69,5.4l-0.75,5.8l-0.66,5.2l-0.1,0.78l-2.55-0.73
			l-36.48,9.42c0,0,0.06,4.66,0.13,12.2l0.01,1.04c0,0.78,0.01,1.58,0.02,2.4l-0.03,0.01l0.01,1.22l0.02-0.01
			c0.01,0.73,0.01,1.49,0.02,2.25l-0.05,0.01l0.01,1.22l0.05-0.01c0.01,2.88,0.03,5.98,0.04,9.25l-0.05,0.02l0.01,1.22l0.04-0.01
			c0,0.75,0,1.49,0.01,2.25l-0.06,0.01l0.01,1.22l0.05-0.01c0.01,3.13,0.01,6.39,0,9.73h-0.01l0.01,0.83
			c-0.05,20.1-0.33,42.98-1.19,59.62c-0.55,10.62-1.81,31.03-3.02,50.12l-0.06,0.5l0.03-0.01c-0.47,7.33-0.92,14.45-1.32,20.74
			h-0.02l-0.16,1.21l0.11-0.01c-0.31,4.79-0.59,9.04-0.81,12.48c-2.23-0.03-4.46-0.04-6.69-0.04c0-5.46,0-10.93,0-16.39
			c-25.6,0-51.21,0-76.81,0c0,5.69,0,11.38,0,17.07h-6c-3.03-17.64-6.06-35.27-9.09-52.91c2.08-0.19,3.56-0.43,4.21-0.69
			c0.14,0,0.28,0,0.43,0c0.78-4.69,1.57-9.38,2.35-14.07c-0.08,0-0.15,0-0.23,0c0.15-0.1,0.23-0.2,0.23-0.32v-1.1
			c0-0.42-1.07-0.75-2.39-0.75h-2.53c0.87-0.73,1.46-1.95,1.46-3.32c0-2.25-1.54-4.07-3.45-4.07c-1.91,0-3.45,1.82-3.45,4.07
			c0,1.37,0.58,2.58,1.46,3.32h-1.02c-0.51-2.98-1.02-5.96-1.53-8.94h0.91l12.15-4.81v-1.27h-6.49c0.7-0.82,1.14-2.03,1.14-3.39
			c0-2.44-1.42-4.43-3.17-4.43c-1.58,0-2.88,1.62-3.12,3.73c-0.33-1.7-1.82-3.07-3.78-3.55c-0.14-0.82-0.28-1.63-0.42-2.45
			l15.83-4.8v-1.27h-6.77c0.41-0.7,0.71-1.53,0.88-2.44c0.46-2.66-0.57-4.94-2.3-5.08c-1.2-0.1-2.42,0.84-3.21,2.31
			c-0.82-0.95-2.07-1.57-3.49-1.57c-1.15,0-2.19,0.41-2.98,1.08c-0.24-1.41-0.48-2.8-0.72-4.2h0.7l17.88-4.8v-1.28h-6.36
			c-0.02-0.91-0.63-2.09-1.76-3.21c-1.91-1.88-4.58-2.89-5.96-2.23c-0.46,0.22-0.71,0.59-0.79,1.07c-0.4-1.7-1.59-2.92-3.01-2.92
			c-0.64,0-1.25,0.26-1.74,0.7v-5.56h-2.1c-0.03-0.17-0.06-0.33-0.08-0.49v-26.77h-1.27v26.77c-0.03,0.16-0.05,0.33-0.09,0.49h-2.06
			v12.02c-0.01,0.04-0.02,0.09-0.02,0.14h-2.95c0.83-0.76,1.36-1.88,1.36-3.13c0-2.3-1.8-4.17-4-4.17c-1.53,0-2.86,0.9-3.53,2.21
			c-0.38-1.31-1.13-2.21-1.99-2.21c-1.24,0-2.25,1.87-2.25,4.17c0,1.25,0.29,2.36,0.76,3.13h-7.04v1.28l18.58,4.8
			c-0.57,3.3-1.14,6.6-1.7,9.9h-1.94c0.57-0.73,0.92-1.66,0.92-2.69c0-2.25-1.65-4.09-3.67-4.09c-1.86,0-3.38,1.54-3.63,3.52
			c-0.08-1.99-0.54-3.52-1.11-3.52c-0.62,0-1.12,1.83-1.12,4.09c0,1.03,0.1,1.97,0.28,2.69h-6.6v1.27l15.84,4.8
			c-0.13,0.77-0.27,1.53-0.4,2.3c-0.2-0.02-0.39-0.04-0.59-0.04c-1.61,0-3.04,0.73-3.9,1.86c-0.53-1.12-1.4-1.86-2.37-1.86
			c-1.6,0-2.9,1.99-2.9,4.43c0,1.35,0.4,2.57,1.04,3.39h-6.71v1.27l13.06,4.77c-0.12,0.7-0.24,1.39-0.36,2.1
			c-2.07,0.39-3.6,1.84-3.6,3.57c0,1.38,0.98,2.59,2.43,3.22c-0.01,0.04-0.01,0.07-0.01,0.1H1065c-1.32,0-2.38,0.33-2.38,0.75v1.1
			c0,0.12,0.08,0.22,0.23,0.32c-0.08,0-0.15,0-0.23,0c0.79,4.69,1.57,9.38,2.36,14.07c0.14,0,0.29,0,0.43,0
			c0.65,0.26,2.14,0.5,4.21,0.69c-1.31,7.62-2.62,15.23-3.93,22.85c-14.77,0-29.42,0-44.23,0c0-7.13,0-14.01,0-20.87
			c-0.33-0.11-0.5-0.23-0.66-0.23c-15.53,0.06-31.06,0.18-46.58,0.18c-40.46-0.02-80.92-0.09-121.38-0.19
			c-1.39,0-1.89,0.37-1.87,2.07c0.08,5.59,0,11.19,0.08,16.78c0.03,1.68-0.32,2.31-1.88,2.29c-12.91-0.13-25.82-0.15-38.73-0.19
			c-0.51-0.01-1.01,0.07-1.66,0.12c0,1.9,0,3.7,0,5.54c-0.35-0.51-0.77-0.81-1.22-0.81c-1.08,0-1.96,1.65-2.08,3.77
			c-3.28,0-6.54,0-9.83,0c0-0.07,0.01-0.12,0.01-0.19c0-2.68-0.94-4.86-2.1-4.86c-1.16,0-2.1,2.18-2.1,4.86
			c0,0.58,0.04,1.13,0.13,1.64c-3.02-1.45-6.96-2.61-11.46-3.37V660.7h1.26v-1.28h-2.52v-2.65c0.82-0.53,1.4-1.82,1.4-3.31
			c0-1.98-1-3.58-2.24-3.58c-1.23,0-2.23,1.6-2.23,3.58c0,0.95,0.23,1.83,0.62,2.48h-3.7v-3.49h-3.15c0.55-0.87,0.91-2.21,0.91-3.71
			c0-2.61-1.06-4.73-2.37-4.73c-1.32,0-2.38,2.11-2.38,4.73c0,1.5,0.36,2.85,0.91,3.71h-3.43v3.49h-4.02
			c0.41-0.65,0.66-1.52,0.66-2.48c0-1.98-1.06-3.58-2.38-3.58c-1.31,0-2.37,1.6-2.37,3.58c0,1.76,0.84,3.22,1.96,3.52v2.44h-3.36
			v1.28h2.66v12.32c-3.55,0.59-6.73,1.43-9.39,2.48c0.01-0.25,0.02-0.5,0.02-0.76c0-2.68-0.81-4.86-1.82-4.86
			c-0.48,0-0.91,0.5-1.23,1.31l0.09-41.77l-2.26-0.01l4.92,0.02l0.01-2.3l-16.17-0.04c-1.79-4.02-5.32-9.32-5.32-9.32
			c-0.29-0.48-0.56-0.75-0.8-1.1c-1.93-2.78-10.27-5.42-10.27-5.42l-1.49-3.67h-0.09c0.27-0.52,0.53-1.07,0.76-1.69
			c0.09,0.13,0.2,0.21,0.33,0.24c0.65,0.13,1.39-1.27,1.67-3.13c0.28-1.86-0.02-3.47-0.67-3.61c-0.09-0.02-0.19,0-0.28,0.04
			c0-0.65-0.06-1.25-0.17-1.76c0.03,0.01,0.06,0.03,0.09,0.05c-0.04-2.44-0.73-4.65-1.86-6.37c-0.3-0.93-0.76-2.39-0.97-3.03
			c-0.21-0.64-0.61-1.23-1.17-1.71c0-0.29-0.02-0.62-0.07-0.99c-0.24-1.67-0.83-2.65-1.55-3.06c-0.74-0.41-1.51,1.27-1.56,2.91
			c-0.13,0-0.25-0.02-0.38-0.02c-0.13,0-0.25,0.02-0.38,0.02h-0.04c-0.07,0.01-0.13,0.01-0.2,0.01c-0.04-1.65-0.81-3.34-1.55-2.93
			c-0.72,0.4-1.32,1.38-1.57,3.04c-0.07,0.49-0.08,0.87-0.06,1.22c-0.44,0.43-0.76,0.94-0.96,1.48c-0.23,0.63-0.82,2.06-1.18,2.94
			c-1.18,1.73-1.91,3.98-1.96,6.45c0.05-0.04,0.12-0.08,0.18-0.11c-0.12,0.45-0.16,0.97-0.18,1.52c-0.11-0.06-0.23-0.1-0.34-0.08
			c-0.65,0.13-0.95,1.75-0.68,3.61c0.27,1.87,1.02,3.27,1.66,3.14c0.05-0.01,0.09-0.04,0.14-0.06c0.22,0.65,0.47,1.26,0.75,1.85
			h-0.11l-1.21,3.47h-0.04c0,0-1.48,0.46-3.33,1.2c-1.13,0.41-2.41,0.95-3.56,1.63c-1.47,0.78-2.77,1.65-3.39,2.55
			c-0.24,0.34-0.52,0.62-0.81,1.1c0,0-0.92,1.56-2.06,3.62l-3.16-5.16c-0.44-0.72-1.02-1.37-1.67-1.81l0.11-0.92
			c0.09-0.73-0.28-1.41-0.82-1.51c-0.54-0.1-1.05,0.41-1.13,1.13l-0.09,0.73c-0.78,0.06-1.6,0.48-2.39,1.44
			c-0.01,0.02-0.03,0.04-0.04,0.06c-0.41-0.57-0.79-1.17-0.94-1.77l0,0l-0.78-5.16c-0.1-0.67-0.59-1.09-1.09-0.95
			c-0.5,0.16-0.82,0.82-0.72,1.5l0.18,1.2c-0.09,0.05-0.16,0.12-0.21,0.23l-2.15,4.61c-0.15,0.33-0.02,0.8,0.28,1.16l-0.45,0.49
			c-0.26,0.29-0.22,0.96,0.1,1.48c0.13,0.22,0.29,0.37,0.45,0.46l-0.44,0.78l-0.01,0.02c-0.02,0.02-0.02,0.05-0.04,0.08l-0.08,0.15
			c0,0,0,0.01,0,0.02c-0.07,0.23-0.05,0.55,0.06,0.85c0.3,1.45,1.6,2.87,2.55,3.67c0.21,0.18,0.57,0.37,0.96,0.55
			c0,0.83,0.11,1.56,0.33,2.56l-10.6-0.02l0,2.3l4.5,0.01l-0.12,54.53c-6.62,0.05-13.25,0.03-19.91-0.19c0-30.84,0-61.67,0-92.54
			c-1.69-0.12-2.99-0.22-4.6-0.33c-0.12-1.21-0.24-2.4-0.36-3.69c-1.05-0.06-2-0.12-2.92-0.18c-0.77-7.91-4.7-15.14-6.91-22.68
			c-0.09-0.33-0.17-0.66-0.26-0.97c2.2-1.14,4.34-2.22,6.44-3.34c3.87-2.07,4.79-5.31,5.4-8.57c0.14-0.76-0.7-1.83-1.49-2.47
			c-3.71-3-7.81-5.61-13.61-6.22c0.38-0.58,0.69-1.04,0.98-1.5c-0.23,0.08-0.46,0.16-0.69,0.25c-2.51-3.85-5.02-7.69-7.69-11.79
			c0.05,2.04-1.16,3.27-3.17,4.41c-1.22,0.69-1.78,2.28-2.2,3.54c-0.7,2.1-1.04,4.26-1.55,6.46c0.33,0.25,0.91,0.66,1.48,1.07
			c-0.52,0.39-0.97,1-1.58,1.14c-3.39,0.73-4.77,2.61-5.34,5.07c-0.23,1-0.52,2.02-1.02,2.96c-0.76,1.41-2.77,1.83-4.1,0.76
			c-1.04-0.85-1.98-1.99-2.27-3.11c-0.94-3.52-1.56-7.1-2.31-10.71c-1.09,0-2.03,0-3.23,0c0.67,3.62,1.33,7.11,1.97,10.61
			c0.15,0.85,1.01,1.84-0.99,2.27c-0.28,0.07-0.43,1.61-0.02,2.23c0.68,1.05,1.87,1.89,2.8,2.85c0.34,0.35,0.64,0.78,0.74,1.2
			c1.88,8.54,3.72,17.09,5.61,25.76c-0.86,0.14-1.59,0.26-2.41,0.4c0,0.88,0,1.76,0,2.5c0.71,0.43,1.31,0.78,1.92,1.15
			c-0.8,0.25-1.59,0.67-2.4,0.71c-1.92,0.1-3.86,0.03-6.32,0.03c0,32.64,0,65.08,0,97.62h-0.64v11.28h675.21
			c-1.74-0.05-3.47-0.09-5.21-0.16L1262.97,503.9z M611.49,580.11c-0.14,0.02-0.29,0.03-0.44,0.05c-1.67-6.43-3.34-12.85-4.92-18.96
			c2.5-0.63,4.68-1.18,6.92-1.74C612.54,566.27,612.02,573.19,611.49,580.11z M632.85,550.24c0.28,0.02,0.56,0.03,0.84,0.04
			c0.59,0.49,1.14,1.04,1.81,1.47c0.59,0.38,1.31,0.65,2.22,1.08c-0.62,1.41-0.99,2.91-1.96,4.12c-0.38,0.48-2.13,0.31-4.1,0.53
			C632.09,554.83,632.47,552.53,632.85,550.24z M670.74,640.67l0.03-11.42l-0.81,0h0.81v0l5.14,0.01l0.21,0.35L670.74,640.67z
			 M741.49,654.59l0.03-13.76l-5.91-11.44l5.94,0.01L741.49,654.59z M828.16,674.84h-10.25v-5.33h10.25V674.84z M839.29,674.84
			h-10.25v-5.33h10.25V674.84z M850.41,674.84h-10.25v-5.33h10.25V674.84z M872.56,674.55h-10.25v-5.34h10.25V674.55z
			 M883.68,674.55h-10.24v-5.34h10.24V674.55z M894.81,674.55h-10.25v-5.34h10.25V674.55z M929.52,674.34h-10.25V669h10.25V674.34z
			 M940.64,674.34h-10.25V669h10.25V674.34z M951.76,674.34h-10.25V669h10.25V674.34z M986.69,674.12h-10.25v-5.34h10.25V674.12z
			 M997.81,674.12h-10.25v-5.34h10.25V674.12z M1008.93,674.12h-10.25v-5.34h10.25V674.12z M1031.6,673.83h-10.25v-5.34h10.25
			V673.83z M1042.72,673.83h-10.24v-5.34h10.24V673.83z M1053.84,673.83h-10.25v-5.34h10.25V673.83z"/>
		<path class="st4" d="M1019.97,580.61c-8.59,1.44-17.18,2.96-25.81,3.92c-10.76,1.2-21.55,1.87-32.33,2.77
			c-19.75,1.65-39.48,0.95-59.21-0.38c-5.7-0.39-11.4-0.95-17.05-1.8c-9.13-1.37-18.24-2.94-27.34-4.64
			c-6.09-1.13-12.15-2.57-18.21-3.97c-2.35-0.54-4.66-1.35-7.3-2.13c0.27,0.74,0.36,1.13,0.54,1.44
			c4.03,7.01,7.92,14.15,12.16,20.99c4.51,7.26,4.65,7.14,12.38,7.11c0.24,0,0.48,0,0.71,0c1.7,0,3.41,0,5.16,0
			c0.08,1.66,0.14,3.02,0.18,4.02c48.47,3.21,96.72,3.67,145.08,0c0-0.45,0.06-1.01-0.01-1.55c-0.27-2.08,0.52-2.6,2.21-2.54
			c4.1,0.15,8.2,0.14,12.32,0.04c0.77-0.02,1.81-0.48,2.24-1.15c4.15-6.39,8.23-12.85,12.26-19.35c1.27-2.03,2.35-4.23,3.55-6.41
			c-0.37-0.17-0.48-0.27-0.58-0.25C1033.93,578.03,1026.97,579.45,1019.97,580.61z M990.88,601.79h10.96v1.19h-10.96V601.79z
			 M978.73,601.79h10.95v1.19h-10.95V601.79z M966.68,601.74h10.95v1.19h-10.95V601.74z M954.64,601.74h10.95v1.19h-10.95V601.74z
			 M942.48,601.74h10.95v1.19h-10.95V601.74z M930.48,601.74h10.95v1.19h-10.95V601.74z M918.43,601.74h10.95v1.19h-10.95V601.74z
			 M906.28,601.74h10.95v1.19h-10.95V601.74z M894.34,601.74h10.95v1.19h-10.95V601.74z M882.29,601.74h10.95v1.19h-10.95V601.74z
			 M870.13,601.74h10.95v1.19h-10.95V601.74z M870.13,603.63h10.95v1.19h-10.95V603.63z M881.14,606.71h-10.95v-1.19h10.95V606.71z
			 M882.29,603.63h10.95v1.19h-10.95V603.63z M893.3,606.71h-10.96v-1.19h10.96V606.71z M894.34,603.63h10.95v1.19h-10.95V603.63z
			 M905.35,606.71h-10.95v-1.19h10.95V606.71z M906.28,603.63h10.95v1.19h-10.95V603.63z M917.28,606.71h-10.95v-1.19h10.95V606.71z
			 M918.43,603.63h10.95v1.19h-10.95V603.63z M929.44,606.71h-10.95v-1.19h10.95V606.71z M930.48,603.63h10.95v1.19h-10.95V603.63z
			 M941.49,606.71h-10.95v-1.19h10.95V606.71z M942.48,603.63h10.95v1.19h-10.95V603.63z M953.48,606.71h-10.95v-1.19h10.95V606.71z
			 M954.64,603.63h10.95v1.19h-10.95V603.63z M965.64,606.71h-10.95v-1.19h10.95V606.71z M966.68,603.63h10.95v1.19h-10.95V603.63z
			 M977.69,606.71h-10.95v-1.19h10.95V606.71z M978.73,603.68h10.95v1.19h-10.95V603.68z M989.74,606.77h-10.95v-1.19h10.95V606.77z
			 M990.88,603.68h10.96v1.19h-10.96V603.68z M1001.9,606.77h-10.96v-1.19h10.96V606.77z"/>
		<path class="st4" d="M831.28,619.02c0.26,0.52,0.34,0.77,0.49,0.95c5.64,7.07,11.48,13.9,18.35,19.36c0.91,0.72,2.13,1.3,3.2,1.3
			c56.35,0.06,112.7,0.05,169.06,0c0.82,0,1.82-0.3,2.43-0.89c4.82-4.68,9.6-9.41,14.31-14.23c1.38-1.4,2.52-3.13,4.07-5.1
			C972.25,629.71,901.88,631.3,831.28,619.02z"/>
		<path class="st4" d="M1045.3,566.9c-10.83,1.21-21.69,2.19-32.48,3.79c-2.83,0.42-4.44-0.9-6.3-2.54
			c-0.14-0.12-0.25-0.31-0.4-0.42c-2.65-2.01-4.71-5.52-8.55-4.57c-0.26,0.06-0.99-0.96-0.99-1.47c0.01-2.62,1.14-4.93,3.63-4.9
			c1.08,0.02,1.47-0.87,1.08-2.01c-0.54-1.63-1.15-3.22-1.81-4.78c-0.18-0.41-0.68-0.85-1.04-0.87c-2.3-0.08-4.61-0.04-6.87-0.04
			c-0.59,2.77-0.46,3,1.62,3.06c0.24,0.01,0.52-0.08,0.69,0.06c0.57,0.42,1.25,0.81,1.56,1.43c0.14,0.28-0.39,1.43-0.79,1.59
			c-1.03,0.41-2.15,0.64-3.24,0.64c-0.98,0-1.55,0.26-1.83,1.43c-0.75,3.19-1.56,6.36-2.37,9.64c-0.2,0-0.4,0-0.6,0v-1.47h-1.55
			v1.47c-0.2,0-0.39,0-0.59,0v-1.45h-1.56v1.45c-0.19,0-0.38,0-0.57,0v-1.47h-1.55v1.47c-0.18,0-0.35,0-0.53,0v-1.45h-1.56v1.45
			c-0.19,0-0.38,0-0.57,0v-1.47h-1.55v1.47c-0.2,0-0.4,0-0.59,0v-1.45h-1.55v1.45c-0.2,0-0.38,0-0.58,0v-1.47h-1.56v1.47
			c-0.18,0-0.35,0-0.54,0v-1.45h-1.55v1.45c-0.2,0-0.38,0-0.57,0v-1.47h-1.55v1.47c-0.2,0-0.39,0-0.59,0v-1.45h-1.55v1.45
			c-0.19,0-0.38,0-0.58,0v-1.47h-1.56v1.47c-0.18,0-0.35,0-0.53,0v-1.45h-1.56v1.45c-0.19,0-0.38,0-0.57,0v-1.47h-1.56v1.47
			c-0.2,0-0.39,0-0.59,0v-1.45h-1.55v1.45c-0.19,0-0.38,0-0.57,0v-1.47h-1.55v1.47c-0.2,0-0.4,0-0.6,0v-1.45h-1.55v1.45
			c-0.19,0-0.38,0-0.57,0v-1.47h-1.55v1.47c-0.2,0-0.39,0-0.59,0v-1.45h-1.55v1.45c-0.19,0-0.39,0-0.58,0v-1.47h-1.56v1.47
			c-0.18,0-0.35,0-0.53,0v-1.45h-1.56v1.45c-0.19,0-0.38,0-0.57,0v-1.47h-1.55v1.47c-0.2,0-0.39,0-0.59,0v-1.45h-1.55v1.45
			c-0.19,0-0.38,0-0.57,0v-1.47h-1.55v1.47c-0.18,0-0.36,0-0.54,0v-1.45h-1.55v1.45c-0.2,0-0.39,0-0.58,0v-1.47h-1.55v1.47
			c-0.19,0-0.39,0-0.59,0v-1.45h-1.55v1.45c-0.19,0-0.38,0-0.57,0v-1.47h-1.56v1.47c-0.18,0-0.36,0-0.53,0v-1.45h-1.55v1.45
			c-0.19,0-0.38,0-0.57,0v-1.47h-1.56v1.47c-0.2,0-0.39,0-0.59,0v-1.45h-1.55v1.45c-0.19,0-0.38,0-0.57,0v-1.47h-1.56v1.47
			c-0.18,0-0.36,0-0.53,0v-1.51h-1.56v1.51c-0.19,0-0.38,0-0.57,0v-1.53h-1.55v1.53c-0.2,0-0.4,0-0.59,0v-1.51h-1.55v1.51
			c-0.19,0-0.38,0-0.57,0v-1.53h-1.55v1.53c-0.18,0-0.36,0-0.54,0v-1.51h-1.56v1.51c-0.19,0-0.39,0-0.58,0v-1.53h-1.55v1.53
			c-0.2,0-0.39,0-0.59,0v-1.51h-1.56v1.51c-0.19,0-0.38,0-0.57,0v-1.53h-1.55v1.53c-0.16,0-0.32,0-0.48,0v-1.51h-1.56v1.51
			c-0.19,0-0.38,0-0.57,0v-1.53h-1.56v1.53c-0.2,0-0.39,0-0.59,0v-1.51H898v1.51c-0.19,0-0.38,0-0.57,0v-1.53h-1.56v1.53
			c-0.18,0-0.36,0-0.53,0v-1.51h-1.56v1.51c-0.19,0-0.38,0-0.57,0v-1.53h-1.55v1.53c-0.2,0-0.39,0-0.59,0v-1.51h-1.56v1.51
			c-0.19,0-0.38,0-0.57,0v-1.53h-1.56v1.53c-0.2,0-0.4,0-0.6,0c0-1.56,0.11-3.02-0.03-4.46c-0.14-1.43-0.57-2.83-0.78-4.26
			c-0.23-1.62-0.83-2.12-2.31-1.96c-1.07,0.12-2.24-0.46-3.27-1c-0.31-0.16-0.51-1.24-0.38-1.77c0.09-0.4,0.78-0.77,1.24-0.83
			c0.97-0.12,1.97-0.04,2.96-0.04c0-1.18,0-2.06,0-3.19c-1.15,0-2.21-0.01-3.26,0c-4.88,0.02-4.88,0.02-6.57,5.33
			c-0.02,0.07-0.05,0.13-0.07,0.19c-0.5,1.4-0.06,2.1,1.18,2.29c2.15,0.33,3.18,1.74,3.29,4.28c0.04,1.13-0.26,1.9-1.27,1.65
			c-2.84-0.7-4.77,1.21-6.62,3.18c-2.99,3.17-6.04,5-10.45,4.15c-6.91-1.34-13.95-1.7-20.94-2.5c-3.47-0.4-6.93-0.84-10.68-1.29
			c0.75,2.1,1.2,3.64,3.2,3.84c2.29,0.24,4.54,1.05,6.82,1.53c10.64,2.26,21.23,4.97,31.93,6.6c13.49,2.06,27.07,3.86,40.64,4.66
			c26.33,1.56,52.66,1.03,78.9-2.37c6.97-0.9,13.97-1.63,20.92-2.76c10.19-1.66,20.34-3.63,30.5-5.46c2.32-0.41,4.29-2.85,4.65-5.87
			C1046,566.89,1045.65,566.86,1045.3,566.9z"/>
		<path class="st4" d="M1047.6,605.97c-1.4,0.51-2.32,1.02-3.29,1.18c-5.23,0.88-10.45,2.02-15.72,2.44
			c-14.29,1.12-28.61,2.14-42.93,2.76c-17.71,0.78-35.44,1.6-53.15,1.51c-28.38-0.14-56.74-1.53-85.03-4.23
			c-6.47-0.61-13.05-0.76-19.52-3.66c0,2.73,0.04,5.17-0.01,7.6c-0.03,1.41,0.47,1.94,1.65,2.1c8.03,1.11,16.04,2.43,24.08,3.41
			c9.99,1.23,19.99,2.58,30.02,3.17c17.99,1.06,36,2.08,54,2.22c26.24,0.2,52.45-1.52,78.6-4.14c9.48-0.95,18.94-2.1,28.41-3.21
			c0.58-0.07,1.28-0.47,1.65-0.98C1048.54,613.09,1047.09,609.57,1047.6,605.97z"/>
		<path class="st4" d="M1121.11,420.46c4.13,0,8.01-0.09,11.88,0.07c1.08,0.04,2.36,0.57,3.15,1.34c3.22,3.22,6.37,6.55,9.38,10
			c0.77,0.89,1.33,2.39,1.31,3.58c-0.93,51.01-1.93,102.02-2.91,153.03c-0.02,0.95-0.01,1.88-0.01,2.99c5.81,0,11.32,0,16.96,0
			c0-1.05,0.01-1.93,0-2.81c-0.97-50.93-1.93-101.86-2.96-152.79c-0.04-2.07,0.49-3.49,1.89-4.88c2.78-2.76,5.49-5.64,8.09-8.61
			c1.24-1.42,2.52-2.03,4.36-1.96c3.77,0.16,7.55,0.05,11.3,0.05c0-14.48,0-28.61,0-42.82c-20.86,0-41.6,0-62.43,0
			C1121.11,391.91,1121.11,406.04,1121.11,420.46z M1179.54,379.32h2.27v17.88h-2.27V379.32z M1179.54,399.05h2.27v18.96h-2.27
			V399.05z M1175.96,379.4h2.27v17.8h-2.27V379.4z M1175.96,399.05h2.27v19.03h-2.27V399.05z M1172.17,379.4h2.27v17.8h-2.27V379.4z
			 M1172.17,399.05h2.27v19.03h-2.27V399.05z M1168.29,379.4h2.27v17.8h-2.27V379.4z M1168.29,399.05h2.27v19.03h-2.27V399.05z
			 M1164.7,379.4h2.26v17.8h-2.26V379.4z M1164.7,399.05h2.26v19.03h-2.26V399.05z M1160.91,379.4h2.27v17.8h-2.27V379.4z
			 M1160.91,399.05h2.27v19.03h-2.27V399.05z M1157.04,379.4h2.26v17.8h-2.26V379.4z M1157.04,399.05h2.26v19.03h-2.26V399.05z
			 M1153.35,379.4h2.26v17.8h-2.26V379.4z M1153.35,399.05h2.26v19.03h-2.26V399.05z M1149.56,379.4h2.27v17.8h-2.27V379.4z
			 M1149.56,399.05h2.27v19.03h-2.27V399.05z M1145.69,379.4h2.27v17.8h-2.27V379.4z M1145.69,399.05h2.27v19.03h-2.27V399.05z
			 M1141.91,379.48h2.26v17.72h-2.26V379.48z M1141.91,399.05h2.26v19.11h-2.26V399.05z M1138.12,379.48h2.27v17.72h-2.27V379.48z
			 M1138.12,399.05h2.27v19.11h-2.27V399.05z M1134.24,379.48h2.28v17.72h-2.28V379.48z M1134.24,399.05h2.28v19.11h-2.28V399.05z
			 M1130.45,379.48h2.27v17.72h-2.27V379.48z M1130.45,399.05h2.27v19.11h-2.27V399.05z M1126.67,379.48h2.27v17.72h-2.27V379.48z
			 M1126.67,399.05h2.27v19.11h-2.27V399.05z M1122.8,379.48h2.27v17.72h-2.27V379.48z M1122.8,399.05h2.27v19.11h-2.27V399.05z"/>
		<path class="st4" d="M1166.21,593.57c-9.41,0-18.57,0-27.88,0c0,10.58,0,20.96,0,31.45c-0.94,0.08-1.73,0.14-2.51,0.2
			c0,9.82,0,19.44,0,29.01c11.3,0,22.44,0,33.55,0c0-9.76,0-19.33,0-29.03c-1-0.05-1.89-0.1-3.16-0.17
			C1166.21,614.38,1166.21,603.94,1166.21,593.57z"/>
		<path class="st4" d="M1130.35,375.48c14.71,0,29.25,0,43.98,0c0-10.02,0-20.04,0-30.06c-14.73,0-29.37,0-43.98,0
			C1130.35,355.53,1130.35,365.48,1130.35,375.48z"/>
		<path class="st4" d="M1118.39,675.78c22.67,0,45.24,0,67.91,0c0-3.51,0-6.9,0-10.44c-22.77,0-45.33,0-67.91,0
			C1118.39,668.91,1118.39,672.29,1118.39,675.78z"/>
		<path class="st4" d="M1126.62,663.57c17.04,0,33.96,0,50.99,0c0-2.37,0-4.61,0-7.01c-17.12,0-34.05,0-50.99,0
			C1126.62,658.98,1126.62,661.21,1126.62,663.57z"/>
		<path class="st4" d="M1147.42,322.15c3.39,0,6.93,0,10.24,0c0-7.81,0-15.48,0-23.12c-3.57,0-6.73,0-10.24,0
			C1147.42,306.82,1147.42,314.44,1147.42,322.15z"/>
		<path class="st4" d="M1146.77,343.42c3.86,0,7.77,0,11.42,0c0-6.81,0-13.41,0-20.01c-3.96,0-7.51,0-11.42,0
			C1146.77,330.11,1146.77,336.67,1146.77,343.42z"/>
		<path class="st4" d="M1151.39,224.65c-0.57,18.29-1.01,36.6-1.52,54.99c2.05,0,3.78,0,5.84,0c-1.06-18.5-2.09-36.73-3.13-54.98
			C1152.18,224.66,1151.78,224.66,1151.39,224.65z"/>
		<path class="st4" d="M1148.09,297.75c2.98,0,6.07,0,9.06,0c0-5.79,0-11.27,0-16.84c-3.12,0-5.9,0-9.06,0
			C1148.09,286.55,1148.09,292.11,1148.09,297.75z"/>
	</g>
	<circle class="st5" cx="992.69" cy="261.76" r="48.83"/>
	<g class="st2">
		<path class="st3" d="M1410.69,430.84h-157.12c-3.53,0-6.41-2.89-6.41-6.41l0,0c0-3.53,2.89-6.41,6.41-6.41h157.12
			c3.53,0,6.41,2.89,6.41,6.41l0,0C1417.1,427.95,1414.22,430.84,1410.69,430.84z"/>
		<g>
			<path class="st3" d="M1338.67,437.25c0-3.53,2.89-6.41,6.41-6.41h-29.77c-3.53,0-4.56,12.83-1.03,12.83h30.81
				C1341.56,443.66,1338.67,440.78,1338.67,437.25z"/>
			<path class="st3" d="M1335.06,430.84h-34.74c3.53,0,6.41,2.89,6.41,6.41c0,3.53-2.89,6.41-6.41,6.41h35.54
				C1339.39,443.66,1338.58,430.84,1335.06,430.84z"/>
		</g>
		<path class="st3" d="M1354.11,456.49h-113.07c-3.53,0-6.41-2.89-6.41-6.41l0,0c0-3.53,2.89-6.41,6.41-6.41h113.07
			c3.53,0,6.41,2.89,6.41,6.41l0,0C1360.52,453.6,1357.63,456.49,1354.11,456.49z"/>
		<path class="st3" d="M1402.97,456.49h-23.13c-3.53,0-6.41-2.89-6.41-6.41l0,0c0-3.53,2.89-6.41,6.41-6.41h23.13
			c3.53,0,6.41,2.89,6.41,6.41l0,0C1409.38,453.6,1406.49,456.49,1402.97,456.49z"/>
	</g>
</g>
</svg>
