<?xml version="1.0" encoding="utf-8"?>
<!-- Generator: Adobe Illustrator 26.2.0, SVG Export Plug-In . SVG Version: 6.00 Build 0)  -->
<svg version="1.1" id="Layer_1" xmlns="http://www.w3.org/2000/svg" xmlns:xlink="http://www.w3.org/1999/xlink" x="0px" y="0px"
	 viewBox="0 0 600 550" style="enable-background:new 0 0 600 550;" xml:space="preserve">
<style type="text/css">
	.st0{fill:#B3DCF6;}
	.st1{fill:#FFFFFF;stroke:#C9EAF3;stroke-width:2.4579;stroke-linecap:round;stroke-linejoin:round;stroke-miterlimit:10;}
</style>
<g>
	<g>
		<path class="st0" d="M556.33,304.58c-1.23-7.32-4.56-14.52-0.81-22.46c1.47-3.11-0.37-7.85-0.99-11.8
			c-0.1-0.63-1.78-0.97-2.68-1.52c-2.07-1.29-5.12-2.18-5.93-4.04c-1.39-3.21-0.21-6.38,3.44-8.22c1.46-0.73,2.5-2.3,3.74-3.49
			c-0.31-0.32-0.62-0.64-0.93-0.95c-0.25,0.15-8.05-3.62-8.3-3.47l-24.55,23.88c-2.35,1.37-5.02,2.15-7.74,2.25l-7.65,0.28
			c-3.83,0.14-7.47,1.45-10.51,3.78l-13.79,10.57c-1.56,1.2-2.68,2.9-3.17,4.81l-3.53,13.95c-0.25,1.01-0.6,1.99-1.03,2.93
			c-0.16,0.35-0.33,0.7-0.51,1.04l-7.5,14.07l-13.12,15.7c-0.13,0.16-0.27,0.31-0.41,0.47c-1.62,1.8-3.6,3.21-5.8,4.15
			c-1.81,0.78-3.76,1.24-5.76,1.35l-1.24,0.06l-15.41,0.77l-0.58,0.03l-1.4-0.23l-4.2-0.69l-1.98-0.32l-5.83-0.95l-0.71-0.43
			c-5.06-3.07-19.35-11.35-24.59-12.75c-8.54-2.29-16.59-2.07-21.84-1.48c-3.06,0.34-5.98,1.72-8.24,3.87l-7.63,7.29l-21.22,20.25
			c-3.68,3.51-8.51,5.45-13.6,5.45h-1.55h-11.07h-0.13h-0.98c-4,0-7.77-1.55-10.61-4.35l-1.27-1.25l-3.38-3.33l-8.56-8.44
			c-0.45,0.12-8.11-3.12-8.63-3c-3.05,0.72-0.08,4.83-4.49,4.83c-4.27,0-8.74-0.7-12.55-2.78c-0.77-0.42-1.51-0.89-2.21-1.42
			c-10.74-8.16-11.63-20.73-11.32-26.99l-11.64-4.86l-19.41-10.34c-0.96-0.51-1.85-1.14-2.66-1.86l-15.68-14.1l-14.14-12.72
			c-1.16-1.04-2.13-2.26-2.88-3.63l-3.6-6.56l-6.6-7.62l-17.53-10.1l-8.14-10.98l-8.31-6.73l-10.38-13.43l-34.66-19.18
			c-0.12-0.03,0.15,0.04,0,0c1.64,2.24,9.2,4.99,10.29,6.47c-4.99,3.4-4.02,7.92-2.72,12.52c0.39,1.37,0.99,2.77,0.96,4.15
			c-0.08,3.94,1.85,8.7-2.45,11.35c-6.65,4.1-8.39,10.27-8.41,17.33c-0.01,4.07-1.65,6.65-5.66,7.44c-7,1.39-9.73,6.17-10.54,12.69
			c-0.27,2.19-0.85,4.35-1.39,6.5c-0.26,1.04-0.55,2.65-1.23,2.91c-7.26,2.69-5.85,7.19-2.82,12.19c0.39,0.64,0.57,1.53,0.55,2.29
			c-0.13,4.46,2.53,6.23,6.36,7.56c8.8,3.06,11.74,5.05,14.07,16.6c0.79,3.92,10.46,4.15,12.7,0.8c5.01-7.5,11.46-10.1,20.48-8.11
			c1.3,0.29,2.44,0.61,3.44,1.02c3.34,1.35,4.97,3.57,4.98,8.2c0.01,5.39-0.1,10.77,0.01,16.16c0.15,7.59,0.52,15.14-4.1,21.91
			c-0.21,0.3-0.3,0.79-0.31,1.33c-0.01,1.17,0.39,2.63,1.01,3.15c2.36,2,2.09,4.04,1.12,6.34c-2.41,5.67-5.1,11.24-7.22,17.02
			c-0.77,2.09-1.19,5.28-0.13,6.91c5.35,8.28,5.14,16.1-0.61,23.94c-0.09,0.13-0.16,0.28-0.2,0.43c-0.86,2.77-11.22,4.24-12.08,7.02
			c-0.13,0.42,9.25,2.13,9.12,2.55c3.83,0.26,7.67,0.54,11.51,0.76c0.44,0.03,0.9-0.42,1.35-0.41c3.84,0.1,7.67,0.38,11.51,0.35
			c3.87-0.03,9.46,1.23,11.32-0.8c7.38-8.05,18.16-13.35,20.99-25.45c0.59-2.51,4.89-5.59,7.67-5.79c3.26-0.23,5.83,2.79,5.94,7.12
			c0.02,0.86,0.12,1.72,0.28,2.58c0.41,2.36,1.22,4.72,1.93,7.02c2.78,9.04,5.63,18.06,8.67,27.02c0.45,1.33,1.95,3.12,3.1,3.23
			c2.96,0.27,3.5,2.07,4.09,4.32c2.7,10.26-2.54,22.05,0.22,32.29c2.65,9.84,10.66,8.28,20.89,8.8c8.84,0.44,13.92-2.72,17.31-10.75
			c0.31-0.73,0.47-1.72,1.04-2.1c0.86-0.58,1.75-1.28,2.65-1.87c1.02-0.67,2.05-1.2,3.1-1.24c2.44-0.11,5.01,0.61,6.08,4.02
			c2.7,8.59,6.58,11,15.7,10.67c5.69-0.2,11.38-0.35,17.07-0.63c1.22-0.06,2.6-0.29,3.58-0.95c7.07-4.72,14.12-9.47,21.04-14.4
			c7.92-5.64,12.8-14.95,21.82-19.32c0.97-0.47,1.99-0.89,3.06-1.23c1.83-0.59,3.42-1.93,5.13-2.92c0.61,1.98-4.8,4.03-3.95,5.89
			c1.1,2.43-2.08,3.42-0.21,4.06c3.1,1.06,17.21,4.43,19.85,0.56c1.24-1.82,2.75-3.48,4.25-5.11c6.27-6.82,12.92-8.83,18.62-6.63
			c1.95,11.74,3.8,22.71,5.58,33.7c0.3,1.86,0.27,3.78,0.57,5.65c0.19,1.2-2.02,5.07-1.23,5.58c9.04,5.91,19.66,11.27,31.61,10.98
			c7.82-0.19,8.33,0.17,9.22-7.82c0.68-6.11,3.35-8.72,9.26-9.29c5.43-0.52,10.11-2.62,11.71-8.67c0.15-0.58,1.08-1.39,1.61-1.36
			c7.4,0.42,7.58-5.56,8.45-10.17c0.49-2.6,1.48-3.59,3.6-4.04c0.57-0.12,1.14-0.24,1.71-0.36c5.24-1.13,10.48-2.32,15.78-3.07
			c4.66-0.66,7.77-2.96,10.18-6.82c0.83-1.33,2.62-3.23,3.67-3.05c1.56,0.26,2.84,0.19,3.91-0.14c3.05-0.93,4.37-3.92,5.44-7.13
			c1.4-4.17,3.75-5.91,8.33-5.68c5.4,0.27,7.57-2.74,8.2-8.12c0.31-2.6,1.77-6.52,3.66-7.2c5.78-2.08,7.96-6.12,9.02-11.53
			c1.09-5.56,0.69-11.83,8.02-14.27c1.11-0.37,1.21-4.82,1.08-7.35c-0.05-0.96-1.95-2.26-3.24-2.63c-4.84-1.4-9.76-2.52-14.66-3.68
			c-3.7-0.88-5.7-2.73-5.48-6.96c0.1-1.91-1.39-3.9-2.32-6.26c4.6-7.59,9.25-15.69,14.36-23.5c2.91-4.45,4.45-9.09,4.01-14.29
			c-0.27-3.15,0.95-4.4,3.89-5.27c8.64-2.57,17.2-5.43,25.76-8.29C555.55,314.88,557.2,309.73,556.33,304.58z"/>
		<path class="st0" d="M245.53,326.96l-6.29-2.63c0.09,5.55,1.55,14.39,9.1,20.12c4.36,3.31,11.01,3.34,15.82,2.78
			c1.36-0.16,2.65-0.37,3.83-0.61l-14.74-14.53C251.03,329.9,248.43,328.17,245.53,326.96z"/>
		<path class="st0" d="M170.6,263.04l4.04,7.35c0.29,0.53,0.66,1,1.11,1.4l29.82,26.81c0.29,0.26,0.62,0.49,0.97,0.68l19.05,10.15
			l23.22,9.69c3.9,1.63,7.41,3.96,10.42,6.93l4.81,4.74l21.22,26.43c1.25,1.23,9.6,3,11.35,3h13.73c2.89,0,5.64-1.1,7.73-3.1
			l28.85-27.54c1.15-1.1,2.42-2.07,3.76-2.9c2.86-1.77,6.08-2.9,9.41-3.27c5.97-0.67,15.16-0.91,24.98,1.72
			c4.6,1.23,13.18,5.82,19.43,9.38c2.97,1.69,5.41,3.14,6.66,3.89l10.9,1.78l16.33-0.82c2.27-0.11,4.41-1.18,5.87-2.93l12.56-15.03
			l7.09-13.29c0.35-0.65,0.61-1.34,0.79-2.05l3.53-13.95c0.5-1.97,1.36-3.84,2.5-5.5c-2.87,1.4-5.69-2.27-8.63-3
			c-0.69-3.08-2.58-2.22-2.98-5.32c-0.24-1.85-0.33-4.26,0.64-5.62c1.98-2.76,2.85-5.63,3.08-8.62c0.16-2.03,0.02-4.12-0.28-6.27
			c-0.14-1.01,0.35-2.3,0.94-3.21c5.09-7.75,14.12-13.41,12.84-24.52c-0.05-0.39,0.53-0.83,0.55-1.27c0.18-3.13,0.23-6.27,0.44-9.39
			c0.17-2.5-0.42-5.75,0.92-7.34c6.1-7.29,6.74-11.79,1.7-19.57c-0.34-0.52-0.84-1.08-0.87-1.64c-0.21-3.82-2.72-4.93-5.97-5.46
			c-1.47-0.24-3.19-1.7-4.46-3.46c-1.26-1.74-2.08-3.77-1.76-5.2c0.29-1.31,1.49-2.92,2.68-3.43c8.16-3.45,10.3-8.7,6.76-16.82
			c-0.8-1.84-1.1-3.93-1.4-5.94c-1.5-9.88-1.47-9.89-11.34-12.25c-1.23-0.29-2.51-0.62-3.75-0.57c-4.57,0.17-6.35-2.58-6.37-6.49
			c-0.02-4.64,0.73-9.28,0.77-13.93c0.03-2.86,1.1-4.57,3.48-6.03c1.46-0.9,3.49-2.64,3.44-3.94c-0.19-5.67,0.82-11.7-4.52-16.2
			c-3.82-3.22-4.82-7.2-0.69-11.3c1.1-1.09,1.9-2.55,2.62-3.95c2.65-5.18,0.23-9.93-5.14-11.47c-3.69-1.06-7.25-2.84-10.56-4.82
			c-3.1-1.85-5.85-4.33-8.66-6.64c-3.34-2.76-11.79-6.51-14.88-4.82c-5.59,3.06-5.95,11.57-11.51,14.7
			c-1.06,0.59-2.44,0.79-3.86,0.78c-1.14-0.01-2.3-0.14-3.34-0.33c-3.62-0.65-7.06-2.21-10.67-2.96c-2.75-0.57-5.63-0.49-8.41-0.7
			c-0.31-1.19-0.54-2.11-0.79-3.02c-1.62-5.89-8.96-9.77-15.13-9.6c-3.16,0.09-0.18,3.09-3.34,3.23
			c-7.7,0.34-11.33,3.21-12.74,10.64c-0.73,3.86-0.76,7.86-1.12,12.01c-1.29,0.48-2.58,0.94-3.87,1.4
			c-3.47,1.23-6.95,2.45-10.26,4.02c-1.81,0.86-3.98,3.01-4.21,4.81c-1.34,10.21-6.08,18.82-11.42,27.32
			c-1.49,2.37-2.25,5.56-2.31,8.39c-0.17,9.18,0.18,18.37,0.25,27.55c0.02,1.93-0.89,4.47-2.15,6.59c-1.29,2.17-2.94,3.91-4.34,4.13
			c-2.45,0.39-4.91,0.69-7.27,0.97c-2.31,0.27-4.51,0.5-6.51,0.74c-0.09,0.01-0.19,0.02-0.28,0.03c0.14-6.01,0.53-12.06,0.28-18.08
			c-0.08-2.05-1.27-4.57-2.79-5.97c-6.29-5.79-12.88-11.24-19.4-16.78c-4.5-3.83-11.72-10.2-14.51-4.76
			c-2.96,5.77-0.31,15.55-7.28,14.4c-1.58-0.26-4.32,0.42-4.95,1.55c-2.15,3.84-5.23,3.9-8.86,3.52c-2.99-0.32-6.01-0.23-9.02-0.43
			c-2.67-0.18-4.22,0.76-4.43,3.62c-0.62,8.53-1.09,17.08-2.06,25.57c-0.67,5.87,1.11,12.44-4.27,17.26
			c-0.63,0.56-0.52,2.09-0.52,3.17c0.01,9.5,0.05,19,0.13,28.5c0.1,12.52-8.95,19.14-20.58,15.04c-1.19-0.42-2.37-1.1-3.59-1.19
			c-0.69-0.05-1.58-0.02-2.3,0.18c-0.47,0.13-0.87,0.32-1.11,0.61c-1.97,2.39-3.34,5.28-5.36,7.61c-2.65,3.07-5.66,8.14-8.59,8.2
			c-7.02,0.14-12.53,2.27-17.71,6.52c-0.75,0.62-2.14,1.16-3.09,1.11c-0.14,0.41-0.3,0.82-0.47,1.22l6.86,3.95L170.6,263.04z"/>
	</g>
	<g>
		<path class="st1" d="M407.35,344.8c1.4,0.29,2.8,0.52,4.2,0.69L407.35,344.8z"/>
		<path class="st1" d="M440.83,340.6c0.3-0.42,0.61-0.83,0.91-1.25c-1.62,1.8-3.6,3.21-5.8,4.15c0.2-0.05,0.39-0.09,0.59-0.14
			C438.11,342.98,439.89,341.9,440.83,340.6z"/>
		<path class="st1" d="M300.16,365.72h-11.07C292.62,366.23,296.33,366.17,300.16,365.72z"/>
		<path class="st1" d="M276.1,360.12l-3.38-3.33C273.8,358.04,274.93,359.15,276.1,360.12z"/>
		<path class="st1" d="M428.95,344.91l-15.41,0.77C418.61,346.09,423.76,345.75,428.95,344.91z"/>
		<path class="st1" d="M227.46,368.61l-0.2,9.06l-4.08,8.57l-12.34,3.02l-4.53,4.03l-1.51,10.58l9.82-5.79l12.34-2.77l3.27-6.3
			h28.78l14.04,4.79l3.78,19.4l9.57,6.3h8.19l6.29-3.04l-1.88-5.02l5.04-28.21l-4.28-9.07l-8.63-0.99l-2.16-7.44h-0.98
			c-4,0-7.77-1.55-10.61-4.35l-1.27-1.25c-1.18-0.97-2.3-2.08-3.38-3.33l-8.56-8.44c-3.08,0.81-7.95,1.83-13.12,1.83
			c-4.27,0-8.74-0.7-12.55-2.78l-8.51,12.66L227.46,368.61z"/>
		<path class="st1" d="M184.64,315.97l0.85,7.91l-9.92,7.71v23.55l10.83,6.42l3.43,18.11l3.87,3.05v17.38l8.31,5.29l2.77-1.51
			l1.51-10.58l4.53-4.03l12.34-3.02l4.08-8.57l0.2-9.06l2.52-8.56l8.51-12.66c-0.77-0.42-1.51-0.89-2.21-1.42
			c-10.74-8.16-11.63-20.73-11.32-26.99l-11.64-4.86l-19.41-10.34c-0.96-0.51-1.85-1.14-2.66-1.86l-15.68-14.1v10.51L184.64,315.97z
			"/>
		<path class="st1" d="M461.66,420.19l-2.27-14.55l-11.15-6.61l-1.89-5.67l-3.21-3.4l-15.87-2.46l-9.64-4.91l-7.75-6.23l-4.16-8.12
			l-0.37-23.76l-5.83-0.95l-0.71-0.43c-5.06-3.07-19.35-11.35-24.59-12.75c-8.54-2.29-16.59-2.07-21.84-1.48
			c-3.06,0.34-5.98,1.72-8.24,3.87l-7.63,7.29l7.31,12.98l2.27,14.86l5.81,5.52l1.24,21.18l9.57,10.33l8.31,3.27l5.19,5.97
			l2.12,16.45l3.53,9.32l9.07-3.02l8.82-0.76l4.28-7.81l7.56-2.52h9.82l4.53,3.78l-0.5,9.32l5.01,6.05l6.32,3.53l5.41,10.36
			c5.24-1.13,10.48-2.32,15.78-3.07c4.66-0.66,7.77-2.96,10.18-6.82c0.83-1.33,2.62-3.23,3.67-3.05c1.56,0.26,2.84,0.19,3.91-0.14
			l-3.69-10.06L461.66,420.19z"/>
		<path class="st1" d="M300.88,416.46l-6.29,3.04h-8.19l-9.57-6.3l-3.78-19.4l-14.04-4.79h-28.78l-3.27,6.3l-12.34,2.77l-9.82,5.79
			l3.53,4.41l5.04,2.9l-0.25,12.85l2.77,23.93l4.03,7.3l5.29,1.01l2.02,7.56l-2.22,8.04c1.02-0.67,2.05-1.2,3.1-1.24
			c2.44-0.11,5.01,0.61,6.08,4.02c2.7,8.59,6.58,11,15.7,10.67c5.69-0.2,11.38-0.35,17.07-0.63c1.22-0.06,2.6-0.29,3.58-0.95
			c7.07-4.72,14.12-9.47,21.04-14.4c7.92-5.64,12.8-14.95,21.82-19.32l-12.87-25.99L300.88,416.46z"/>
		<path class="st1" d="M116.62,299.88l3.79,5l7.05,17.13l7.81,4.03l7.05,1.26l9.07-3.53l6.55-10.96l0.25-10.71l4.03-6.05l6.05,3.27
			l7.3-1.01v-10.51l-14.14-12.72c-1.16-1.04-2.13-2.26-2.88-3.63l-3.6-6.56l-6.6-7.62l-17.53-10.1l-8.14-10.98l-8.31-6.73
			l-10.38-13.43l-26.03-16.18c-0.12-0.03-0.26-0.06-0.4-0.1c1.64,2.24,0.98,2.09,2.07,3.57c-4.99,3.4-4.02,7.92-2.72,12.52
			c0.39,1.37,0.99,2.77,0.96,4.15c-0.08,3.94,1.85,8.7-2.45,11.35c-6.65,4.1-8.39,10.27-8.41,17.33c-0.01,4.07-1.65,6.65-5.66,7.44
			c-7,1.39-9.73,6.17-10.54,12.69c-0.27,2.19-0.85,4.35-1.39,6.5c-0.26,1.04-0.55,2.65-1.23,2.91c-7.26,2.69-5.85,7.19-2.82,12.19
			c0.39,0.64,0.57,1.53,0.55,2.29c-0.13,4.46,2.53,6.23,6.36,7.56c8.8,3.06,18.43,5.06,20.75,16.61c0.79,3.92,3.78,4.14,6.02,0.78
			c5.01-7.5,11.46-10.1,20.48-8.11c1.3,0.29,2.44,0.61,3.44,1.02l5.36-10.49L116.62,299.88z"/>
		<path class="st1" d="M547.71,301.58c-1.23-7.32-4.56-14.52-0.81-22.47c1.47-3.11-0.37-7.85-0.99-11.8
			c-0.1-0.63-1.78-0.97-2.68-1.52c-2.07-1.29-5.12-2.18-5.93-4.04c-1.39-3.21-0.21-6.38,3.44-8.22c1.46-0.73,2.5-2.3,3.74-3.49
			c-0.31-0.32-0.62-0.64-0.93-0.95c-0.25,0.15-0.5,0.3-0.75,0.45l0.51,0.87l-32.6,19.09c-2.35,1.37-5.02,2.15-7.74,2.25l-7.65,0.28
			c-3.83,0.14-7.47,1.45-10.51,3.78l-13.79,10.57c-1.56,1.2-2.68,2.9-3.17,4.81l-3.53,13.95c-0.25,1.01-0.6,1.99-1.03,2.93l2.6,3.23
			l5.09,0.94l1.08,3.72l-1.51,6.93l-2.9,8.06l7.32,6.27l1.88,7.97l9.45,1.26l3.65,3.53l5.29,1.26l3.9,3.9l-3.9-3.9l-5.29-1.26
			l-3.65-3.53l-9.45-1.26l-1.88-7.97l-7.32-6.27l2.9-8.06l1.51-6.93l-1.08-3.72l-5.09-0.94l-2.6-3.23c-0.16,0.35-0.33,0.7-0.51,1.04
			l-7.5,14.07l-13.12,15.7c-0.13,0.16-0.27,0.31-0.41,0.47c-0.3,0.42-0.61,0.83-0.91,1.25c-0.94,1.3-2.72,2.38-4.3,2.76
			c-0.2,0.05-0.39,0.09-0.59,0.14c-1.81,0.78-3.76,1.24-5.76,1.35l-1.24,0.06c-5.19,0.84-10.33,1.18-15.41,0.77l-0.58,0.03
			l-1.4-0.23c-1.41-0.17-2.81-0.39-4.2-0.69l-1.98-0.32l0.37,23.76l4.16,8.12l7.75,6.23l9.64,4.91l15.87,2.46l3.21,3.4l1.89,5.67
			l11.15,6.61l2.27,14.55l10.39,15.49l3.69,10.06c3.05-0.93,4.37-3.92,5.44-7.13c1.4-4.17,3.75-5.91,8.33-5.68
			c5.4,0.27,7.57-2.74,8.2-8.12c0.31-2.6,1.77-6.52,3.66-7.2c5.78-2.08,7.96-6.12,9.02-11.53c1.09-5.56,0.69-11.83,8.02-14.27
			c1.11-0.37,1.21-4.82,1.08-7.35c-0.05-0.96-1.95-2.26-3.24-2.63c-4.84-1.4-9.76-2.52-14.66-3.68c-3.7-0.88-5.7-2.73-5.48-6.96
			c0.1-1.91-1.39-3.9-2.32-6.26c4.6-7.59,9.25-15.69,14.36-23.5c2.91-4.45,4.45-9.09,4.01-14.29c-0.27-3.15,0.95-4.4,3.89-5.27
			c8.64-2.57,17.2-5.43,25.76-8.29C546.92,311.88,548.57,306.73,547.71,301.58z"/>
		<path class="st1" d="M225.2,456.27l-5.29-1.01l-4.03-7.3l-2.77-23.93l0.25-12.85l-5.04-2.9l-3.53-4.41l-2.77,1.51l-8.31-5.29
			l-6.3,4.03l-22.32-0.22c0.41,2.36,1.22,4.72,1.93,7.02c2.78,9.04,5.63,18.06,8.67,27.02c0.45,1.33,1.95,3.12,3.1,3.23
			c2.96,0.27,3.5,2.07,4.09,4.32c2.7,10.26,5.45,20.5,8.21,30.74c2.65,9.84,2.67,9.83,12.9,10.35c8.84,0.44,13.92-2.72,17.31-10.75
			c0.31-0.73,0.47-1.72,1.04-2.1c0.86-0.58,1.75-1.28,2.65-1.87l2.22-8.04L225.2,456.27z"/>
		<path class="st1" d="M430.47,444.94l-5.01-6.05l0.5-9.32l-4.53-3.78h-9.82l-7.56,2.52l-4.28,7.81l-8.82,0.76l-9.07,3.02
			l-3.53-9.32l-2.12-16.45l-5.19-5.97l-8.31-3.27l-9.57-10.33l-1.24-21.18l-5.81-5.52L343.84,353l-7.31-12.98l-21.22,20.25
			c-3.68,3.51-8.51,5.45-13.6,5.45h-1.55c-3.83,0.45-7.54,0.51-11.07,0h-0.13l2.16,7.44l8.63,0.99l4.28,9.07L299,411.44l1.88,5.02
			l-0.37,7.57l12.87,25.99c0.97-0.47,1.99-0.89,3.06-1.23c1.83-0.59,3.42-1.93,5.13-2.92c0.61,1.98,1.02,4.04,1.87,5.9
			c1.1,2.43,2.07,6.1,3.95,6.74c3.1,1.06,7.23,1.73,9.87-2.13c1.24-1.82,2.75-3.48,4.25-5.11c6.27-6.82,12.92-8.83,18.62-6.63
			c1.95,11.74,3.8,22.71,5.58,33.7c0.3,1.86,0.27,3.78,0.57,5.65c0.19,1.2,0.32,2.91,1.11,3.42c9.04,5.91,17.32,13.43,29.26,13.14
			c7.82-0.19,8.33,0.17,9.22-7.82c0.68-6.11,3.35-8.72,9.26-9.29c5.43-0.52,10.11-2.62,11.71-8.67c0.15-0.58,1.08-1.39,1.61-1.36
			c7.4,0.42,7.58-5.57,8.45-10.17c0.49-2.6,1.48-3.59,3.6-4.04c0.57-0.12,1.14-0.24,1.71-0.36l-5.41-10.36L430.47,444.94z"/>
		<path class="st1" d="M118.14,366.1h10.08l12.34-10.96h9.82l2.27,8.94l3.53,2.02h13.85l5.54-10.96v-23.55l9.92-7.71l-0.85-7.91
			l-9.07-17.63l-7.3,1.01l-6.05-3.27l-4.03,6.05l-0.25,10.71l-6.55,10.96l-9.07,3.53l-7.05-1.26l-7.81-4.03l-7.05-17.13l-3.79-5
			l-8.3,0.22l-5.36,10.49c3.34,1.35,4.97,3.57,4.98,8.2c0.01,5.39-0.1,10.77,0.01,16.16c0.15,7.59,0.52,15.14-4.1,21.91
			c-0.21,0.3-0.3,0.79-0.31,1.33l12.34,1.61L118.14,366.1z"/>
		<path class="st1" d="M193.71,400.1v-17.38l-3.87-3.05l-3.43-18.11l-10.83-6.42l-5.54,10.96h-13.85l-3.53-2.02l-2.27-8.94h-9.82
			l-12.34,10.96h-10.08l-2.27-6.3l-12.34-1.61c-0.01,1.17,0.39,2.63,1.01,3.15c2.36,2,2.09,4.04,1.12,6.34
			c-2.41,5.67-5.1,11.24-7.22,17.02c-0.77,2.09-1.19,5.28-0.13,6.91c5.35,8.28,5.14,16.1-0.61,23.94c-0.09,0.13-0.16,0.28-0.2,0.43
			c-0.99,3.19-1.98,6.37-2.96,9.56c3.83,0.26,7.67,0.54,11.51,0.76c0.44,0.03,0.9-0.42,1.35-0.41c3.84,0.1,7.67,0.38,11.51,0.35
			c3.87-0.03,9.46,1.23,11.32-0.8c7.38-8.05,18.16-13.35,20.99-25.45c0.59-2.51,4.89-5.59,7.67-5.79c3.26-0.23,5.83,2.79,5.94,7.12
			c0.02,0.86,0.12,1.72,0.28,2.58l22.32,0.22L193.71,400.1z"/>
		<path class="st1" d="M239.71,341.46c4.36,3.31,11.01,3.34,15.82,2.78c1.36-0.16,2.65-0.37,3.83-0.61l-14.74-14.53
			c-2.23-2.2-4.83-3.93-7.73-5.14l-6.29-2.63C230.7,326.89,232.17,335.72,239.71,341.46z"/>
		<polygon class="st1" points="283.89,268.86 272.72,257.94 271.29,251.23 278.35,228.56 275.07,215.71 268.78,213.2 268.78,203.88 
			264.49,202.9 257.94,206.71 254.67,212.19 253.66,217.35 241.19,222.14 240.94,226.17 237.16,230.7 218.77,230.95 211.6,238.38 
			210.84,247.2 222.93,260.17 229.73,265.59 244.59,279.7 269.28,282.47 274.82,277.68 281.62,273.65 		"/>
		<polygon class="st1" points="363.99,266.85 366.76,261.56 382.13,263.39 386.16,273.15 412.36,282.09 419.35,263.39 
			413.11,206.71 395.35,210.42 386.66,214.2 380.62,221.13 377.09,229.32 359.21,239.14 358.45,246.45 353.66,251.99 353.41,263.39 
			358.95,267.6 		"/>
		<polygon class="st1" points="348.97,283.29 353.66,276.17 353.41,263.39 331.25,263.39 322.16,265.85 311.31,266.7 307.57,261.56 
			301.52,261.56 294.59,266.6 283.89,268.86 281.62,273.65 274.82,277.68 280.11,293.05 308.83,291.28 315.88,297.83 329.48,297.58 
			336.53,302.11 342.33,289.52 		"/>
		<path class="st1" d="M287.98,357.22h13.73c2.89,0,5.63-1.1,7.73-3.1l28.85-27.54c1.15-1.1,2.42-2.07,3.76-2.9l-5.52-21.57
			l-7.05-4.53l-13.6,0.25l-7.05-6.55l-28.72,1.76l-4.79,14.11l-19.91,20.64l27.92,27.53C284.58,356.54,286.23,357.22,287.98,357.22z
			"/>
		<path class="st1" d="M280.11,293.05l-5.29-15.37l-5.54,4.79l-24.69-2.77l-14.86-14.11l-6.8-5.42l-12.09-12.97l-16.12-11.59
			l-3.02-5.79l-3.78-0.25l-4.61-8.14c-0.47,0.13-0.87,0.32-1.11,0.61c-1.97,2.39-3.34,5.28-5.36,7.61c-2.65,3.07-5.66,8.14-8.59,8.2
			c-7.02,0.14-12.53,2.27-17.71,6.52c-0.75,0.62-2.14,1.16-3.09,1.11c-0.14,0.41-0.3,0.82-0.47,1.22l6.86,3.95l8.13,9.38l4.04,7.35
			c0.29,0.53,0.66,1,1.11,1.4l29.82,26.81c0.29,0.26,0.62,0.49,0.97,0.68l19.05,10.15l23.22,9.69c3.9,1.63,7.41,3.96,10.42,6.93
			l4.81,4.74l19.91-20.64L280.11,293.05z"/>
		<path class="st1" d="M391.05,89.18l-1.37,9.47l5.67,15.49l-1.89,27.02l-3.33,11.71l-0.44,7.94h-9.07l8.12,11.83l11.34,16.51
			l13.98,3.21l17.95-8.88l18.7-0.38l9.31-4.18c-1.26-1.74-2.08-3.77-1.76-5.2c0.29-1.31,1.49-2.92,2.68-3.43
			c8.16-3.45,10.3-8.7,6.76-16.82c-0.8-1.84-1.1-3.93-1.4-5.94c-1.5-9.88-1.47-9.89-11.34-12.25c-1.23-0.29-2.51-0.62-3.75-0.57
			c-4.57,0.17-6.35-2.58-6.37-6.49c-0.02-4.64,0.73-9.28,0.77-13.93c0.03-2.86,1.1-4.57,3.48-6.03c1.46-0.9,3.49-2.64,3.44-3.94
			c-0.19-5.67,0.82-11.7-4.52-16.2c-3.82-3.22-4.82-7.2-0.69-11.3c1.1-1.09,1.9-2.55,2.62-3.95c2.65-5.18,0.23-9.93-5.14-11.47
			c-3.69-1.06-7.25-2.84-10.56-4.82c-3.1-1.85-5.85-4.33-8.66-6.64c-3.34-2.76-7.17-2.16-10.25-0.47
			c-5.59,3.06-10.57,7.22-16.13,10.34c-1.06,0.59-2.44,0.79-3.86,0.78v15.56L391.05,89.18z"/>
		<path class="st1" d="M319.7,159.52l19.61,15.26l4.66,18.26l3.78,2.27l24.69-0.63l5.54-3.94l10.77-18.11l-8.12-11.83l-23.43-28.9
			l-7.56-0.76l-12.66-13.04l-0.16-3.98l1.48-4.15l0.19-14.36L340,87.5l-4.05-16.22c-3.47,1.23-6.95,2.45-10.26,4.02
			c-1.81,0.86-3.98,3.01-4.21,4.81c-1.34,10.21-6.08,18.82-11.42,27.32c-1.49,2.37-2.25,5.56-2.31,8.39
			c-0.17,9.18,0.18,18.37,0.25,27.55c0.02,1.93-0.89,4.47-2.15,6.59l5.12,6.68L319.7,159.52z"/>
		<path class="st1" d="M338.49,95.62l-0.19,14.36l-1.48,4.15l0.16,3.98l12.66,13.04l7.56,0.76l23.43,28.9h9.07l0.44-7.94l3.33-11.71
			l1.89-27.02l-5.67-15.49l1.37-9.47l4.3-13.01V60.6c-1.14-0.01-2.3-0.14-3.34-0.33c-3.62-0.65-7.06-2.21-10.67-2.96
			c-2.75-0.57-5.63-0.49-8.41-0.7c-0.31-1.19-0.54-2.11-0.79-3.02c-1.62-5.89-2.82-6.75-8.98-6.58c-3.16,0.09-6.33,0.07-9.49,0.21
			c-7.7,0.34-11.33,3.21-12.74,10.64c-0.73,3.86-0.76,7.86-1.12,12.01c-1.29,0.48-2.58,0.94-3.87,1.4L340,87.5L338.49,95.62z"/>
		<path class="st1" d="M407.25,303.25l5.1-21.16l-26.2-8.94l-4.03-9.76l-15.37-1.83l-2.77,5.29l-5.04,0.76l-5.54-4.22l0.25,12.78
			l-4.7,7.12l-6.64,6.23l-5.79,12.59l5.52,21.57c2.86-1.77,6.08-2.9,9.41-3.27c5.97-0.67,15.16-0.91,24.98,1.72
			c4.6,1.23,13.18,5.82,19.43,9.38l2.69-15.04L407.25,303.25z"/>
		<path class="st1" d="M270.79,171.88l-2.02,10.58v21.41v9.32l6.3,2.52l3.27,12.85l-7.05,22.67l1.43,6.71l11.17,10.92l10.71-2.27
			l6.93-5.04h6.05l3.75,5.14l10.84-0.85l9.09-2.46h22.17l0.25-11.4l-15.37-1.45l-3.4-4.35l-9.45-19.84l-8.69-3.4l-6.42-0.38
			l-8.31-3.02l0.38-7.56l6.42-2.27l2.83-6.83l-1.13-7.59l-5.29-13.35l-5.1-20.21l-5.89-6.68c-2.31,0.27-4.51,0.5-6.51,0.74
			l-8.39,4.99L270.79,171.88z"/>
		<path class="st1" d="M305.24,181.96l5.29,13.35l1.13,7.59l-2.83,6.83L302.4,212l-0.38,7.56l8.31,3.02l6.42,0.38l8.69,3.4
			l9.45,19.84l3.4,4.35l15.37,1.45l4.79-5.54l0.76-7.3l17.88-9.82l3.53-8.19l6.05-6.92l8.69-3.78l17.76-3.72l0.94-14.36l-13.98-3.21
			l-11.34-16.51l-10.77,18.11l-5.54,3.94l-24.69,0.63l-3.78-2.27l-4.66-18.26l-19.61-15.26l-8.73-2.88l-5.12-6.68
			c-1.29,2.17-2.94,3.91-4.34,4.13c-2.45,0.39-4.91,0.69-7.27,0.97l5.89,6.68L305.24,181.96z"/>
		<path class="st1" d="M441.83,259.42l-7.56,3.97h-14.92l-6.99,18.7l-5.1,21.16l-8.69,13.22l-2.69,15.04
			c2.97,1.69,5.41,3.14,6.66,3.89l10.9,1.78l16.33-0.82c2.27-0.11,4.41-1.18,5.87-2.93l12.56-15.03l7.09-13.29
			c0.35-0.65,0.61-1.34,0.79-2.05l3.53-13.95c0.5-1.97,1.36-3.84,2.5-5.5c-2.87,1.4-6.67,1.62-9.61,0.89c-0.69-3.08-1.6-6.11-2-9.21
			c-0.24-1.85-0.33-4.26,0.64-5.62c1.98-2.76,2.85-5.63,3.08-8.62l-4.08-1.63H441.83z"/>
		<path class="st1" d="M191.7,229.82l3.02,5.79l16.12,11.59l0.76-8.82l7.18-7.43l18.39-0.25l3.78-4.53l0.25-4.03l12.47-4.79
			l1.01-5.16l3.27-5.48l6.55-3.81l4.28,0.98v-21.41l2.02-10.58l8.56-11.08l8.39-4.99c-0.09,0.01-0.19,0.02-0.28,0.03
			c0.14-6.01,0.53-12.06,0.28-18.08c-0.08-2.05-1.27-4.57-2.79-5.97c-6.29-5.79-12.88-11.24-19.4-16.78
			c-4.5-3.83-5.13-3.79-7.92,1.65c-2.96,5.77-6.91,9.15-13.88,7.99c-1.58-0.26-4.32,0.42-4.95,1.55c-2.15,3.84-5.23,3.9-8.86,3.52
			c-2.99-0.32-6.01-0.23-9.02-0.43c-2.67-0.18-4.22,0.76-4.43,3.62c-0.62,8.53-1.09,17.08-2.06,25.57
			c-0.67,5.87,1.11,12.44-4.27,17.26c-0.63,0.56-0.52,2.09-0.52,3.17c0.01,9.5,0.05,19,0.13,28.5c0.1,12.52-8.95,19.14-20.58,15.04
			c-1.19-0.42-2.37-1.1-3.59-1.19c-0.69-0.05-1.58-0.02-2.3,0.18l4.61,8.14L191.7,229.82z"/>
		<path class="st1" d="M432,183.47l-17.95,8.88l-0.94,14.36l6.23,56.68h14.92l7.56-3.97h8.31l4.08,1.63
			c0.16-2.03,0.02-4.12-0.28-6.27c-0.14-1.01,0.35-2.3,0.94-3.21c5.09-7.75,14.12-13.41,12.84-24.52c-0.05-0.39,0.53-0.83,0.55-1.27
			c0.18-3.13,0.23-6.27,0.44-9.39c0.17-2.5-0.42-5.75,0.92-7.34c6.1-7.29,6.74-11.79,1.7-19.57c-0.34-0.52-0.84-1.08-0.87-1.64
			c-0.21-3.82-2.72-4.93-5.97-5.46c-1.47-0.24-3.19-1.7-4.46-3.46l-9.31,4.18L432,183.47z"/>
	</g>
</g>
</svg>
