<?xml version="1.0" encoding="utf-8"?>
<!-- Generator: Adobe Illustrator 26.2.0, SVG Export Plug-In . SVG Version: 6.00 Build 0)  -->
<svg version="1.1" id="Layer_1" xmlns="http://www.w3.org/2000/svg" xmlns:xlink="http://www.w3.org/1999/xlink" x="0px" y="0px"
	 viewBox="0 0 1225.22 460.72" style="enable-background:new 0 0 1225.22 460.72;" xml:space="preserve">
<style type="text/css">
	.st0{opacity:0.3;fill:url(#SVGID_1_);enable-background:new    ;}
	.st1{opacity:0.3;}
	.st2{fill:#FFFFFF;}
	.st3{fill-rule:evenodd;clip-rule:evenodd;fill:#58595B;}
	.st4{opacity:0.3;fill:#FED092;enable-background:new    ;}
</style>
<g>
	
		<linearGradient id="SVGID_1_" gradientUnits="userSpaceOnUse" x1="612.61" y1="-28.7428" x2="612.61" y2="-374.5031" gradientTransform="matrix(1 0 0 1 0 470)">
		<stop  offset="0" style="stop-color:#FF9D7D"/>
		<stop  offset="1" style="stop-color:#FF2F91"/>
	</linearGradient>
	<path class="st0" d="M612.61,60.66c-220.92,0-400,179.09-400,400h800C1012.61,239.75,833.53,60.66,612.61,60.66z"/>
	<g class="st1">
		<path class="st2" d="M499.98,265.67H359.41c-2.3,0-4.19-1.89-4.19-4.19l0,0c0-2.3,1.89-4.19,4.19-4.19h140.57
			c2.3,0,4.19,1.89,4.19,4.19l0,0C504.17,263.79,502.29,265.67,499.98,265.67z"/>
		<g>
			<path class="st2" d="M479.74,269.86c0-2.3,1.89-4.19,4.19-4.19h-37.88c-2.3,0-4.19,1.89-4.19,4.19c0,2.3,1.89,4.19,4.19,4.19
				h37.88C481.63,274.04,479.74,272.16,479.74,269.86z"/>
			<path class="st2" d="M470.58,265.67h-37.88c2.3,0,4.19,1.89,4.19,4.19c0,2.3-1.89,4.19-4.19,4.19h37.88
				c2.3,0,4.19-1.89,4.19-4.19C474.76,267.55,472.87,265.67,470.58,265.67z"/>
		</g>
		<path class="st2" d="M523.91,282.42H421.32c-2.3,0-4.19-1.89-4.19-4.19l0,0c0-2.3,1.89-4.19,4.19-4.19h102.59
			c2.3,0,4.19,1.89,4.19,4.19l0,0C528.1,280.53,526.21,282.42,523.91,282.42z"/>
		<g>
			<path class="st2" d="M467.57,286.61c0-2.3,1.89-4.19,4.19-4.19h-19.44c-2.3,0-2.98,8.38-0.67,8.38h20.12
				C469.46,290.79,467.57,288.91,467.57,286.61z"/>
			<path class="st2" d="M465.21,282.42h-22.68c2.3,0,4.19,1.89,4.19,4.19c0,2.3-1.89,4.19-4.19,4.19h23.21
				C468.04,290.79,467.52,282.42,465.21,282.42z"/>
		</g>
		<path class="st2" d="M477.65,299.17h-73.83c-2.3,0-4.19-1.89-4.19-4.19l0,0c0-2.3,1.89-4.19,4.19-4.19h73.83
			c2.3,0,4.19,1.89,4.19,4.19l0,0C481.84,297.28,479.96,299.17,477.65,299.17z"/>
		<path class="st2" d="M509.56,299.17h-15.1c-2.3,0-4.19-1.89-4.19-4.19l0,0c0-2.3,1.89-4.19,4.19-4.19h15.1
			c2.3,0,4.19,1.89,4.19,4.19l0,0C513.74,297.28,511.86,299.17,509.56,299.17z"/>
		<path class="st2" d="M400.68,282.42h5.24c2.3,0,4.19-1.89,4.19-4.19l0,0c0-2.3-1.89-4.19-4.19-4.19h-5.24
			c-2.3,0-4.19,1.89-4.19,4.19l0,0C396.5,280.53,398.38,282.42,400.68,282.42z"/>
	</g>
	<g class="st1">
		<path class="st3" d="M812.6,332.8c0,0,0.01,50.29,0.42,67.08c0,0.01,0,0.02,0,0.02c-0.14-5.16-0.24-11.92-0.3-19.18l0,0v-1.16
			h-0.01c-0.12-13.93-0.13-29.4-0.12-38.59v-0.63C812.59,335.69,812.6,332.8,812.6,332.8l-7.92-2.25l-0.97-0.27l-0.92-0.26
			l-0.2-1.77l-0.37-3.4l-0.42-3.79l-0.39-3.53l-0.76-6.9l-0.89,6.9l-0.45,3.53l-0.49,3.79l-0.43,3.4l-0.07,0.51l-1.66-0.48
			l-23.82,6.15c0,0,0.04,3.04,0.08,7.97l0.01,0.68c0,0.51,0.01,1.03,0.01,1.57l-0.02,0.01l0.01,0.8l0.01-0.01
			c0.01,0.48,0.01,0.97,0.01,1.47l-0.03,0.01l0.01,0.8l0.03-0.01c0.01,1.88,0.02,3.9,0.03,6.04l-0.03,0.01l0.01,0.8l0.03-0.01
			c0,0.49,0,0.97,0.01,1.47l-0.04,0.01l0.01,0.8l0.03-0.01c0.01,2.04,0.01,4.17,0,6.35H773l0.01,0.54
			c-0.03,13.12-0.22,28.06-0.78,38.93c-0.36,6.93-1.18,20.26-1.97,32.73l-0.04,0.33l0.02-0.01c-0.31,4.79-0.6,9.44-0.86,13.54h-0.01
			l-0.1,0.79l0.07-0.01c-0.2,3.13-0.39,5.9-0.53,8.15c-1.46-0.02-2.91-0.03-4.37-0.03c0-3.57,0-7.14,0-10.7
			c-16.72,0-33.44,0-50.15,0c0,3.72,0,7.43,0,11.15h-3.92c-1.98-11.52-3.96-23.03-5.94-34.55c1.36-0.12,2.32-0.28,2.75-0.45
			c0.09,0,0.18,0,0.28,0c0.51-3.06,1.03-6.12,1.53-9.19c-0.05,0-0.1,0-0.15,0c0.1-0.07,0.15-0.13,0.15-0.21v-0.72
			c0-0.27-0.7-0.49-1.56-0.49h-1.65c0.57-0.48,0.95-1.27,0.95-2.17c0-1.47-1.01-2.66-2.25-2.66s-2.25,1.19-2.25,2.66
			c0,0.89,0.38,1.68,0.95,2.17h-0.67c-0.33-1.95-0.67-3.89-1-5.84h0.59l7.93-3.14v-0.83h-4.24c0.46-0.54,0.74-1.33,0.74-2.21
			c0-1.59-0.93-2.89-2.07-2.89c-1.03,0-1.88,1.06-2.04,2.44c-0.22-1.11-1.19-2-2.47-2.32c-0.09-0.54-0.18-1.06-0.27-1.6l10.34-3.13
			v-0.83h-4.42c0.27-0.46,0.46-1,0.57-1.59c0.3-1.74-0.37-3.23-1.5-3.32c-0.78-0.07-1.58,0.55-2.1,1.51
			c-0.54-0.62-1.35-1.03-2.28-1.03c-0.75,0-1.43,0.27-1.95,0.71c-0.16-0.92-0.31-1.83-0.47-2.74h0.46l11.67-3.13v-0.84h-4.15
			c-0.01-0.59-0.41-1.36-1.15-2.1c-1.25-1.23-2.99-1.89-3.89-1.46c-0.3,0.14-0.46,0.39-0.52,0.7c-0.26-1.11-1.04-1.91-1.97-1.91
			c-0.42,0-0.82,0.17-1.14,0.46v-3.63h-1.37c-0.02-0.11-0.04-0.22-0.05-0.32v-17.48h-0.83v17.48c-0.02,0.1-0.03,0.22-0.06,0.32
			h-1.35v7.85c-0.01,0.03-0.01,0.06-0.01,0.09h-1.93c0.54-0.5,0.89-1.23,0.89-2.04c0-1.5-1.18-2.72-2.61-2.72
			c-1,0-1.87,0.59-2.3,1.44c-0.25-0.86-0.74-1.44-1.3-1.44c-0.81,0-1.47,1.22-1.47,2.72c0,0.82,0.19,1.54,0.5,2.04h-4.6v0.84
			l12.13,3.13c-0.37,2.15-0.74,4.31-1.11,6.46h-1.27c0.37-0.48,0.6-1.08,0.6-1.76c0-1.47-1.08-2.67-2.4-2.67
			c-1.21,0-2.21,1.01-2.37,2.3c-0.05-1.3-0.35-2.3-0.72-2.3c-0.4,0-0.73,1.19-0.73,2.67c0,0.67,0.07,1.29,0.18,1.76h-4.31v0.83
			l10.34,3.13c-0.08,0.5-0.18,1-0.26,1.5c-0.13-0.01-0.25-0.03-0.39-0.03c-1.05,0-1.98,0.48-2.55,1.21
			c-0.35-0.73-0.91-1.21-1.55-1.21c-1.04,0-1.89,1.3-1.89,2.89c0,0.88,0.26,1.68,0.68,2.21h-4.38V404l8.53,3.11
			c-0.08,0.46-0.16,0.91-0.24,1.37c-1.35,0.25-2.35,1.2-2.35,2.33c0,0.9,0.64,1.69,1.59,2.1c-0.01,0.03-0.01,0.05-0.01,0.07h-4.92
			c-0.86,0-1.55,0.22-1.55,0.49v0.72c0,0.08,0.05,0.14,0.15,0.21c-0.05,0-0.1,0-0.15,0c0.52,3.06,1.03,6.12,1.54,9.19
			c0.09,0,0.19,0,0.28,0c0.42,0.17,1.4,0.33,2.75,0.45c-0.86,4.98-1.71,9.94-2.57,14.92c-9.64,0-19.21,0-28.88,0
			c0-4.66,0-9.15,0-13.63c-0.22-0.07-0.33-0.15-0.43-0.15c-10.14,0.04-20.28,0.12-30.41,0.12c-26.42-0.01-52.84-0.06-79.25-0.12
			c-0.91,0-1.23,0.24-1.22,1.35c0.05,3.65,0,7.31,0.05,10.96c0.02,1.1-0.21,1.51-1.23,1.5c-8.43-0.08-16.86-0.1-25.29-0.12
			c-0.33-0.01-0.66,0.05-1.08,0.08c0,1.24,0,2.42,0,3.62c-0.23-0.33-0.5-0.53-0.8-0.53c-0.71,0-1.28,1.08-1.36,2.46
			c-2.14,0-4.27,0-6.42,0c0-0.05,0.01-0.08,0.01-0.12c0-1.75-0.61-3.17-1.37-3.17s-1.37,1.42-1.37,3.17c0,0.38,0.03,0.74,0.08,1.07
			c-1.97-0.95-4.54-1.7-7.48-2.2v-8.04h0.82v-0.84h-1.65v-1.73c0.54-0.35,0.91-1.19,0.91-2.16c0-1.29-0.65-2.34-1.46-2.34
			c-0.8,0-1.46,1.04-1.46,2.34c0,0.62,0.15,1.19,0.4,1.62h-2.42v-2.28h-2.06c0.36-0.57,0.59-1.44,0.59-2.42
			c0-1.7-0.69-3.09-1.55-3.09c-0.86,0-1.55,1.38-1.55,3.09c0,0.98,0.24,1.86,0.59,2.42h-2.24v2.28h-2.62
			c0.27-0.42,0.43-0.99,0.43-1.62c0-1.29-0.69-2.34-1.55-2.34c-0.86,0-1.55,1.04-1.55,2.34c0,1.15,0.55,2.1,1.28,2.3v1.59h-2.19
			v0.84h1.74v8.04c-2.32,0.39-4.39,0.93-6.13,1.62c0.01-0.16,0.01-0.33,0.01-0.5c0-1.75-0.53-3.17-1.19-3.17
			c-0.31,0-0.59,0.33-0.8,0.86l0.06-27.27l-1.48-0.01l3.21,0.01l0.01-1.5l-10.56-0.03c-1.17-2.62-3.47-6.09-3.47-6.09
			c-0.19-0.31-0.37-0.49-0.52-0.72c-1.26-1.82-6.71-3.54-6.71-3.54l-0.97-2.4h-0.06c0.18-0.34,0.35-0.7,0.5-1.1
			c0.06,0.08,0.13,0.14,0.22,0.16c0.42,0.08,0.91-0.83,1.09-2.04s-0.01-2.27-0.44-2.36c-0.06-0.01-0.12,0-0.18,0.03
			c0-0.42-0.04-0.82-0.11-1.15c0.02,0.01,0.04,0.02,0.06,0.03c-0.03-1.59-0.48-3.04-1.21-4.16c-0.2-0.61-0.5-1.56-0.63-1.98
			c-0.14-0.42-0.4-0.8-0.76-1.12c0-0.19-0.01-0.4-0.05-0.65c-0.16-1.09-0.54-1.73-1.01-2c-0.48-0.27-0.99,0.83-1.02,1.9
			c-0.08,0-0.16-0.01-0.25-0.01c-0.08,0-0.16,0.01-0.25,0.01h-0.03c-0.05,0.01-0.08,0.01-0.13,0.01c-0.03-1.08-0.53-2.18-1.01-1.91
			c-0.47,0.26-0.86,0.9-1.03,1.98c-0.05,0.32-0.05,0.57-0.04,0.8c-0.29,0.28-0.5,0.61-0.63,0.97c-0.15,0.41-0.54,1.35-0.77,1.92
			c-0.77,1.13-1.25,2.6-1.28,4.21c0.03-0.03,0.08-0.05,0.12-0.07c-0.08,0.29-0.1,0.63-0.12,0.99c-0.07-0.04-0.15-0.07-0.22-0.05
			c-0.42,0.08-0.62,1.14-0.44,2.36c0.18,1.22,0.67,2.14,1.08,2.05c0.03-0.01,0.06-0.03,0.09-0.04c0.14,0.42,0.31,0.82,0.49,1.21
			h-0.07l-0.79,2.27h-0.03c0,0-0.97,0.3-2.17,0.78c-0.74,0.27-1.57,0.62-2.32,1.06c-0.96,0.51-1.81,1.08-2.21,1.67
			c-0.16,0.22-0.34,0.4-0.53,0.72c0,0-0.6,1.02-1.35,2.36l-2.06-3.37c-0.29-0.47-0.67-0.89-1.09-1.18l0.07-0.6
			c0.06-0.48-0.18-0.92-0.54-0.99c-0.35-0.07-0.69,0.27-0.74,0.74l-0.06,0.48c-0.51,0.04-1.04,0.31-1.56,0.94
			c-0.01,0.01-0.02,0.03-0.03,0.04c-0.27-0.37-0.52-0.76-0.61-1.16l0,0l-0.51-3.37c-0.07-0.44-0.39-0.71-0.71-0.62
			c-0.33,0.1-0.54,0.54-0.47,0.98l0.12,0.78c-0.06,0.03-0.1,0.08-0.14,0.15l-1.4,3.01c-0.1,0.22-0.01,0.52,0.18,0.76l-0.29,0.32
			c-0.17,0.19-0.14,0.63,0.07,0.97c0.08,0.14,0.19,0.24,0.29,0.3l-0.29,0.51l-0.01,0.01c-0.01,0.01-0.01,0.03-0.03,0.05l-0.05,0.1
			c0,0,0,0.01,0,0.01c-0.05,0.15-0.03,0.36,0.04,0.55c0.2,0.95,1.04,1.87,1.67,2.4c0.14,0.12,0.37,0.24,0.63,0.36
			c0,0.54,0.07,1.02,0.22,1.67l-6.92-0.01v1.5l2.94,0.01l-0.08,35.61c-4.32,0.03-8.65,0.02-13-0.12c0-20.14,0-40.27,0-60.42
			c-1.1-0.08-1.95-0.14-3-0.22c-0.08-0.79-0.16-1.57-0.24-2.41c-0.69-0.04-1.31-0.08-1.91-0.12c-0.5-5.16-3.07-9.89-4.51-14.81
			c-0.06-0.22-0.11-0.43-0.17-0.63c1.44-0.74,2.83-1.45,4.2-2.18c2.53-1.35,3.13-3.47,3.53-5.6c0.09-0.5-0.46-1.19-0.97-1.61
			c-2.42-1.96-5.1-3.66-8.89-4.06c0.25-0.38,0.45-0.68,0.64-0.98c-0.15,0.05-0.3,0.1-0.45,0.16c-1.64-2.51-3.28-5.02-5.02-7.7
			c0.03,1.33-0.76,2.14-2.07,2.88c-0.8,0.45-1.16,1.49-1.44,2.31c-0.46,1.37-0.68,2.78-1.01,4.22c0.22,0.16,0.59,0.43,0.97,0.7
			c-0.34,0.25-0.63,0.65-1.03,0.74c-2.21,0.48-3.11,1.7-3.49,3.31c-0.15,0.65-0.34,1.32-0.67,1.93c-0.5,0.92-1.81,1.19-2.68,0.5
			c-0.68-0.55-1.29-1.3-1.48-2.03c-0.61-2.3-1.02-4.64-1.51-6.99c-0.71,0-1.33,0-2.11,0c0.44,2.36,0.87,4.64,1.29,6.93
			c0.1,0.55,0.66,1.2-0.65,1.48c-0.18,0.05-0.28,1.05-0.01,1.46c0.44,0.69,1.22,1.23,1.83,1.86c0.22,0.23,0.42,0.51,0.48,0.78
			c1.23,5.58,2.43,11.16,3.66,16.82c-0.56,0.09-1.04,0.17-1.57,0.26c0,0.57,0,1.15,0,1.63c0.46,0.28,0.86,0.51,1.25,0.75
			c-0.52,0.16-1.04,0.44-1.57,0.46c-1.25,0.07-2.52,0.02-4.13,0.02c0,21.31,0,42.49,0,63.74h-0.42v7.37h440.87
			c-1.14-0.03-2.27-0.06-3.4-0.1L812.6,332.8z M387.22,382.56c-0.09,0.01-0.19,0.02-0.29,0.03c-1.09-4.2-2.18-8.39-3.21-12.38
			c1.63-0.41,3.06-0.77,4.52-1.14C387.91,373.53,387.57,378.04,387.22,382.56z M401.17,363.06c0.18,0.01,0.37,0.02,0.55,0.03
			c0.39,0.32,0.74,0.68,1.18,0.96c0.39,0.25,0.86,0.42,1.45,0.71c-0.4,0.92-0.65,1.9-1.28,2.69c-0.25,0.31-1.39,0.2-2.68,0.35
			C400.67,366.06,400.92,364.55,401.17,363.06z M425.91,422.1l0.02-7.46h-0.53h0.53l0,0l3.36,0.01l0.14,0.23L425.91,422.1z
			 M472.1,431.19l0.02-8.98l-3.86-7.47l3.88,0.01L472.1,431.19z M528.69,444.42H522v-3.48h6.69V444.42z M535.96,444.42h-6.69v-3.48
			h6.69V444.42z M543.22,444.42h-6.69v-3.48h6.69V444.42z M557.68,444.23h-6.69v-3.49h6.69V444.23z M564.95,444.23h-6.69v-3.49h6.69
			V444.23z M572.21,444.23h-6.69v-3.49h6.69V444.23z M594.88,444.09h-6.69v-3.49h6.69V444.09z M602.14,444.09h-6.69v-3.49h6.69
			V444.09z M609.4,444.09h-6.69v-3.49h6.69V444.09z M632.2,443.95h-6.69v-3.49h6.69V443.95z M639.47,443.95h-6.69v-3.49h6.69V443.95
			z M646.73,443.95h-6.69v-3.49h6.69V443.95z M661.53,443.76h-6.69v-3.49h6.69V443.76z M668.79,443.76h-6.69v-3.49h6.69V443.76z
			 M676.05,443.76h-6.69v-3.49h6.69V443.76z"/>
		<path class="st3" d="M653.93,382.89c-5.61,0.94-11.22,1.93-16.85,2.56c-7.03,0.78-14.07,1.22-21.11,1.81
			c-12.9,1.08-25.78,0.62-38.66-0.25c-3.72-0.25-7.44-0.62-11.13-1.18c-5.96-0.89-11.91-1.92-17.85-3.03
			c-3.98-0.74-7.93-1.68-11.89-2.59c-1.53-0.35-3.04-0.88-4.77-1.39c0.18,0.48,0.24,0.74,0.35,0.94c2.63,4.58,5.17,9.24,7.94,13.71
			c2.94,4.74,3.04,4.66,8.08,4.64c0.16,0,0.31,0,0.46,0c1.11,0,2.23,0,3.37,0c0.05,1.08,0.09,1.97,0.12,2.62
			c31.65,2.1,63.15,2.4,94.73,0c0-0.29,0.04-0.66-0.01-1.01c-0.18-1.36,0.34-1.7,1.44-1.66c2.68,0.1,5.35,0.09,8.04,0.03
			c0.5-0.01,1.18-0.31,1.46-0.75c2.71-4.17,5.37-8.39,8.01-12.63c0.83-1.33,1.53-2.76,2.32-4.19c-0.24-0.11-0.31-0.18-0.38-0.16
			C663.05,381.2,658.51,382.13,653.93,382.89z M634.94,396.72h7.16v0.78h-7.16V396.72z M627.01,396.72h7.15v0.78h-7.15V396.72z
			 M619.14,396.69h7.15v0.78h-7.15V396.69z M611.28,396.69h7.15v0.78h-7.15V396.69z M603.34,396.69h7.15v0.78h-7.15V396.69z
			 M595.5,396.69h7.15v0.78h-7.15V396.69z M587.63,396.69h7.15v0.78h-7.15V396.69z M579.7,396.69h7.15v0.78h-7.15V396.69z
			 M571.91,396.69h7.15v0.78h-7.15V396.69z M564.04,396.69h7.15v0.78h-7.15V396.69z M556.1,396.69h7.15v0.78h-7.15V396.69z
			 M556.1,397.92h7.15v0.78h-7.15V397.92z M563.29,399.93h-7.15v-0.78h7.15V399.93z M564.04,397.92h7.15v0.78h-7.15V397.92z
			 M571.23,399.93h-7.16v-0.78h7.16V399.93z M571.91,397.92h7.15v0.78h-7.15V397.92z M579.09,399.93h-7.15v-0.78h7.15V399.93z
			 M579.7,397.92h7.15v0.78h-7.15V397.92z M586.88,399.93h-7.15v-0.78h7.15V399.93z M587.63,397.92h7.15v0.78h-7.15V397.92z
			 M594.82,399.93h-7.15v-0.78h7.15V399.93z M595.5,397.92h7.15v0.78h-7.15V397.92z M602.69,399.93h-7.15v-0.78h7.15V399.93z
			 M603.34,397.92h7.15v0.78h-7.15V397.92z M610.52,399.93h-7.15v-0.78h7.15V399.93z M611.28,397.92h7.15v0.78h-7.15V397.92z
			 M618.46,399.93h-7.15v-0.78h7.15V399.93z M619.14,397.92h7.15v0.78h-7.15V397.92z M626.33,399.93h-7.15v-0.78h7.15V399.93z
			 M627.01,397.95h7.15v0.78h-7.15V397.95z M634.2,399.97h-7.15v-0.78h7.15V399.97z M634.94,397.95h7.16v0.78h-7.16V397.95z
			 M642.14,399.97h-7.16v-0.78h7.16V399.97z"/>
		<path class="st3" d="M530.73,407.97c0.17,0.34,0.22,0.5,0.32,0.62c3.68,4.62,7.5,9.08,11.98,12.64c0.59,0.47,1.39,0.85,2.09,0.85
			c36.79,0.04,73.59,0.03,110.39,0c0.54,0,1.19-0.2,1.59-0.58c3.15-3.06,6.27-6.14,9.34-9.29c0.9-0.91,1.65-2.04,2.66-3.33
			C622.78,414.95,576.83,415.99,530.73,407.97z"/>
		<path class="st3" d="M670.47,373.94c-7.07,0.79-14.16,1.43-21.21,2.47c-1.85,0.27-2.9-0.59-4.11-1.66
			c-0.09-0.08-0.16-0.2-0.26-0.27c-1.73-1.31-3.08-3.6-5.58-2.98c-0.17,0.04-0.65-0.63-0.65-0.96c0.01-1.71,0.74-3.22,2.37-3.2
			c0.71,0.01,0.96-0.57,0.71-1.31c-0.35-1.06-0.75-2.1-1.18-3.12c-0.12-0.27-0.44-0.55-0.68-0.57c-1.5-0.05-3.01-0.03-4.49-0.03
			c-0.39,1.81-0.3,1.96,1.06,2c0.16,0.01,0.34-0.05,0.45,0.04c0.37,0.27,0.82,0.53,1.02,0.93c0.09,0.18-0.25,0.93-0.52,1.04
			c-0.67,0.27-1.4,0.42-2.12,0.42c-0.64,0-1.01,0.17-1.19,0.93c-0.49,2.08-1.02,4.15-1.55,6.29c-0.13,0-0.26,0-0.39,0V373h-1.01
			v0.96c-0.13,0-0.25,0-0.39,0v-0.95h-1.02v0.95c-0.12,0-0.25,0-0.37,0V373h-1.01v0.96c-0.12,0-0.23,0-0.35,0v-0.95h-1.02v0.95
			c-0.12,0-0.25,0-0.37,0V373h-1.01v0.96c-0.13,0-0.26,0-0.39,0v-0.95h-1.01v0.95c-0.13,0-0.25,0-0.38,0V373h-1.02v0.96
			c-0.12,0-0.23,0-0.35,0v-0.95h-1.01v0.95c-0.13,0-0.25,0-0.37,0V373h-1.01v0.96c-0.13,0-0.25,0-0.39,0v-0.95h-1.01v0.95
			c-0.12,0-0.25,0-0.38,0V373h-1.02v0.96c-0.12,0-0.23,0-0.35,0v-0.95h-1.02v0.95c-0.12,0-0.25,0-0.37,0V373h-1.02v0.96
			c-0.13,0-0.25,0-0.39,0v-0.95h-1.01v0.95c-0.12,0-0.25,0-0.37,0V373h-1.01v0.96c-0.13,0-0.26,0-0.39,0v-0.95h-1.01v0.95
			c-0.12,0-0.25,0-0.37,0V373h-1.01v0.96c-0.13,0-0.25,0-0.39,0v-0.95h-1.01v0.95c-0.12,0-0.25,0-0.38,0V373h-1.02v0.96
			c-0.12,0-0.23,0-0.35,0v-0.95h-1.02v0.95c-0.12,0-0.25,0-0.37,0V373h-1.01v0.96c-0.13,0-0.25,0-0.39,0v-0.95H602v0.95
			c-0.12,0-0.25,0-0.37,0V373h-1.01v0.96c-0.12,0-0.24,0-0.35,0v-0.95h-1.01v0.95c-0.13,0-0.25,0-0.38,0V373h-1.01v0.96
			c-0.12,0-0.25,0-0.39,0v-0.95h-1.01v0.95c-0.12,0-0.25,0-0.37,0V373h-1.02v0.96c-0.12,0-0.24,0-0.35,0v-0.95h-1.01v0.95
			c-0.12,0-0.25,0-0.37,0V373h-1.02v0.96c-0.13,0-0.25,0-0.39,0v-0.95h-1.01v0.95c-0.12,0-0.25,0-0.37,0V373h-1.02v0.96
			c-0.12,0-0.24,0-0.35,0v-0.99h-1.02v0.99c-0.12,0-0.25,0-0.37,0v-1h-1.01v1c-0.13,0-0.26,0-0.39,0v-0.99h-1.01v0.99
			c-0.12,0-0.25,0-0.37,0v-1H584v1c-0.12,0-0.24,0-0.35,0v-0.99h-1.02v0.99c-0.12,0-0.25,0-0.38,0v-1h-1.01v1c-0.13,0-0.25,0-0.39,0
			v-0.99h-1.02v0.99c-0.12,0-0.25,0-0.37,0v-1h-1.01v1c-0.1,0-0.21,0-0.31,0v-0.99h-1.02v0.99c-0.12,0-0.25,0-0.37,0v-1h-1.02v1
			c-0.13,0-0.25,0-0.39,0v-0.99h-1.05v0.99c-0.12,0-0.25,0-0.37,0v-1h-1.02v1c-0.12,0-0.24,0-0.35,0v-0.99h-1.02v0.99
			c-0.12,0-0.25,0-0.37,0v-1h-1.01v1c-0.13,0-0.25,0-0.39,0v-0.99h-1.02v0.99c-0.12,0-0.25,0-0.37,0v-1h-1.02v1
			c-0.13,0-0.26,0-0.39,0c0-1.02,0.07-1.97-0.02-2.91c-0.09-0.93-0.37-1.85-0.51-2.78c-0.15-1.06-0.54-1.38-1.51-1.28
			c-0.7,0.08-1.46-0.3-2.14-0.65c-0.2-0.1-0.33-0.81-0.25-1.16c0.06-0.26,0.51-0.5,0.81-0.54c0.63-0.08,1.29-0.03,1.93-0.03
			c0-0.77,0-1.35,0-2.08c-0.75,0-1.44-0.01-2.13,0c-3.19,0.01-3.19,0.01-4.29,3.48c-0.01,0.05-0.03,0.08-0.05,0.12
			c-0.33,0.91-0.04,1.37,0.77,1.5c1.4,0.22,2.08,1.14,2.15,2.79c0.03,0.74-0.17,1.24-0.83,1.08c-1.85-0.46-3.11,0.79-4.32,2.08
			c-1.95,2.07-3.94,3.26-6.82,2.71c-4.51-0.87-9.11-1.11-13.67-1.63c-2.27-0.26-4.52-0.55-6.97-0.84c0.49,1.37,0.78,2.38,2.09,2.51
			c1.5,0.16,2.96,0.69,4.45,1c6.95,1.48,13.86,3.25,20.85,4.31c8.81,1.35,17.68,2.52,26.54,3.04c17.19,1.02,34.38,0.67,51.52-1.55
			c4.55-0.59,9.12-1.06,13.66-1.8c6.65-1.08,13.28-2.37,19.91-3.57c1.51-0.27,2.8-1.86,3.04-3.83
			C670.93,373.93,670.7,373.91,670.47,373.94z"/>
		<path class="st3" d="M671.98,399.45c-0.91,0.33-1.51,0.67-2.15,0.77c-3.41,0.57-6.82,1.32-10.26,1.59
			c-9.33,0.73-18.68,1.4-28.03,1.8c-11.56,0.51-23.14,1.04-34.7,0.99c-18.53-0.09-37.05-1-55.52-2.76c-4.22-0.4-8.52-0.5-12.75-2.39
			c0,1.78,0.03,3.38-0.01,4.96c-0.02,0.92,0.31,1.27,1.08,1.37c5.24,0.72,10.47,1.59,15.72,2.23c6.52,0.8,13.05,1.68,19.6,2.07
			c11.75,0.69,23.51,1.36,35.26,1.45c17.13,0.13,34.25-0.99,51.32-2.7c6.19-0.62,12.37-1.37,18.55-2.1
			c0.38-0.05,0.84-0.31,1.08-0.64C672.59,404.1,671.64,401.8,671.98,399.45z"/>
		<path class="st3" d="M719.97,278.32c2.7,0,5.23-0.06,7.76,0.05c0.71,0.03,1.54,0.37,2.06,0.87c2.1,2.1,4.16,4.28,6.12,6.53
			c0.5,0.58,0.87,1.56,0.86,2.34c-0.61,33.31-1.26,66.61-1.9,99.92c-0.01,0.62-0.01,1.23-0.01,1.95c3.79,0,7.39,0,11.07,0
			c0-0.69,0.01-1.26,0-1.83c-0.63-33.25-1.26-66.51-1.93-99.76c-0.03-1.35,0.32-2.28,1.23-3.19c1.82-1.8,3.58-3.68,5.28-5.62
			c0.81-0.93,1.65-1.33,2.85-1.28c2.46,0.1,4.93,0.03,7.38,0.03c0-9.45,0-18.68,0-27.96c-13.62,0-27.16,0-40.76,0
			C719.97,259.68,719.97,268.9,719.97,278.32z M758.13,251.46h1.48v11.67h-1.48V251.46z M758.13,264.34h1.48v12.38h-1.48V264.34z
			 M755.79,251.51h1.48v11.62h-1.48V251.51z M755.79,264.34h1.48v12.43h-1.48V264.34z M753.31,251.51h1.48v11.62h-1.48V251.51z
			 M753.31,264.34h1.48v12.43h-1.48V264.34z M750.78,251.51h1.48v11.62h-1.48V251.51z M750.78,264.34h1.48v12.43h-1.48V264.34z
			 M748.44,251.51h1.48v11.62h-1.48V251.51z M748.44,264.34h1.48v12.43h-1.48V264.34z M745.96,251.51h1.48v11.62h-1.48V251.51z
			 M745.96,264.34h1.48v12.43h-1.48V264.34z M743.43,251.51h1.48v11.62h-1.48V251.51z M743.43,264.34h1.48v12.43h-1.48V264.34z
			 M741.02,251.51h1.48v11.62h-1.48V251.51z M741.02,264.34h1.48v12.43h-1.48V264.34z M738.55,251.51h1.48v11.62h-1.48V251.51z
			 M738.55,264.34h1.48v12.43h-1.48V264.34z M736.02,251.51h1.48v11.62h-1.48V251.51z M736.02,264.34h1.48v12.43h-1.48V264.34z
			 M733.55,251.56h1.48v11.57h-1.48V251.56z M733.55,264.34h1.48v12.48h-1.48V264.34z M731.08,251.56h1.48v11.57h-1.48V251.56z
			 M731.08,264.34h1.48v12.48h-1.48V264.34z M728.55,251.56h1.49v11.57h-1.49V251.56z M728.55,264.34h1.49v12.48h-1.49V264.34z
			 M726.07,251.56h1.48v11.57h-1.48V251.56z M726.07,264.34h1.48v12.48h-1.48V264.34z M723.6,251.56h1.48v11.57h-1.48V251.56z
			 M723.6,264.34h1.48v12.48h-1.48V264.34z M721.08,251.56h1.48v11.57h-1.48V251.56z M721.08,264.34h1.48v12.48h-1.48V264.34z"/>
		<path class="st3" d="M749.42,391.35c-6.14,0-12.13,0-18.2,0c0,6.91,0,13.69,0,20.54c-0.61,0.05-1.13,0.09-1.64,0.13
			c0,6.41,0,12.69,0,18.94c7.38,0,14.65,0,21.91,0c0-6.37,0-12.62,0-18.95c-0.65-0.03-1.23-0.07-2.06-0.11
			C749.42,404.94,749.42,398.12,749.42,391.35z"/>
		<path class="st3" d="M726.01,248.95c9.6,0,19.1,0,28.72,0c0-6.54,0-13.09,0-19.63c-9.62,0-19.18,0-28.72,0
			C726.01,235.92,726.01,242.42,726.01,248.95z"/>
		<path class="st3" d="M718.2,445.03c14.8,0,29.54,0,44.34,0c0-2.29,0-4.51,0-6.82c-14.87,0-29.6,0-44.34,0
			C718.2,440.54,718.2,442.75,718.2,445.03z"/>
		<path class="st3" d="M723.57,437.06c11.13,0,22.17,0,33.29,0c0-1.55,0-3.01,0-4.58c-11.18,0-22.23,0-33.29,0
			C723.57,434.06,723.57,435.52,723.57,437.06z"/>
		<path class="st3" d="M737.15,214.13c2.21,0,4.52,0,6.69,0c0-5.1,0-10.11,0-15.1c-2.33,0-4.39,0-6.69,0
			C737.15,204.12,737.15,209.09,737.15,214.13z"/>
		<path class="st3" d="M736.73,228.02c2.52,0,5.07,0,7.46,0c0-4.45,0-8.76,0-13.07c-2.59,0-4.9,0-7.46,0
			C736.73,219.33,736.73,223.61,736.73,228.02z"/>
		<path class="st3" d="M739.74,150.47c-0.37,11.94-0.66,23.9-0.99,35.91c1.34,0,2.47,0,3.81,0c-0.69-12.08-1.36-23.98-2.04-35.9
			C740.26,150.47,740,150.47,739.74,150.47z"/>
		<path class="st3" d="M737.59,198.2c1.95,0,3.96,0,5.92,0c0-3.78,0-7.36,0-11c-2.04,0-3.85,0-5.92,0
			C737.59,190.88,737.59,194.51,737.59,198.2z"/>
	</g>
	<circle class="st4" cx="636.12" cy="174.7" r="31.88"/>
	<g class="st1">
		<path class="st2" d="M909.05,285.1H806.46c-2.3,0-4.19-1.89-4.19-4.19l0,0c0-2.3,1.89-4.19,4.19-4.19h102.59
			c2.3,0,4.19,1.89,4.19,4.19l0,0C913.24,283.21,911.36,285.1,909.05,285.1z"/>
		<g>
			<path class="st2" d="M862.03,289.28c0-2.3,1.89-4.19,4.19-4.19h-19.44c-2.3,0-2.98,8.38-0.67,8.38h20.12
				C863.92,293.47,862.03,291.59,862.03,289.28z"/>
			<path class="st2" d="M859.67,285.1h-22.68c2.3,0,4.19,1.89,4.19,4.19c0,2.3-1.89,4.19-4.19,4.19h23.21
				C862.5,293.47,861.97,285.1,859.67,285.1z"/>
		</g>
		<path class="st2" d="M872.11,301.85h-73.83c-2.3,0-4.19-1.89-4.19-4.19l0,0c0-2.3,1.89-4.19,4.19-4.19h73.83
			c2.3,0,4.19,1.89,4.19,4.19l0,0C876.29,299.96,874.41,301.85,872.11,301.85z"/>
		<path class="st2" d="M904.01,301.85h-15.1c-2.3,0-4.19-1.89-4.19-4.19l0,0c0-2.3,1.89-4.19,4.19-4.19h15.1
			c2.3,0,4.19,1.89,4.19,4.19l0,0C908.2,299.96,906.31,301.85,904.01,301.85z"/>
	</g>
</g>
</svg>
